STARTFONT 2.1
COMMENT
COMMENT Converted from OpenType font "FreeUniversal-Regular.ttf" by "otf2bdf 3.0".
COMMENT
FONT -FreeType-FreeUniversal-Medium-R-Normal--68-680-72-72-P-317-ISO10646-1
SIZE 68 72 72
FONTBOUNDINGBOX 92 89 -5 -18
STARTPROPERTIES 19
FOUNDRY "FreeType"
FAMILY_NAME "FreeUniversal"
WEIGHT_NAME "Medium"
SLANT "R"
SETWIDTH_NAME "Normal"
ADD_STYLE_NAME ""
PIXEL_SIZE 68
POINT_SIZE 680
RESOLUTION_X 72
RESOLUTION_Y 72
SPACING "P"
AVERAGE_WIDTH 317
CHARSET_REGISTRY "ISO10646"
CHARSET_ENCODING "1"
FONT_ASCENT 70
FONT_DESCENT 17
COPYRIGHT "(FreeUniversal) Copyright (c) Stephen Wilson 2009    a modification of:    Original Font (SIL Sophia)  Copyright (c) SIL International, 1994-2008.    "
_OTF_FONTFILE "FreeUniversal-Regular.ttf"
_OTF_PSNAME "FreeUniversal-Regular"
ENDPROPERTIES
CHARS 243
STARTCHAR 0020
ENCODING 32
SWIDTH 294 0
DWIDTH 20 0
BBX 0 0 0 0
BITMAP
ENDCHAR
STARTCHAR 0021
ENCODING 33
SWIDTH 367 0
DWIDTH 25 0
BBX 7 49 9 0
BITMAP
7E
7E
7E
7E
7E
7E
7E
7E
7E
7E
7E
7E
7E
7E
7E
7E
7E
7E
7E
7E
7E
7E
7E
7E
7E
7E
7E
7E
7E
7E
7E
7E
7E
7E
7E
7E
7E
7E
00
00
00
00
00
FE
FE
FE
FE
FE
FE
ENDCHAR
STARTCHAR 0022
ENCODING 34
SWIDTH 455 0
DWIDTH 31 0
BBX 21 20 5 30
BITMAP
FE03F8
FE03F8
FE03F8
FE03F8
FE03F8
FE03F8
FC03F0
FC03F0
FC03F0
7C01F0
7C01F0
7C01F0
7C01F0
7C01F0
7C01F0
7C01F0
7C01F0
7C01F0
7C01F0
7801E0
ENDCHAR
STARTCHAR 0023
ENCODING 35
SWIDTH 750 0
DWIDTH 51 0
BBX 43 49 4 0
BITMAP
00001F007C00
00001F007C00
00003E00F800
00003E00F800
00003E00F800
00007E01F000
00007C01F000
00007C01F000
00007C01F000
0000F803E000
0000F803E000
0000F803E000
0001F007C000
0001F007C000
0001F007C000
07FFFFFFFFE0
07FFFFFFFFE0
0FFFFFFFFFC0
0FFFFFFFFFC0
0007C01F0000
0007C01F0000
0007C01F0000
000F803E0000
000F803E0000
000F803E0000
001F007C0000
001F007C0000
001F007C0000
001F00F80000
7FFFFFFFFE00
FFFFFFFFFC00
FFFFFFFFFC00
FFFFFFFFFC00
007C01F00000
007C01F00000
00F803E00000
00F803E00000
00F803E00000
01F007C00000
01F007C00000
01F007C00000
01F00F800000
03E00F800000
03E00F800000
03E00F800000
07C01F000000
07C01F000000
07C01F000000
0FC03E000000
ENDCHAR
STARTCHAR 0024
ENCODING 36
SWIDTH 544 0
DWIDTH 37 0
BBX 33 61 2 -7
BITMAP
0001C00000
0001C00000
0001C00000
0001C00000
0001C00000
001FFC0000
00FFFF8000
03FFFFC000
07FFFFF000
0FFFFFF000
1FFFFFF800
1FE1C3FC00
3F81C1FC00
3F01C0FC00
7F01C0FE00
7F01C0FE00
7E01C07E00
7E01C07E00
7E01C00000
7E01C00000
7F01C00000
7F01C00000
7F01C00000
3F81C00000
3FF1C00000
1FFFC00000
1FFFF00000
0FFFFF0000
03FFFFC000
01FFFFF000
003FFFF800
0007FFFC00
0001DFFE00
0001C1FE00
0001C0FF00
0001C07F00
0001C03F80
0001C03F80
0001C03F80
0001C01F80
FC01C01F80
FC01C01F80
FE01C01F80
FE01C03F80
7E01C03F80
7F01C03F00
7F01C07F00
7F81C0FF00
3FF1C3FE00
1FFFFFFE00
1FFFFFFC00
0FFFFFF800
03FFFFF000
01FFFFC000
003FFE0000
0001C00000
0001C00000
0001C00000
0001C00000
0001C00000
0001C00000
ENDCHAR
STARTCHAR 0025
ENCODING 37
SWIDTH 926 0
DWIDTH 63 0
BBX 56 51 3 0
BITMAP
00000000007800
00FF000000F800
03FFC00000F000
0FFFF00001E000
1FFFF80003E000
3FE3FC0003C000
3F80FE0007C000
7F007E00078000
7E007F000F8000
7E007F000F0000
FE003F001E0000
FE003F003E0000
FC003F003C0000
FC003F007C0000
FC003F00780000
FC003F00F80000
FC003F00F00000
FE003F01E00000
FE003F03E00000
7E007F03C00000
7F007E07C00000
3F00FE07800000
3FC1FC0F800000
1FFFF80F000000
0FFFF01E000000
07FFE03E01FF80
01FF803C07FFE0
0000007C0FFFF0
000000781FFFF8
000000F83F81FC
000000F07F00FE
000001E07E007E
000003E0FE007F
000003C0FC003F
000007C0FC003F
00000780FC003F
00000F80FC003F
00000F00FC003F
00001E00FC003F
00001E00FC003F
00003C00FC003F
00007C00FC003F
00007800FE007F
0000F800FE007F
0000F0007E007E
0001E0007F00FE
0001E0003FC3FC
0003C0001FFFF8
0007C0000FFFF0
0007800003FFC0
000F800000FF00
ENDCHAR
STARTCHAR 0026
ENCODING 38
SWIDTH 764 0
DWIDTH 52 0
BBX 46 51 4 -1
BITMAP
0007FC000000
001FFF800000
007FFFC00000
00FFFFF00000
01FFFFF00000
03FE07F80000
03F803FC0000
03F801FC0000
07F000FC0000
07F000FC0000
07F000FC0000
07F000FC0000
07F001F80000
03F801F80000
03F803F80000
03FC07F00000
01FC1FE00000
01FE7FC00000
00FFFF800000
007FFE000000
003FFC000000
003FF0007F00
00FFF0007F00
03FFF8007F00
07FFFC007F00
0FF3FC007F00
1FE1FE003F00
3FC0FF003F00
7F807F803F00
7F003FC03F00
7F003FE07F00
FE001FF07E00
FE000FF87E00
FE0007FC7E00
FC0003FE7E00
FC0001FFFC00
FC0000FFFC00
FE00007FFC00
FE00003FF800
FF00001FF800
7F000007F800
7F80000FFC00
7FC0001FFE00
3FE0007FFF00
1FF803FFFF80
1FFFFFFF7FC0
0FFFFFFE3FE0
03FFFFF81FF0
01FFFFF00FF8
007FFF8007FC
000FFC000000
ENDCHAR
STARTCHAR 0027
ENCODING 39
SWIDTH 367 0
DWIDTH 25 0
BBX 7 20 9 30
BITMAP
FE
FE
FE
FE
FE
FE
FE
FE
7C
7C
7C
7C
7C
7C
7C
7C
7C
7C
7C
7C
ENDCHAR
STARTCHAR 0028
ENCODING 40
SWIDTH 352 0
DWIDTH 24 0
BBX 12 59 6 -9
BITMAP
01F0
01E0
03E0
03E0
07C0
07C0
0FC0
0FC0
0F80
1F80
1F80
1F80
3F00
3F00
3F00
3F00
7F00
7E00
7E00
7E00
7E00
7E00
FE00
FE00
FE00
FC00
FC00
FC00
FC00
FC00
FC00
FC00
FC00
FC00
FE00
FE00
FE00
7E00
7E00
7E00
7E00
7E00
7F00
3F00
3F00
3F00
3F00
1F80
1F80
1F80
0F80
0FC0
0FC0
07C0
07C0
03E0
03E0
01E0
01F0
ENDCHAR
STARTCHAR 0029
ENCODING 41
SWIDTH 367 0
DWIDTH 25 0
BBX 11 59 7 -9
BITMAP
F000
F800
F800
7C00
7C00
7C00
7E00
3E00
3F00
3F00
1F00
1F80
1F80
1F80
1F80
0FC0
0FC0
0FC0
0FC0
0FE0
0FE0
07E0
07E0
07E0
07E0
07E0
07E0
07E0
07E0
07E0
07E0
07E0
07E0
07E0
07E0
07E0
07E0
0FE0
0FE0
0FE0
0FC0
0FC0
0FC0
0FC0
1FC0
1F80
1F80
1F80
1F00
3F00
3F00
3E00
7E00
7C00
7C00
7C00
F800
F800
F000
ENDCHAR
STARTCHAR 002A
ENCODING 42
SWIDTH 661 0
DWIDTH 45 0
BBX 27 26 9 23
BITMAP
00C06000
03C07800
0FC07E00
07E0FC00
03E0F800
01F1F000
01F1F000
00FBE000
007BC000
003B8000
E03F80E0
FFFFFFE0
FFFFFFE0
FFFFFFE0
FF9F3FE0
803F8020
007BC000
007BC000
00F1E000
01F1F000
03F1F800
03E0F800
07E0FC00
0FC07C00
03C07800
00802000
ENDCHAR
STARTCHAR 002B
ENCODING 43
SWIDTH 1014 0
DWIDTH 69 0
BBX 41 41 14 0
BITMAP
00003C000000
00003C000000
00003C000000
00003C000000
00003C000000
00003C000000
00003C000000
00003C000000
00003C000000
00003C000000
00003C000000
00003C000000
00003C000000
00003C000000
00003C000000
00003C000000
00003C000000
00003C000000
00003C000000
FFFFFFFFFF80
FFFFFFFFFF80
FFFFFFFFFF80
FFFFFFFFFF80
00003C000000
00003C000000
00003C000000
00003C000000
00003C000000
00003C000000
00003C000000
00003C000000
00003C000000
00003C000000
00003C000000
00003C000000
00003C000000
00003C000000
00003C000000
00003C000000
00003C000000
00003C000000
ENDCHAR
STARTCHAR 002C
ENCODING 44
SWIDTH 279 0
DWIDTH 19 0
BBX 12 17 3 -9
BITMAP
0FF0
0FF0
0FE0
0FE0
1FE0
1FC0
1FC0
1F80
3F80
3F00
3F00
3E00
7E00
7E00
7C00
7C00
F800
ENDCHAR
STARTCHAR 002D
ENCODING 45
SWIDTH 323 0
DWIDTH 22 0
BBX 16 6 3 14
BITMAP
FFFF
FFFF
FFFF
FFFF
FFFF
FFFF
ENDCHAR
STARTCHAR 002E
ENCODING 46
SWIDTH 279 0
DWIDTH 19 0
BBX 7 8 7 0
BITMAP
FE
FE
FE
FE
FE
FE
FE
FE
ENDCHAR
STARTCHAR 002F
ENCODING 47
SWIDTH 397 0
DWIDTH 27 0
BBX 21 54 3 -4
BITMAP
0000F8
0000F0
0001F0
0001F0
0001F0
0001E0
0003E0
0003E0
0003C0
0007C0
0007C0
000780
000F80
000F80
000F80
000F00
001F00
001F00
001E00
003E00
003E00
003C00
007C00
007C00
007C00
007800
00F800
00F800
00F000
01F000
01F000
01F000
01E000
03E000
03E000
03C000
07C000
07C000
078000
0F8000
0F8000
0F8000
0F0000
1F0000
1F0000
1E0000
3E0000
3E0000
3C0000
7C0000
7C0000
7C0000
780000
F80000
ENDCHAR
STARTCHAR 0030
ENCODING 48
SWIDTH 558 0
DWIDTH 38 0
BBX 31 51 3 -1
BITMAP
001FF000
007FFC00
01FFFF00
03FFFF80
07FFFFC0
0FFFFFE0
1FF01FF0
1FC00FF0
3F8007F8
3F8003F8
3F0001F8
7F0001FC
7E0001FC
7E0000FC
7E0000FC
FE0000FC
FE0000FE
FC0000FE
FC0000FE
FC0000FE
FC00007E
FC00007E
FC00007E
FC00007E
FC00007E
FC00007E
FC00007E
FC00007E
FC00007E
FC0000FE
FE0000FE
FE0000FE
FE0000FE
FE0000FE
7E0000FE
7E0000FC
7E0000FC
7F0001FC
7F0001FC
3F0001FC
3F8003F8
3F8003F8
1FC007F8
1FE00FF0
0FF83FF0
0FFFFFE0
07FFFFC0
03FFFF80
01FFFF00
007FFC00
000FF000
ENDCHAR
STARTCHAR 0031
ENCODING 49
SWIDTH 558 0
DWIDTH 38 0
BBX 16 49 9 0
BITMAP
007F
00FF
01FF
03FF
07FF
1FFF
3FFF
7FFF
FFFF
FF3F
FC3F
F03F
C03F
003F
003F
003F
003F
003F
003F
003F
003F
003F
003F
003F
003F
003F
003F
003F
003F
003F
003F
003F
003F
003F
003F
003F
003F
003F
003F
003F
003F
003F
003F
003F
003F
003F
003F
003F
003F
ENDCHAR
STARTCHAR 0032
ENCODING 50
SWIDTH 558 0
DWIDTH 38 0
BBX 29 50 4 0
BITMAP
001FE000
00FFFC00
03FFFF00
07FFFF80
0FFFFFC0
1FFFFFE0
1FF01FE0
3FE007F0
3FC003F0
3F8003F8
7F8003F8
7F0001F8
7F0001F8
7F0001F8
7F0001F8
000001F8
000001F8
000003F8
000003F8
000007F0
000007F0
00000FE0
00001FE0
00003FC0
00007F80
00007F00
0000FF00
0001FE00
0003FC00
0007F800
000FF000
001FF000
003FE000
007FC000
007F8000
00FF0000
01FE0000
03FC0000
07F80000
0FF80000
1FF00000
3FE00000
7FC00000
FF800000
FF000000
FFFFFFF8
FFFFFFF8
FFFFFFF8
FFFFFFF8
FFFFFFF8
ENDCHAR
STARTCHAR 0033
ENCODING 51
SWIDTH 558 0
DWIDTH 38 0
BBX 31 51 3 -1
BITMAP
001FF000
00FFFE00
01FFFF80
03FFFFC0
07FFFFE0
0FF81FF0
1FE007F8
1FC003F8
3FC001FC
3F8000FC
3F8000FC
7F0000FC
7F0000FC
7F0000FC
000000FC
000000FC
000001FC
000001F8
000003F8
000007F0
00001FE0
0000FFC0
001FFF80
001FFE00
001FFC00
001FFF00
001FFFC0
0000FFE0
00000FF0
000007F8
000003FC
000001FC
000000FE
000000FE
0000007E
0000007E
0000007E
FE00007E
FE00007E
FF00007E
FF0000FE
7F0000FE
7F8001FC
7F8003FC
3FE007F8
1FF81FF0
0FFFFFE0
07FFFFC0
03FFFF80
00FFFE00
001FF000
ENDCHAR
STARTCHAR 0034
ENCODING 52
SWIDTH 558 0
DWIDTH 38 0
BBX 34 50 2 0
BITMAP
00000FF000
00000FF000
00001FF000
00003FF000
00003FF000
00007FF000
0000FFF000
0000FFF000
0001FBF000
0003FBF000
0003F3F000
0007E3F000
000FE3F000
000FC3F000
001F83F000
003F83F000
003F03F000
007E03F000
00FE03F000
01FC03F000
01F803F000
03F803F000
07F003F000
07E003F000
0FE003F000
1FC003F000
1F8003F000
3F8003F000
7F0003F000
7E0003F000
FC0003F000
FC0003F000
FFFFFFFFC0
FFFFFFFFC0
FFFFFFFFC0
FFFFFFFFC0
FFFFFFFFC0
FFFFFFFFC0
000003F000
000003F000
000003F000
000003F000
000003F000
000003F000
000003F000
000003F000
000003F000
000003F000
000003F000
000003F000
ENDCHAR
STARTCHAR 0035
ENCODING 53
SWIDTH 558 0
DWIDTH 38 0
BBX 30 50 4 -1
BITMAP
3FFFFFE0
3FFFFFE0
3FFFFFE0
3FFFFFE0
3FFFFFE0
3FFFFFE0
3F000000
3F000000
3F000000
3F000000
3F000000
3F000000
3F000000
3F000000
3F000000
3F000000
3F03F800
3F1FFE00
3F3FFF80
3F7FFFC0
3FFFFFE0
3FF81FE0
3FE007F0
3FC003F0
3F8003F8
3F0001F8
3F0001FC
3E0001FC
000000FC
000000FC
000000FC
000000FC
000000FC
000000FC
000000FC
000000FC
000000FC
FE0001FC
FE0001F8
FE0001F8
FF0003F8
7F0003F0
7F8007E0
7FC00FE0
3FF03FC0
1FFFFF80
0FFFFF00
07FFFE00
01FFF800
001FE000
ENDCHAR
STARTCHAR 0036
ENCODING 54
SWIDTH 558 0
DWIDTH 38 0
BBX 31 51 3 -1
BITMAP
0007F800
003FFF00
00FFFFC0
01FFFFE0
03FFFFF0
07FC0FF0
0FF807F8
1FE003F8
1FC001FC
3FC001FC
3F8000FC
3F0000FC
7F0000FC
7F000000
7F000000
7E000000
7E000000
7E000000
7E000000
7E000000
7E07FC00
7E1FFF00
7E3FFFC0
7E7FFFE0
7EFFFFF0
7FFC0FF8
7FF003F8
FFC001FC
FFC001FC
FF8000FE
FF8000FE
FF00007E
FF00007E
FF00007E
FF00007E
FF00007E
FF00007E
FF00007E
7F00007E
7F00007E
7F8000FE
3F8000FC
3F8001FC
1FC001FC
1FE003F8
0FF80FF0
07FFFFE0
03FFFFC0
01FFFF80
007FFE00
000FF800
ENDCHAR
STARTCHAR 0037
ENCODING 55
SWIDTH 558 0
DWIDTH 38 0
BBX 30 49 4 0
BITMAP
FFFFFFFC
FFFFFFFC
FFFFFFFC
FFFFFFFC
FFFFFFFC
000000FC
000001FC
000001FC
000001F8
000003F8
000003F0
000007F0
000007F0
000007E0
00000FE0
00000FE0
00001FC0
00001FC0
00001F80
00003F80
00003F80
00007F00
00007F00
00007F00
0000FE00
0000FE00
0000FE00
0001FC00
0001FC00
0003F800
0003F800
0003F800
0007F000
0007F000
000FF000
000FE000
000FE000
001FC000
001FC000
003FC000
003F8000
003F8000
007F8000
007F0000
007F0000
00FE0000
00FE0000
01FE0000
01FC0000
ENDCHAR
STARTCHAR 0038
ENCODING 56
SWIDTH 558 0
DWIDTH 38 0
BBX 32 51 3 -1
BITMAP
000FF800
007FFF00
01FFFF80
03FFFFE0
07FFFFF0
0FF81FF8
1FE007FC
1FC001FC
3F8001FC
3F8000FE
3F0000FE
3F0000FE
3F00007E
3F00007E
3F00007E
3F0000FE
3F0000FC
1F8000FC
1F8001F8
0FC003F8
0FE007F0
07F81FE0
03FFFFC0
00FFFF80
007FFE00
01FFFF80
03FFFFC0
0FF80FF0
1FC003F8
1F8001F8
3F0000FC
7F00007E
7E00007E
7E00007E
FE00007F
FC00003F
FC00003F
FC00003F
FE00007F
FE00007F
FE00007F
FE00007F
7F0000FE
7F8001FE
3FC003FC
3FF00FFC
1FFFFFF8
0FFFFFF0
03FFFFC0
00FFFF00
000FF800
ENDCHAR
STARTCHAR 0039
ENCODING 57
SWIDTH 558 0
DWIDTH 38 0
BBX 31 51 3 -1
BITMAP
001FF800
00FFFF00
03FFFFC0
07FFFFE0
0FFFFFF0
1FF01FF8
3FC007F8
3F8003FC
7F0001FC
7E0001FC
7E0000FE
FE0000FE
FE0000FE
FC0000FE
FC0000FE
FC0000FE
FC0000FE
FC0000FE
FE0000FE
FE0000FE
FE0000FE
7E0001FE
7F0001FE
3F8003FE
3FC007FE
1FF01FFE
1FFFFF7E
0FFFFE7E
07FFFC7E
01FFF87E
003FE07E
0000007E
0000007E
0000007E
000000FE
000000FC
000000FC
000000FC
7E0000FC
7F0001F8
3F0001F8
3F0003F8
3F0007F0
3F8007F0
1FC01FE0
1FE03FE0
0FFFFFC0
07FFFF80
03FFFF00
01FFFC00
003FE000
ENDCHAR
STARTCHAR 003A
ENCODING 58
SWIDTH 279 0
DWIDTH 19 0
BBX 7 34 7 0
BITMAP
FE
FE
FE
FE
FE
FE
FE
FE
00
00
00
00
00
00
00
00
00
00
00
00
00
00
00
00
00
00
FE
FE
FE
FE
FE
FE
FE
FE
ENDCHAR
STARTCHAR 003B
ENCODING 59
SWIDTH 279 0
DWIDTH 19 0
BBX 11 43 4 -9
BITMAP
1FC0
1FC0
1FC0
1FC0
1FC0
1FC0
1FC0
1FC0
0000
0000
0000
0000
0000
0000
0000
0000
0000
0000
0000
0000
0000
0000
0000
0000
0000
0000
0FE0
1FE0
1FC0
1FC0
1FC0
3F80
3F80
3F00
3F00
7E00
7E00
7E00
7C00
FC00
F800
F800
F800
ENDCHAR
STARTCHAR 003C
ENCODING 60
SWIDTH 1014 0
DWIDTH 69 0
BBX 41 35 14 3
BITMAP
000000000180
000000000F80
000000003F80
00000001FF80
00000007FE00
0000003FF800
000001FFC000
000007FE0000
00003FF80000
0001FFC00000
0007FE000000
003FF8000000
00FFC0000000
07FE00000000
3FF800000000
FFC000000000
FE0000000000
F00000000000
FE0000000000
FFC000000000
3FF000000000
07FE00000000
01FFC0000000
003FF0000000
0007FE000000
0001FFC00000
00003FF80000
00000FFE0000
000001FFC000
0000003FF800
0000000FFE00
00000001FF80
000000003F80
000000000F80
000000000180
ENDCHAR
STARTCHAR 003D
ENCODING 61
SWIDTH 1014 0
DWIDTH 69 0
BBX 41 17 14 12
BITMAP
FFFFFFFFFF80
FFFFFFFFFF80
FFFFFFFFFF80
FFFFFFFFFF80
000000000000
000000000000
000000000000
000000000000
000000000000
000000000000
000000000000
000000000000
000000000000
FFFFFFFFFF80
FFFFFFFFFF80
FFFFFFFFFF80
FFFFFFFFFF80
ENDCHAR
STARTCHAR 003E
ENCODING 62
SWIDTH 1014 0
DWIDTH 69 0
BBX 41 35 14 3
BITMAP
C00000000000
F80000000000
FE0000000000
FFC000000000
3FF000000000
0FFE00000000
01FFC0000000
003FF0000000
000FFE000000
0001FFC00000
00003FF00000
00000FFE0000
000001FF8000
0000003FF000
0000000FFE00
00000001FF80
000000003F80
000000000780
000000003F80
00000001FF80
00000007FE00
0000003FF000
000001FFC000
000007FE0000
00003FF00000
0001FFC00000
000FFE000000
003FF8000000
01FFC0000000
0FFE00000000
3FF800000000
FFC000000000
FE0000000000
F80000000000
C00000000000
ENDCHAR
STARTCHAR 003F
ENCODING 63
SWIDTH 500 0
DWIDTH 34 0
BBX 29 50 1 0
BITMAP
003FE000
01FFFC00
07FFFE00
0FFFFF80
1FFFFFC0
3FFFFFE0
7FC03FF0
7F000FF0
FE0003F8
3C0003F8
180001F8
000001F8
000001F8
000001F8
000001F8
000003F8
000003F8
000003F0
000007E0
00000FE0
00001FC0
00003F80
00007F00
0000FE00
0001FC00
0003F000
0007E000
000FC000
001F8000
001F8000
001F0000
001F0000
001F0000
001F0000
001F0000
001F0000
001F0000
001F0000
001F0000
00000000
00000000
00000000
00000000
00000000
003F0000
003F0000
003F0000
003F0000
003F0000
003F0000
ENDCHAR
STARTCHAR 0040
ENCODING 64
SWIDTH 1000 0
DWIDTH 68 0
BBX 60 61 4 -12
BITMAP
000000FFF0000000
00000FFFFF800000
00007FFFFFF00000
0001FFFFFFFC0000
0007FFFFFFFF0000
000FFFFFFFFF8000
003FFF000FFFE000
007FF80000FFF000
00FFC000001FF800
01FF00000007FC00
03FE00000003FE00
07F800000000FE00
07F0000000007F00
0FE0000000003F00
0FE0000000003F80
1FC0000000001F80
1F8001FF0FC01FC0
3F8007FFCFC00FC0
3F000FFFEFC00FE0
7F001FFFFFC00FE0
7F003FC1FFC007E0
7E007F807FC007E0
7E007F003FC007F0
FE00FE003FC007F0
FE00FE001FC007F0
FE00FC001FC007F0
FC01FC000FC003F0
FC01FC000FC003F0
FC01FC000FC003F0
FC01F8000FC003F0
FC01F8000FC003F0
FC01F8000FC007F0
FC01F8000FC007F0
FE01F8000FC007F0
FE01FC000FC007E0
FE01FC001FC007E0
7E00FC001FC00FE0
7E00FC001FC00FE0
7E00FE003FC00FC0
7F007E003FE01FC0
7F007F007FE03F80
3F003F80FFF8FF80
3F803FE3F3FFFF00
3F801FFFE3FFFE00
1FC00FFFC1FFFC00
1FC003FF80FFF800
0FE000FE007FF000
0FF00000001F8000
07F8000000000000
07FC000000000000
03FE000000000000
01FF000000000000
00FFC00000000000
007FF80000000000
003FFF0001C00000
001FFFFFFFC00000
0007FFFFFFC00000
0001FFFFFFC00000
00007FFFFFC00000
00000FFFFF800000
000000FFFC000000
ENDCHAR
STARTCHAR 0041
ENCODING 65
SWIDTH 750 0
DWIDTH 51 0
BBX 49 49 1 0
BITMAP
00000FF0000000
00000FF8000000
00000FF8000000
00001FFC000000
00001FFC000000
00003FFC000000
00003FFE000000
00007FFE000000
00007F7F000000
00007E7F000000
0000FE7F800000
0000FE3F800000
0001FC3F800000
0001FC1FC00000
0001F81FC00000
0003F80FE00000
0003F80FE00000
0007F00FF00000
0007F007F00000
000FE007F00000
000FE003F80000
000FE003F80000
001FC003FC0000
001FC001FC0000
003F8001FE0000
003F8000FE0000
007F8000FE0000
007F00007F0000
007F00007F0000
00FE00007F8000
00FFFFFFFF8000
01FFFFFFFFC000
01FFFFFFFFC000
01FFFFFFFFC000
03FFFFFFFFE000
03FFFFFFFFE000
07F0000007F000
07F0000007F000
0FE0000007F800
0FE0000003F800
0FE0000003F800
1FC0000001FC00
1FC0000001FC00
3F80000000FE00
3F80000000FE00
7F80000000FF00
7F000000007F00
7F000000007F00
FE000000003F80
ENDCHAR
STARTCHAR 0042
ENCODING 66
SWIDTH 661 0
DWIDTH 45 0
BBX 36 49 5 0
BITMAP
FFFFFF0000
FFFFFFE000
FFFFFFF800
FFFFFFFE00
FFFFFFFF00
FFFFFFFF80
FC0003FF80
FC00007FC0
FC00003FC0
FC00001FC0
FC00000FC0
FC00000FC0
FC00000FC0
FC00000FC0
FC00000FC0
FC00000FC0
FC00001F80
FC00003F80
FC00007F00
FC0003FE00
FFFFFFFC00
FFFFFFF000
FFFFFFC000
FFFFFFF000
FFFFFFFC00
FFFFFFFE00
FC0003FF80
FC00007F80
FC00001FC0
FC00000FE0
FC000007E0
FC000007E0
FC000007F0
FC000003F0
FC000003F0
FC000003F0
FC000007F0
FC000007F0
FC00000FF0
FC00000FE0
FC00003FE0
FC00007FC0
FC0003FFC0
FFFFFFFF80
FFFFFFFF00
FFFFFFFE00
FFFFFFFC00
FFFFFFF000
FFFFFF8000
ENDCHAR
STARTCHAR 0043
ENCODING 67
SWIDTH 676 0
DWIDTH 46 0
BBX 38 51 4 -1
BITMAP
0001FFC000
000FFFF800
003FFFFE00
00FFFFFF80
01FFFFFFC0
03FF007FE0
07FC001FE0
07F00007F0
0FE00003F0
1FC00003F8
1FC00001F8
1F800001F8
3F800001F8
3F000001F8
7F00000000
7E00000000
7E00000000
7E00000000
7E00000000
FE00000000
FE00000000
FC00000000
FC00000000
FC00000000
FC00000000
FC00000000
FC00000000
FC00000000
FC00000000
FC00000000
FE00000000
FE00000000
FE00000000
7E00000000
7E00000000
7E00000000
7F000000FC
3F000000FC
3F800001FC
3F800001FC
1FC00001F8
1FE00003F8
0FF00007F8
0FF8000FF0
07FF007FE0
03FFFFFFE0
01FFFFFFC0
00FFFFFF00
003FFFFE00
000FFFF800
0001FFC000
ENDCHAR
STARTCHAR 0044
ENCODING 68
SWIDTH 705 0
DWIDTH 48 0
BBX 39 49 5 0
BITMAP
FFFFF80000
FFFFFF8000
FFFFFFF000
FFFFFFFC00
FFFFFFFE00
FFFFFFFF00
FC000FFF80
FC0001FFC0
FC00007FE0
FC00001FF0
FC00000FF0
FC000007F8
FC000003F8
FC000003FC
FC000001FC
FC000001FC
FC000000FE
FC000000FE
FC000000FE
FC0000007E
FC0000007E
FC0000007E
FC0000007E
FC0000007E
FC0000007E
FC0000007E
FC0000007E
FC0000007E
FC0000007E
FC0000007E
FC000000FE
FC000000FE
FC000000FC
FC000001FC
FC000001FC
FC000003F8
FC000003F8
FC000007F8
FC00000FF0
FC00001FE0
FC00007FE0
FC0001FFC0
FC000FFF80
FFFFFFFF00
FFFFFFFE00
FFFFFFF800
FFFFFFE000
FFFFFF8000
FFFFF80000
ENDCHAR
STARTCHAR 0045
ENCODING 69
SWIDTH 602 0
DWIDTH 41 0
BBX 31 49 5 0
BITMAP
FFFFFFFE
FFFFFFFE
FFFFFFFE
FFFFFFFE
FFFFFFFE
FFFFFFFE
FC000000
FC000000
FC000000
FC000000
FC000000
FC000000
FC000000
FC000000
FC000000
FC000000
FC000000
FC000000
FC000000
FC000000
FC000000
FFFFFFFC
FFFFFFFC
FFFFFFFC
FFFFFFFC
FFFFFFFC
FFFFFFFC
FC000000
FC000000
FC000000
FC000000
FC000000
FC000000
FC000000
FC000000
FC000000
FC000000
FC000000
FC000000
FC000000
FC000000
FC000000
FC000000
FFFFFFFE
FFFFFFFE
FFFFFFFE
FFFFFFFE
FFFFFFFE
FFFFFFFE
ENDCHAR
STARTCHAR 0046
ENCODING 70
SWIDTH 558 0
DWIDTH 38 0
BBX 29 49 5 0
BITMAP
FFFFFFF8
FFFFFFF8
FFFFFFF8
FFFFFFF8
FFFFFFF8
FFFFFFF8
FC000000
FC000000
FC000000
FC000000
FC000000
FC000000
FC000000
FC000000
FC000000
FC000000
FC000000
FC000000
FC000000
FC000000
FC000000
FFFFFFE0
FFFFFFE0
FFFFFFE0
FFFFFFE0
FFFFFFE0
FFFFFFE0
FC000000
FC000000
FC000000
FC000000
FC000000
FC000000
FC000000
FC000000
FC000000
FC000000
FC000000
FC000000
FC000000
FC000000
FC000000
FC000000
FC000000
FC000000
FC000000
FC000000
FC000000
FC000000
ENDCHAR
STARTCHAR 0047
ENCODING 71
SWIDTH 764 0
DWIDTH 52 0
BBX 42 51 4 -1
BITMAP
00003FF80000
0001FFFF8000
000FFFFFE000
003FFFFFF000
007FFFFFFC00
00FFFFFFFE00
01FFF00FFF00
03FF0001FF00
07FC00007F80
0FF800003F80
0FF000001FC0
1FE000001FC0
3FC000000FC0
3F8000000000
3F8000000000
7F0000000000
7F0000000000
7F0000000000
FF0000000000
FE0000000000
FE0000000000
FE0000000000
FE0000000000
FE0000000000
FE0000FFFFC0
FE0000FFFFC0
FE0000FFFFC0
FE0000FFFFC0
FE0000FFFFC0
FE0000FFFFC0
FF0000000FC0
7F0000000FC0
7F0000000FC0
7F0000000FC0
7F8000000FC0
7F8000000FC0
3F8000000FC0
3FC000000FC0
1FE000000FC0
1FE000000FC0
1FF000000FC0
0FF800000FC0
07FC00000FC0
07FF00001FC0
03FFE003FFC0
01FFFFFFFFC0
00FFFFFFFFC0
003FFFFFFFC0
000FFFFFFE00
0003FFFFF000
00003FFC0000
ENDCHAR
STARTCHAR 0048
ENCODING 72
SWIDTH 691 0
DWIDTH 47 0
BBX 37 49 5 0
BITMAP
FC000001F8
FC000001F8
FC000001F8
FC000001F8
FC000001F8
FC000001F8
FC000001F8
FC000001F8
FC000001F8
FC000001F8
FC000001F8
FC000001F8
FC000001F8
FC000001F8
FC000001F8
FC000001F8
FC000001F8
FC000001F8
FC000001F8
FC000001F8
FC000001F8
FFFFFFFFF8
FFFFFFFFF8
FFFFFFFFF8
FFFFFFFFF8
FFFFFFFFF8
FFFFFFFFF8
FC000001F8
FC000001F8
FC000001F8
FC000001F8
FC000001F8
FC000001F8
FC000001F8
FC000001F8
FC000001F8
FC000001F8
FC000001F8
FC000001F8
FC000001F8
FC000001F8
FC000001F8
FC000001F8
FC000001F8
FC000001F8
FC000001F8
FC000001F8
FC000001F8
FC000001F8
ENDCHAR
STARTCHAR 0049
ENCODING 73
SWIDTH 250 0
DWIDTH 17 0
BBX 6 49 5 0
BITMAP
FC
FC
FC
FC
FC
FC
FC
FC
FC
FC
FC
FC
FC
FC
FC
FC
FC
FC
FC
FC
FC
FC
FC
FC
FC
FC
FC
FC
FC
FC
FC
FC
FC
FC
FC
FC
FC
FC
FC
FC
FC
FC
FC
FC
FC
FC
FC
FC
FC
ENDCHAR
STARTCHAR 004A
ENCODING 74
SWIDTH 558 0
DWIDTH 38 0
BBX 29 50 4 -1
BITMAP
000001F8
000001F8
000001F8
000001F8
000001F8
000001F8
000001F8
000001F8
000001F8
000001F8
000001F8
000001F8
000001F8
000001F8
000001F8
000001F8
000001F8
000001F8
000001F8
000001F8
000001F8
000001F8
000001F8
000001F8
000001F8
000001F8
000001F8
000001F8
000001F8
000001F8
000001F8
000001F8
000001F8
000001F8
000001F8
000001F8
FC0003F8
FC0003F8
FE0003F8
FE0003F0
7E0007F0
7F000FF0
7F801FE0
3FE07FE0
3FFFFFC0
1FFFFF80
0FFFFF00
07FFFE00
01FFF800
003FC000
ENDCHAR
STARTCHAR 004B
ENCODING 75
SWIDTH 647 0
DWIDTH 44 0
BBX 37 49 5 0
BITMAP
FC00003FE0
FC00007FC0
FC0000FF80
FC0001FF00
FC0003FE00
FC0007FC00
FC000FF800
FC001FF000
FC003FE000
FC007FC000
FC00FF8000
FC01FF0000
FC03FE0000
FC07FC0000
FC0FF80000
FC0FF00000
FC1FE00000
FC3FC00000
FC7F800000
FCFF000000
FDFE000000
FFFE000000
FFFE000000
FDFF000000
FCFF800000
FCFFC00000
FC7FE00000
FC3FF00000
FC1FF00000
FC0FF80000
FC07FC0000
FC03FE0000
FC03FF0000
FC01FF8000
FC00FF8000
FC007FC000
FC003FE000
FC001FF000
FC001FF800
FC000FFC00
FC0007FC00
FC0003FE00
FC0001FF00
FC0000FF80
FC00007FC0
FC00007FE0
FC00003FF0
FC00001FF0
FC00000FF8
ENDCHAR
STARTCHAR 004C
ENCODING 76
SWIDTH 529 0
DWIDTH 36 0
BBX 29 50 5 0
BITMAP
FC000000
FC000000
FC000000
FC000000
FC000000
FC000000
FC000000
FC000000
FC000000
FC000000
FC000000
FC000000
FC000000
FC000000
FC000000
FC000000
FC000000
FC000000
FC000000
FC000000
FC000000
FC000000
FC000000
FC000000
FC000000
FC000000
FC000000
FC000000
FC000000
FC000000
FC000000
FC000000
FC000000
FC000000
FC000000
FC000000
FC000000
FC000000
FC000000
FC000000
FC000000
FC000000
FC000000
FC000000
FFFFFFF8
FFFFFFF8
FFFFFFF8
FFFFFFF8
FFFFFFF8
FFFFFFF8
ENDCHAR
STARTCHAR 004D
ENCODING 77
SWIDTH 882 0
DWIDTH 60 0
BBX 50 49 5 0
BITMAP
FFE0000001FFC0
FFE0000001FFC0
FFE0000001FFC0
FFF0000003FFC0
FFF0000003FFC0
FFF0000003FFC0
FFF8000007FFC0
FDF8000007EFC0
FDFC00000FEFC0
FDFC00000FEFC0
FCFC00000FCFC0
FCFE00001FCFC0
FC7E00001F8FC0
FC7E00001F8FC0
FC7F00003F8FC0
FC3F00003F0FC0
FC3F80007F0FC0
FC3F80007F0FC0
FC1F80007E0FC0
FC1FC000FE0FC0
FC0FC000FC0FC0
FC0FC000FC0FC0
FC0FE001FC0FC0
FC07E001F80FC0
FC07E001F80FC0
FC07F003F80FC0
FC03F003F00FC0
FC03F807F00FC0
FC01F807E00FC0
FC01F807E00FC0
FC01FC0FE00FC0
FC00FC0FC00FC0
FC00FC0FC00FC0
FC00FE1FC00FC0
FC007E1F800FC0
FC007E3F800FC0
FC003F3F000FC0
FC003F3F000FC0
FC003FFF000FC0
FC001FFE000FC0
FC001FFE000FC0
FC001FFE000FC0
FC000FFC000FC0
FC000FFC000FC0
FC0007F8000FC0
FC0007F8000FC0
FC0007F8000FC0
FC0003F0000FC0
FC0003F0000FC0
ENDCHAR
STARTCHAR 004E
ENCODING 78
SWIDTH 705 0
DWIDTH 48 0
BBX 38 49 5 0
BITMAP
FFC00000FC
FFC00000FC
FFE00000FC
FFE00000FC
FFF00000FC
FFF00000FC
FFF80000FC
FFF80000FC
FFFC0000FC
FDFE0000FC
FDFE0000FC
FCFF0000FC
FCFF0000FC
FC7F8000FC
FC3F8000FC
FC3FC000FC
FC1FC000FC
FC1FE000FC
FC0FF000FC
FC0FF000FC
FC07F800FC
FC07F800FC
FC03FC00FC
FC01FC00FC
FC01FE00FC
FC00FE00FC
FC00FF00FC
FC007F80FC
FC007F80FC
FC003FC0FC
FC003FC0FC
FC001FE0FC
FC001FE0FC
FC000FF0FC
FC0007F0FC
FC0007F8FC
FC0003FCFC
FC0003FCFC
FC0001FEFC
FC0001FEFC
FC0000FFFC
FC0000FFFC
FC00007FFC
FC00003FFC
FC00003FFC
FC00001FFC
FC00001FFC
FC00000FFC
FC00000FFC
ENDCHAR
STARTCHAR 004F
ENCODING 79
SWIDTH 764 0
DWIDTH 52 0
BBX 44 51 4 -1
BITMAP
00007FF00000
0007FFFE0000
001FFFFF8000
007FFFFFE000
00FFFFFFF000
01FFFFFFFC00
03FFC01FFC00
07FE0003FE00
0FF80000FF00
0FF000007F80
1FE000003F80
1FC000001FC0
3FC000001FC0
3F8000000FE0
7F8000000FE0
7F00000007E0
7F00000007E0
7F00000007F0
FF00000007F0
FE00000003F0
FE00000003F0
FE00000003F0
FE00000003F0
FE00000003F0
FE00000003F0
FE00000003F0
FE00000003F0
FE00000003F0
FE00000003F0
FE00000003F0
FE00000003F0
7F00000007F0
7F00000007F0
7F00000007E0
7F00000007E0
3F8000000FE0
3F8000000FC0
3FC000001FC0
1FC000001FC0
1FE000003F80
0FF000007F80
0FF000007F00
07FC0001FE00
03FE0003FE00
01FFC01FFC00
00FFFFFFF800
007FFFFFF000
003FFFFFC000
000FFFFF8000
0003FFFE0000
00007FE00000
ENDCHAR
STARTCHAR 0050
ENCODING 80
SWIDTH 617 0
DWIDTH 42 0
BBX 33 49 5 0
BITMAP
FFFFF80000
FFFFFF8000
FFFFFFE000
FFFFFFF800
FFFFFFFC00
FFFFFFFE00
FC000FFE00
FC0001FF00
FC0000FF00
FC00007F00
FC00003F80
FC00003F80
FC00003F80
FC00001F80
FC00001F80
FC00003F80
FC00003F80
FC00003F80
FC00007F00
FC00007F00
FC0001FF00
FC000FFE00
FFFFFFFE00
FFFFFFFC00
FFFFFFF800
FFFFFFE000
FFFFFF8000
FFFFF80000
FC00000000
FC00000000
FC00000000
FC00000000
FC00000000
FC00000000
FC00000000
FC00000000
FC00000000
FC00000000
FC00000000
FC00000000
FC00000000
FC00000000
FC00000000
FC00000000
FC00000000
FC00000000
FC00000000
FC00000000
FC00000000
ENDCHAR
STARTCHAR 0051
ENCODING 81
SWIDTH 779 0
DWIDTH 53 0
BBX 48 51 4 -1
BITMAP
00007FF00000
0007FFFE0000
001FFFFF8000
007FFFFFE000
00FFFFFFF000
01FFFFFFFC00
03FFC01FFE00
07FE0003FE00
0FF80000FF00
0FF000007F80
1FE000003F80
1FC000001FC0
3FC000001FC0
3F8000000FE0
7F8000000FE0
7F00000007E0
7F00000007F0
7F00000007F0
FF00000007F0
FE00000003F0
FE00000003F0
FE00000003F0
FE00000003F0
FE00000003F0
FE00000003F0
FE00000003F0
FE00000003F0
FE00000003F0
FE00000003F0
FE00000003F0
FE00000003F0
7F00000007F0
7F00000007F0
7F00000007E0
7F00000007E0
3F8000000FE0
3F8000000FC0
3FC000001FC0
1FC000001FC0
1FE000003F80
0FF000007F80
0FF000007F00
07FC0001FE00
03FE0003FE00
01FFC01FFCFF
00FFFFFFFFFF
007FFFFFFFFF
003FFFFFFFFF
000FFFFFFFFF
0003FFFFFFFF
00007FE00000
ENDCHAR
STARTCHAR 0052
ENCODING 82
SWIDTH 617 0
DWIDTH 42 0
BBX 34 49 5 0
BITMAP
FFFFFC0000
FFFFFFC000
FFFFFFF000
FFFFFFF800
FFFFFFFC00
FFFFFFFE00
FC000FFF00
FC0001FF00
FC00007F00
FC00003F80
FC00003F80
FC00003F80
FC00001F80
FC00001F80
FC00001F80
FC00003F80
FC00003F00
FC00003F00
FC00007E00
FC0001FE00
FC000FFC00
FFFFFFF000
FFFFFFE000
FFFFFF8000
FFFFFFC000
FFFFFFE000
FFFFFFF000
FC000FF800
FC0003FC00
FC0001FC00
FC0001FE00
FC0000FE00
FC0000FE00
FC0000FE00
FC00007E00
FC00007E00
FC00007F00
FC00007F00
FC00003F00
FC00003F00
FC00003F00
FC00003F00
FC00003F00
FC00003F80
FC00001F80
FC00001F80
FC00001F80
FC00001FC0
FC00001FC0
ENDCHAR
STARTCHAR 0053
ENCODING 83
SWIDTH 647 0
DWIDTH 44 0
BBX 36 51 4 -1
BITMAP
0007FE0000
003FFFC000
00FFFFF000
03FFFFFC00
07FFFFFE00
0FFFFFFF00
1FF803FF80
1FC0007F80
3F80003FC0
3F00001FC0
7F00000FC0
7F00000FC0
7E00000FC0
7E00000000
7E00000000
7F00000000
7F00000000
7F80000000
3FC0000000
3FE0000000
1FFC000000
1FFFC00000
0FFFFE0000
07FFFFC000
01FFFFF800
007FFFFE00
000FFFFF00
00007FFF80
000003FFC0
0000007FE0
0000001FE0
0000000FF0
00000007F0
00000007F0
00000003F0
FC000003F0
FC000003F0
FE000003F0
FE000003F0
FE000003F0
7F000007F0
7F00000FF0
7F80001FE0
3FC0003FE0
1FF003FFC0
1FFFFFFF80
0FFFFFFF00
07FFFFFE00
01FFFFF800
007FFFC000
000FFC0000
ENDCHAR
STARTCHAR 0054
ENCODING 84
SWIDTH 602 0
DWIDTH 41 0
BBX 39 49 1 0
BITMAP
FFFFFFFFFE
FFFFFFFFFE
FFFFFFFFFE
FFFFFFFFFE
FFFFFFFFFE
FFFFFFFFFE
00007E0000
00007E0000
00007E0000
00007E0000
00007E0000
00007E0000
00007E0000
00007E0000
00007E0000
00007E0000
00007E0000
00007E0000
00007E0000
00007E0000
00007E0000
00007E0000
00007E0000
00007E0000
00007E0000
00007E0000
00007E0000
00007E0000
00007E0000
00007E0000
00007E0000
00007E0000
00007E0000
00007E0000
00007E0000
00007E0000
00007E0000
00007E0000
00007E0000
00007E0000
00007E0000
00007E0000
00007E0000
00007E0000
00007E0000
00007E0000
00007E0000
00007E0000
00007E0000
ENDCHAR
STARTCHAR 0055
ENCODING 85
SWIDTH 720 0
DWIDTH 49 0
BBX 39 50 5 -1
BITMAP
FC0000007E
FC0000007E
FC0000007E
FC0000007E
FC0000007E
FC0000007E
FC0000007E
FC0000007E
FC0000007E
FC0000007E
FC0000007E
FC0000007E
FC0000007E
FC0000007E
FC0000007E
FC0000007E
FC0000007E
FC0000007E
FC0000007E
FC0000007E
FC0000007E
FC0000007E
FC0000007E
FC0000007E
FC0000007E
FC0000007E
FC0000007E
FC0000007E
FC0000007E
FC0000007E
FC000000FE
FE000000FE
FE000000FE
FE000000FE
FE000000FC
7E000000FC
7F000001FC
7F000001FC
7F000001FC
3F800003F8
3FC00007F8
3FE0000FF0
1FF0001FF0
0FFE00FFE0
0FFFFFFFE0
07FFFFFFC0
03FFFFFF00
00FFFFFE00
003FFFF800
0003FF8000
ENDCHAR
STARTCHAR 0056
ENCODING 86
SWIDTH 647 0
DWIDTH 44 0
BBX 42 50 1 0
BITMAP
FF0000001FC0
FF0000003FC0
7F0000003FC0
7F8000003F80
7F8000007F80
3F8000007F80
3FC000007F00
3FC00000FF00
1FC00000FF00
1FE00000FE00
0FE00001FE00
0FE00001FE00
0FF00001FC00
07F00003FC00
07F00003FC00
07F80003F800
03F80007F800
03F80007F000
03FC0007F000
01FC000FF000
01FC000FE000
01FE000FE000
00FE001FE000
00FE001FC000
007F001FC000
007F003FC000
007F003F8000
003F803F8000
003F807F8000
003F807F0000
001FC07F0000
001FC0FF0000
001FC0FE0000
000FE0FE0000
000FE1FC0000
000FE1FC0000
0007F1FC0000
0007F3F80000
0007F3F80000
0003FBF80000
0003FFF00000
0001FFF00000
0001FFF00000
0001FFE00000
0000FFE00000
0000FFE00000
0000FFC00000
00007FC00000
00007FC00000
00007F800000
ENDCHAR
STARTCHAR 0057
ENCODING 87
SWIDTH 970 0
DWIDTH 66 0
BBX 64 50 1 0
BITMAP
FE00000FF000007F
FF00000FF000007F
7F00001FF80000FF
7F00001FF80000FE
7F00001FF80000FE
7F80001FF80000FE
3F80003FFC0001FC
3F80003FFC0001FC
3F80003FFC0001FC
1FC0003FFE0003F8
1FC0007F7E0003F8
1FC0007E7E0003F8
0FC0007E7E0003F8
0FE0007E7F0007F0
0FE000FE3F0007F0
0FE000FC3F0007F0
07E000FC3F0007E0
07F001FC3F800FE0
07F001F81F800FE0
03F001F81F800FE0
03F801F81F800FC0
03F803F80FC01FC0
03F803F00FC01FC0
01F803F00FC01F80
01FC03F00FC03F80
01FC07E007E03F80
00FC07E007E03F00
00FC07E007E03F00
00FE07E003F07F00
007E0FC003F07F00
007E0FC003F07E00
007E0FC003F07E00
007F0FC001F8FE00
003F1F8001F8FC00
003F1F8001F8FC00
003F9F8001F8FC00
001FBF0000FDFC00
001FBF0000FDF800
001FBF0000FDF800
001FFF00007DF800
000FFE00007FF000
000FFE00007FF000
000FFE00007FF000
0007FE00003FE000
0007FC00003FE000
0007FC00003FE000
0003FC00003FE000
0003F800001FC000
0003F800001FC000
0003F800001FC000
ENDCHAR
STARTCHAR 0058
ENCODING 88
SWIDTH 705 0
DWIDTH 48 0
BBX 44 49 2 0
BITMAP
3FE000007F80
1FF000007F80
0FF00000FF00
0FF80000FE00
07FC0001FE00
03FC0003FC00
03FE0003F800
01FF0007F800
00FF000FF000
007F800FE000
007FC01FE000
003FC01FC000
001FE03F8000
001FE07F8000
000FF07F0000
0007F8FE0000
0007F9FC0000
0003FDFC0000
0001FFF80000
0001FFF00000
0000FFF00000
00007FE00000
00007FC00000
00007FE00000
00007FE00000
0000FFF00000
0001FFF80000
0001FFF80000
0003FBFC0000
0007F1FE0000
000FF1FE0000
000FE0FF0000
001FC07F8000
003FC07F8000
003F803FC000
007F001FE000
00FF001FF000
00FE000FF000
01FC0007F800
03FC0007FC00
03F80003FC00
07F80001FE00
0FF00001FF00
0FE00000FF00
1FE00000FF80
3FC000007FC0
7F8000003FC0
7F8000003FE0
FF0000001FF0
ENDCHAR
STARTCHAR 0059
ENCODING 89
SWIDTH 661 0
DWIDTH 45 0
BBX 43 50 1 0
BITMAP
FF0000001FE0
FF8000003FC0
7F8000003F80
3FC000007F80
3FC000007F00
1FE00000FF00
1FF00000FE00
0FF00001FC00
07F80003FC00
07F80003F800
03FC0007F800
01FC0007F000
01FE000FE000
00FF000FE000
00FF001FC000
007F803F8000
003F803F8000
003FC07F0000
001FC07F0000
001FE0FE0000
000FE0FC0000
0007F1FC0000
0007F9F80000
0003FBF80000
0003FFF00000
0001FFE00000
0000FFE00000
0000FFC00000
00007FC00000
00007F800000
00003F000000
00003F000000
00003F000000
00003F000000
00003F000000
00003F000000
00003F000000
00003F000000
00003F000000
00003F000000
00003F000000
00003F000000
00003F000000
00003F000000
00003F000000
00003F000000
00003F000000
00003F000000
00003F000000
00003F000000
ENDCHAR
STARTCHAR 005A
ENCODING 90
SWIDTH 617 0
DWIDTH 42 0
BBX 36 49 3 0
BITMAP
7FFFFFFFE0
7FFFFFFFE0
7FFFFFFFE0
7FFFFFFFE0
7FFFFFFFE0
7FFFFFFFE0
0000001FE0
0000003FE0
0000003FC0
0000007F80
000000FF80
000001FF00
000003FE00
000003FC00
000007FC00
00000FF800
00001FF000
00001FE000
00003FC000
00007FC000
0000FF8000
0001FF0000
0001FE0000
0003FC0000
0007FC0000
000FF80000
000FF00000
001FE00000
003FE00000
007FC00000
00FF800000
00FF000000
01FE000000
03FE000000
07FC000000
07F8000000
0FF0000000
1FF0000000
3FE0000000
7FC0000000
7F80000000
FF00000000
FF00000000
FFFFFFFFF0
FFFFFFFFF0
FFFFFFFFF0
FFFFFFFFF0
FFFFFFFFF0
FFFFFFFFF0
ENDCHAR
STARTCHAR 005B
ENCODING 91
SWIDTH 397 0
DWIDTH 27 0
BBX 13 63 7 -14
BITMAP
FFF8
FFF8
FFF8
FC00
FC00
FC00
FC00
FC00
FC00
FC00
FC00
FC00
FC00
FC00
FC00
FC00
FC00
FC00
FC00
FC00
FC00
FC00
FC00
FC00
FC00
FC00
FC00
FC00
FC00
FC00
FC00
FC00
FC00
FC00
FC00
FC00
FC00
FC00
FC00
FC00
FC00
FC00
FC00
FC00
FC00
FC00
FC00
FC00
FC00
FC00
FC00
FC00
FC00
FC00
FC00
FC00
FC00
FC00
FC00
FC00
FFF8
FFF8
FFF8
ENDCHAR
STARTCHAR 005C
ENCODING 92
SWIDTH 397 0
DWIDTH 27 0
BBX 21 54 3 -4
BITMAP
F80000
780000
7C0000
7C0000
7C0000
3C0000
3E0000
3E0000
1E0000
1F0000
1F0000
0F0000
0F8000
0F8000
0F8000
078000
07C000
07C000
03C000
03E000
03E000
01E000
01F000
01F000
01F000
00F000
00F800
00F800
007800
007C00
007C00
007C00
003C00
003E00
003E00
001E00
001F00
001F00
000F00
000F80
000F80
000F80
000780
0007C0
0007C0
0003C0
0003E0
0003E0
0001E0
0001F0
0001F0
0001F0
0000F0
0000F8
ENDCHAR
STARTCHAR 005D
ENCODING 93
SWIDTH 397 0
DWIDTH 27 0
BBX 12 63 8 -14
BITMAP
FFF0
FFF0
FFF0
03F0
03F0
03F0
03F0
03F0
03F0
03F0
03F0
03F0
03F0
03F0
03F0
03F0
03F0
03F0
03F0
03F0
03F0
03F0
03F0
03F0
03F0
03F0
03F0
03F0
03F0
03F0
03F0
03F0
03F0
03F0
03F0
03F0
03F0
03F0
03F0
03F0
03F0
03F0
03F0
03F0
03F0
03F0
03F0
03F0
03F0
03F0
03F0
03F0
03F0
03F0
03F0
03F0
03F0
03F0
03F0
03F0
FFF0
FFF0
FFF0
ENDCHAR
STARTCHAR 005E
ENCODING 94
SWIDTH 1000 0
DWIDTH 68 0
BBX 36 41 16 1
BITMAP
0000F00000
0001F80000
0001F80000
0001F80000
0003FC0000
0003FC0000
00079E0000
00079E0000
00078E0000
000F0F0000
000F0F0000
001E078000
001E078000
001E078000
003C03C000
003C03C000
003C03C000
007801E000
007801E000
00F000F000
00F000F000
00F000F000
01E0007800
01E0007800
01E0007800
03C0003C00
03C0003C00
0780001E00
0780001E00
0780001E00
0F00000F00
0F00000F00
1F00000F00
1E00000780
1E00000780
3E000003C0
3C000003C0
3C000003C0
78000001E0
78000001E0
F8000001F0
ENDCHAR
STARTCHAR 005F
ENCODING 95
SWIDTH 500 0
DWIDTH 34 0
BBX 34 4 0 -9
BITMAP
FFFFFFFFC0
FFFFFFFFC0
FFFFFFFFC0
FFFFFFFFC0
ENDCHAR
STARTCHAR 0060
ENCODING 96
SWIDTH 235 0
DWIDTH 16 0
BBX 14 12 -2 41
BITMAP
FE00
7F00
3F00
1F80
0FC0
0FC0
07E0
03E0
01F0
00F0
0078
007C
ENDCHAR
STARTCHAR 0061
ENCODING 97
SWIDTH 544 0
DWIDTH 37 0
BBX 30 36 3 -1
BITMAP
003FF800
01FFFF00
07FFFFC0
0FFFFFE0
1FFC3FF0
1FE00FF0
3F8003F8
3F8003F8
3F0001F8
3F0001F8
000001F8
000001F8
000001F8
000001F8
001FFFF8
00FFFFF8
07FFFFF8
0FFFFFF8
1FFE01F8
3FE001F8
7F8001F8
7F0001F8
7E0001F8
FE0001F8
FC0003F8
FC0003F8
FC0003F8
FE0007F8
FE0007F8
7F000FF8
7F803FFC
3FF1FDFC
1FFFF8FC
0FFFF0FC
03FFE0FC
007F8000
ENDCHAR
STARTCHAR 0062
ENCODING 98
SWIDTH 588 0
DWIDTH 40 0
BBX 32 50 5 -1
BITMAP
FC000000
FC000000
FC000000
FC000000
FC000000
FC000000
FC000000
FC000000
FC000000
FC000000
FC000000
FC000000
FC000000
FC000000
FC03FC00
FC1FFF00
FC7FFFC0
FCFFFFE0
FDFE3FF0
FDF007F8
FFC003F8
FF8001FC
FF8000FC
FF0000FE
FF0000FE
FE00007E
FE00007F
FE00007F
FE00007F
FC00003F
FC00003F
FC00003F
FC00003F
FC00003F
FC00007F
FE00007F
FE00007E
FE00007E
FE00007E
FE0000FE
FF0000FC
FF0001FC
FF8003F8
FFC007F8
FFE00FF0
FDFC7FE0
FCFFFFC0
FC7FFF80
FC1FFE00
0003F800
ENDCHAR
STARTCHAR 0063
ENCODING 99
SWIDTH 514 0
DWIDTH 35 0
BBX 29 36 3 -1
BITMAP
003FF000
01FFFE00
03FFFF80
0FFFFFC0
1FF8FFE0
1FC00FF0
3F8007F0
3F8003F0
7F0003F8
7F0003F8
7E0003F8
7E0003F8
FE000000
FE000000
FE000000
FC000000
FC000000
FC000000
FC000000
FC000000
FC000000
FE000000
FE000000
FE000000
7E0001F8
7E0003F8
7F0003F8
7F0003F8
3F8007F0
3F8007F0
1FE00FE0
0FF87FE0
07FFFFC0
03FFFF80
00FFFE00
001FF000
ENDCHAR
STARTCHAR 0064
ENCODING 100
SWIDTH 588 0
DWIDTH 40 0
BBX 32 50 3 -1
BITMAP
0000003F
0000003F
0000003F
0000003F
0000003F
0000003F
0000003F
0000003F
0000003F
0000003F
0000003F
0000003F
0000003F
0000003F
003FC03F
00FFF83F
03FFFE3F
07FFFF3F
0FFC7FBF
1FE00FFF
1FC007FF
3F8003FF
3F8001FF
3F0001FF
7F0000FF
7E0000FF
7E00007F
FE00007F
FE00007F
FE00007F
FC00003F
FC00003F
FC00003F
FC00003F
FC00003F
FE00007F
FE00007F
7E00007F
7E00007F
7F0000FF
3F0000FF
3F8001FF
1FC003FF
0FE003FF
0FF00FFF
07FE3FFF
03FFFFBF
00FFFF3F
007FFC3F
000FE000
ENDCHAR
STARTCHAR 0065
ENCODING 101
SWIDTH 558 0
DWIDTH 38 0
BBX 31 36 3 -1
BITMAP
000FF000
007FFE00
01FFFF80
07FFFFC0
0FFC3FE0
0FE007F0
1FC003F8
3F8001F8
3F0001FC
7F0000FC
7E0000FC
7E0000FE
7E0000FE
FE0000FE
FC0000FE
FFFFFFFE
FFFFFFFE
FFFFFFFE
FFFFFFFE
FC000000
FC000000
FC000000
FE000000
7E000000
7E0000FE
7E0000FE
3F0000FC
3F0001FC
1F8001F8
1FC003F8
0FE00FF0
07FC3FE0
03FFFFC0
01FFFF80
007FFE00
001FF000
ENDCHAR
STARTCHAR 0066
ENCODING 102
SWIDTH 338 0
DWIDTH 23 0
BBX 22 49 1 1
BITMAP
0007F8
003FFC
007FFC
00FFFC
00FF8C
01FE00
01FC00
01F800
01F800
01F800
01F800
01F800
01F800
01F800
01F800
01F800
FFFFF8
FFFFF8
FFFFF8
FFFFF8
01F800
01F800
01F800
01F800
01F800
01F800
01F800
01F800
01F800
01F800
01F800
01F800
01F800
01F800
01F800
01F800
01F800
01F800
01F800
01F800
01F800
01F800
01F800
01F800
01F800
01F800
01F800
01F800
01F800
ENDCHAR
STARTCHAR 0067
ENCODING 103
SWIDTH 588 0
DWIDTH 40 0
BBX 32 48 3 -14
BITMAP
007FF800
01FFFE3F
03FFFF3F
07FFFFBF
0FF01FFF
1FC007FF
3F8003FF
3F0001FF
7F0000FF
7E0000FF
7E00007F
FE00007F
FE00007F
FE00007F
FC00003F
FC00003F
FC00003F
FC00003F
FC00003F
FE00007F
FE00007F
FE00007F
7E00007F
7F0000FF
7F0000FF
3F8001FF
3FC003FF
1FE007FF
1FF81FBF
0FFFFF3F
07FFFE3F
01FFFC7F
007FF07F
0000007F
0000007F
0000007F
0000007F
3F00007E
3F0000FE
3F0000FE
3F8001FC
1FC003F8
1FE007F8
0FFE3FF0
07FFFFE0
03FFFF80
00FFFE00
001FF000
ENDCHAR
STARTCHAR 0068
ENCODING 104
SWIDTH 573 0
DWIDTH 39 0
BBX 29 49 5 0
BITMAP
FC000000
FC000000
FC000000
FC000000
FC000000
FC000000
FC000000
FC000000
FC000000
FC000000
FC000000
FC000000
FC000000
FC000000
FC07F800
FC3FFF00
FC7FFFC0
FCFFFFE0
FDFC7FE0
FFE00FF0
FF8007F0
FF0003F8
FE0003F8
FE0003F8
FE0001F8
FC0001F8
FC0001F8
FC0001F8
FC0001F8
FC0001F8
FC0001F8
FC0001F8
FC0001F8
FC0001F8
FC0001F8
FC0001F8
FC0001F8
FC0001F8
FC0001F8
FC0001F8
FC0001F8
FC0001F8
FC0001F8
FC0001F8
FC0001F8
FC0001F8
FC0001F8
FC0001F8
FC0001F8
ENDCHAR
STARTCHAR 0069
ENCODING 105
SWIDTH 220 0
DWIDTH 15 0
BBX 7 49 4 0
BITMAP
FE
FE
FE
FE
FE
FE
00
00
00
00
00
00
00
00
00
7E
7E
7E
7E
7E
7E
7E
7E
7E
7E
7E
7E
7E
7E
7E
7E
7E
7E
7E
7E
7E
7E
7E
7E
7E
7E
7E
7E
7E
7E
7E
7E
7E
7E
ENDCHAR
STARTCHAR 006A
ENCODING 106
SWIDTH 279 0
DWIDTH 19 0
BBX 11 63 4 -14
BITMAP
0FE0
0FE0
0FE0
0FE0
0FE0
0FE0
0000
0000
0000
0000
0000
0000
0000
0000
0000
07E0
07E0
07E0
07E0
07E0
07E0
07E0
07E0
07E0
07E0
07E0
07E0
07E0
07E0
07E0
07E0
07E0
07E0
07E0
07E0
07E0
07E0
07E0
07E0
07E0
07E0
07E0
07E0
07E0
07E0
07E0
07E0
07E0
07E0
07E0
07E0
07E0
07E0
07E0
07E0
0FE0
0FE0
0FE0
1FC0
FFC0
FF80
FF00
FC00
ENDCHAR
STARTCHAR 006B
ENCODING 107
SWIDTH 500 0
DWIDTH 34 0
BBX 28 49 5 0
BITMAP
FC000000
FC000000
FC000000
FC000000
FC000000
FC000000
FC000000
FC000000
FC000000
FC000000
FC000000
FC000000
FC000000
FC000000
FC000000
FC001FE0
FC003FC0
FC007F80
FC00FF00
FC01FE00
FC03FC00
FC07F800
FC0FF000
FC1FE000
FC1FC000
FC3F8000
FC7F0000
FCFE0000
FDFE0000
FFFC0000
FFFC0000
FDFE0000
FCFE0000
FCFF0000
FC7F8000
FC3FC000
FC1FC000
FC1FE000
FC0FF000
FC07F800
FC03FC00
FC03FC00
FC01FE00
FC00FF00
FC007F80
FC007F80
FC003FC0
FC001FE0
FC000FF0
ENDCHAR
STARTCHAR 006C
ENCODING 108
SWIDTH 235 0
DWIDTH 16 0
BBX 6 49 5 0
BITMAP
FC
FC
FC
FC
FC
FC
FC
FC
FC
FC
FC
FC
FC
FC
FC
FC
FC
FC
FC
FC
FC
FC
FC
FC
FC
FC
FC
FC
FC
FC
FC
FC
FC
FC
FC
FC
FC
FC
FC
FC
FC
FC
FC
FC
FC
FC
FC
FC
FC
ENDCHAR
STARTCHAR 006D
ENCODING 109
SWIDTH 897 0
DWIDTH 61 0
BBX 51 35 5 0
BITMAP
0007F8001FE000
FC1FFF007FFC00
FC7FFF81FFFE00
FCFFFFC3FFFF00
FDFC7FE7F1FF80
FFE01FEF803FC0
FFC00FFF001FC0
FF8007FE000FE0
FF0003FC000FE0
FE0003FC0007E0
FE0003F80007E0
FE0001F80007E0
FC0001F80007E0
FC0001F80007E0
FC0001F80007E0
FC0001F80007E0
FC0001F80007E0
FC0001F80007E0
FC0001F80007E0
FC0001F80007E0
FC0001F80007E0
FC0001F80007E0
FC0001F80007E0
FC0001F80007E0
FC0001F80007E0
FC0001F80007E0
FC0001F80007E0
FC0001F80007E0
FC0001F80007E0
FC0001F80007E0
FC0001F80007E0
FC0001F80007E0
FC0001F80007E0
FC0001F80007E0
FC0001F80007E0
ENDCHAR
STARTCHAR 006E
ENCODING 110
SWIDTH 573 0
DWIDTH 39 0
BBX 29 35 5 0
BITMAP
0007F800
FC3FFF00
FC7FFF80
FCFFFFC0
FDF87FE0
FFE01FF0
FF800FF0
FF0007F8
FF0003F8
FE0003F8
FE0001F8
FE0001F8
FC0001F8
FC0001F8
FC0001F8
FC0001F8
FC0001F8
FC0001F8
FC0001F8
FC0001F8
FC0001F8
FC0001F8
FC0001F8
FC0001F8
FC0001F8
FC0001F8
FC0001F8
FC0001F8
FC0001F8
FC0001F8
FC0001F8
FC0001F8
FC0001F8
FC0001F8
FC0001F8
ENDCHAR
STARTCHAR 006F
ENCODING 111
SWIDTH 588 0
DWIDTH 40 0
BBX 33 36 3 -1
BITMAP
000FF80000
007FFF0000
01FFFFC000
03FFFFE000
07FE3FF800
0FF007F800
1FE001FC00
3FC000FE00
3F8000FE00
7F00007F00
7F00007F00
7E00003F80
7E00003F80
FE00003F80
FE00001F80
FE00001F80
FC00001F80
FC00001F80
FC00001F80
FC00001F80
FE00001F80
FE00001F80
FE00003F80
7E00003F80
7E00003F80
7F00007F00
7F00007F00
3F8000FE00
3FC000FE00
1FE001FC00
0FF007FC00
07FE3FF800
03FFFFE000
01FFFFC000
007FFF0000
000FF80000
ENDCHAR
STARTCHAR 0070
ENCODING 112
SWIDTH 602 0
DWIDTH 41 0
BBX 32 48 5 -14
BITMAP
FC0FFE00
FC1FFF80
FC7FFFE0
FCFFFFF0
FDF81FF8
FFE007F8
FFC003FC
FF8001FC
FF0000FE
FF0000FE
FF00007F
FE00007F
FE00007F
FE00003F
FE00003F
FC00003F
FC00003F
FC00003F
FC00003F
FC00003F
FE00003F
FE00003F
FE00007F
FE00007F
FE00007F
FF0000FE
FF0000FE
FF8001FC
FFC003FC
FFE007F8
FFF81FF8
FDFFFFF0
FCFFFFE0
FC3FFF80
FC07FE00
FC000000
FC000000
FC000000
FC000000
FC000000
FC000000
FC000000
FC000000
FC000000
FC000000
FC000000
FC000000
FC000000
ENDCHAR
STARTCHAR 0071
ENCODING 113
SWIDTH 602 0
DWIDTH 41 0
BBX 33 48 3 -14
BITMAP
003FF01F80
01FFFC1F80
03FFFF1F80
07FFFF9F80
0FF80FDF80
1FE003FF80
3FC001FF80
3F8000FF80
3F0000FF80
7F00007F80
7F00007F80
7E00003F80
FE00003F80
FE00003F80
FE00003F80
FC00001F80
FC00001F80
FC00001F80
FC00001F80
FC00001F80
FE00003F80
FE00003F80
FE00003F80
7E00003F80
7F00007F80
7F00007F80
3F0000FF80
3F8000FF80
3FC001FF80
1FE003FF80
0FF80FFF80
07FFFFDF80
03FFFF1F80
01FFFE1F80
003FF01F80
0000001F80
0000001F80
0000001F80
0000001F80
0000001F80
0000001F80
0000001F80
0000001F80
0000001F80
0000001F80
0000001F80
0000001F80
0000001F80
ENDCHAR
STARTCHAR 0072
ENCODING 114
SWIDTH 367 0
DWIDTH 25 0
BBX 19 34 5 0
BITMAP
FC0FE0
FC7FE0
FCFFE0
FDFFE0
FFFFE0
FFFC00
FFE000
FF8000
FF0000
FF0000
FE0000
FE0000
FE0000
FC0000
FC0000
FC0000
FC0000
FC0000
FC0000
FC0000
FC0000
FC0000
FC0000
FC0000
FC0000
FC0000
FC0000
FC0000
FC0000
FC0000
FC0000
FC0000
FC0000
FC0000
ENDCHAR
STARTCHAR 0073
ENCODING 115
SWIDTH 500 0
DWIDTH 34 0
BBX 27 36 3 -1
BITMAP
00FFE000
03FFFC00
0FFFFE00
1FFFFF00
3FF1FF80
3F803FC0
7F001FC0
7E000FC0
7E000FC0
7E000FC0
7E000000
7E000000
7F000000
7FC00000
3FF80000
3FFF8000
1FFFF800
0FFFFE00
03FFFF80
007FFFC0
0003FFC0
00003FE0
00001FE0
00000FE0
000007E0
FC0007E0
FC0007E0
FE0007E0
FE000FE0
7F001FE0
7F803FC0
3FF1FF80
3FFFFF00
0FFFFE00
07FFF800
00FFC000
ENDCHAR
STARTCHAR 0074
ENCODING 116
SWIDTH 352 0
DWIDTH 24 0
BBX 20 44 2 -1
BITMAP
003000
00F000
03F000
03F000
03F000
03F000
03F000
03F000
03F000
FFFFF0
FFFFF0
FFFFF0
FFFFF0
03F000
03F000
03F000
03F000
03F000
03F000
03F000
03F000
03F000
03F000
03F000
03F000
03F000
03F000
03F000
03F000
03F000
03F000
03F000
03F000
03F000
03F000
03F000
03F800
03F800
03F800
01FE30
01FFF0
00FFF0
007FF0
001FE0
ENDCHAR
STARTCHAR 0075
ENCODING 117
SWIDTH 573 0
DWIDTH 39 0
BBX 29 35 5 -1
BITMAP
FC0001F8
FC0001F8
FC0001F8
FC0001F8
FC0001F8
FC0001F8
FC0001F8
FC0001F8
FC0001F8
FC0001F8
FC0001F8
FC0001F8
FC0001F8
FC0001F8
FC0001F8
FC0001F8
FC0001F8
FC0001F8
FC0001F8
FC0001F8
FC0001F8
FC0001F8
FC0001F8
FC0001F8
FE0001F8
FE0003F8
FE0003F8
7F0007F8
7F800FF8
7FC01FF8
3FF8FDF8
1FFFFDF8
0FFFF9F8
07FFE1F8
00FF8000
ENDCHAR
STARTCHAR 0076
ENCODING 118
SWIDTH 529 0
DWIDTH 36 0
BBX 34 34 1 0
BITMAP
FE00000FC0
7F00001FC0
7F00001F80
7F80001F80
3F80003F80
3F80003F00
1FC0007F00
1FC0007E00
0FE0007E00
0FE000FC00
0FE000FC00
07F001FC00
07F001F800
03F001F800
03F803F000
03F803F000
01FC07F000
01FC07E000
00FC07E000
00FE0FC000
00FE0FC000
007F0FC000
007F1F8000
003F1F8000
003FBF0000
001FBF0000
001FFE0000
001FFE0000
000FFE0000
000FFC0000
0007FC0000
0007F80000
0007F80000
0003F80000
ENDCHAR
STARTCHAR 0077
ENCODING 119
SWIDTH 808 0
DWIDTH 55 0
BBX 53 34 1 0
BITMAP
FE0003FE0001F8
7E0003FE0003F8
7E0003FF0003F0
7F0003FF0003F0
3F0007FF0007F0
3F0007FF0007E0
3F8007DF8007E0
1F800FDF8007E0
1F800FCF800FC0
1F800FCFC00FC0
0FC01F8FC00FC0
0FC01F87C01F80
0FC01F87E01F80
07E03F07E01F80
07E03F07E03F00
07E03F03E03F00
03F03E03F03F00
03F07E03F07E00
03F07E01F07E00
01F07C01F87E00
01F8FC01F87C00
01F8FC00F8FC00
00F8F800FCFC00
00FDF800FCF800
00FDF8007DF800
007DF0007DF800
007FF0007FF000
007FF0003FF000
003FE0003FF000
003FE0003FE000
003FE0001FE000
001FC0001FE000
001FC0001FC000
001FC0000FC000
ENDCHAR
STARTCHAR 0078
ENCODING 120
SWIDTH 544 0
DWIDTH 37 0
BBX 33 34 2 0
BITMAP
7F80007F80
3F80007F00
3FC000FE00
1FE001FC00
0FE001F800
07F003F800
07F807F000
03FC0FE000
01FC0FC000
00FE1FC000
00FF3F8000
007FBF0000
003FFE0000
001FFE0000
001FFC0000
000FF80000
0007F00000
000FF80000
001FFC0000
003FFE0000
003FFE0000
007E7F0000
00FE3F8000
01FC3FC000
01F81FE000
03F80FE000
07F007F000
0FE007F800
0FC003FC00
1FC001FC00
3F8001FE00
7F0000FF00
FF00007F80
FE00003F80
ENDCHAR
STARTCHAR 0079
ENCODING 121
SWIDTH 529 0
DWIDTH 36 0
BBX 34 48 1 -14
BITMAP
FE00000FC0
FF00001FC0
7F00001FC0
7F00001F80
3F80003F80
3F80003F00
1FC0007F00
1FC0007F00
1FE0007E00
0FE000FE00
0FE000FC00
07F001FC00
07F001FC00
03F801F800
03F803F800
03F803F000
01FC03F000
01FC07F000
00FE07E000
00FE0FE000
007F0FE000
007F0FC000
007F1FC000
003F9F8000
003FBF8000
001FFF8000
001FFF0000
000FFF0000
000FFE0000
000FFE0000
0007FE0000
0007FC0000
0003FC0000
0003F80000
0001F80000
0003F80000
0003F00000
0007F00000
0007F00000
0007E00000
000FE00000
000FC00000
000FC00000
001FC00000
001F800000
001F800000
003F000000
003F000000
ENDCHAR
STARTCHAR 007A
ENCODING 122
SWIDTH 455 0
DWIDTH 31 0
BBX 25 34 3 0
BITMAP
7FFFFF80
7FFFFF80
7FFFFF80
7FFFFF80
00003F80
00007F80
0000FF00
0000FE00
0001FE00
0003FC00
0007F800
0007F000
000FF000
001FE000
003FC000
003F8000
007F0000
00FF0000
00FE0000
01FC0000
03F80000
07F80000
07F00000
0FE00000
1FC00000
3FC00000
3F800000
7F000000
FE000000
FE000000
FFFFFF80
FFFFFF80
FFFFFF80
FFFFFF80
ENDCHAR
STARTCHAR 007B
ENCODING 123
SWIDTH 485 0
DWIDTH 33 0
BBX 23 68 5 -16
BITMAP
0000FE
0007FE
000FFE
001FFE
003FFE
007FE0
007F80
00FF00
00FE00
00FE00
00FE00
00FC00
00FC00
00FC00
00FC00
00FC00
00FC00
00FC00
00FC00
00FC00
00FC00
00FC00
00FC00
00FC00
01FC00
01FC00
01F800
03F800
03F800
0FF000
1FE000
FFE000
FFC000
FF8000
FF8000
FFC000
FFE000
1FE000
0FF000
03F800
03F800
01F800
01FC00
01FC00
00FC00
00FC00
00FC00
00FC00
00FC00
00FC00
00FC00
00FC00
00FC00
00FC00
00FC00
00FC00
00FC00
00FE00
00FE00
007E00
007F00
007F80
003FE0
003FFE
001FFE
000FFE
0007FE
0000FE
ENDCHAR
STARTCHAR 007C
ENCODING 124
SWIDTH 338 0
DWIDTH 23 0
BBX 3 72 10 -18
BITMAP
E0
E0
E0
E0
E0
E0
E0
E0
E0
E0
E0
E0
E0
E0
E0
E0
E0
E0
E0
E0
E0
E0
E0
E0
E0
E0
E0
E0
E0
E0
E0
E0
E0
E0
E0
E0
E0
E0
E0
E0
E0
E0
E0
E0
E0
E0
E0
E0
E0
E0
E0
E0
E0
E0
E0
E0
E0
E0
E0
E0
E0
E0
E0
E0
E0
E0
E0
E0
E0
E0
E0
E0
ENDCHAR
STARTCHAR 007D
ENCODING 125
SWIDTH 485 0
DWIDTH 33 0
BBX 23 68 5 -16
BITMAP
FC0000
FF8000
FFC000
FFE000
FFF000
1FF000
07F800
01F800
01F800
01F800
00FC00
00FC00
00FC00
00FC00
00FC00
00FC00
00FC00
00FC00
00FC00
00FC00
00FC00
00FC00
00FC00
00FC00
00FE00
007E00
007E00
007F00
003F80
003FC0
001FE0
001FFE
000FFE
0007FE
0007FE
000FFE
001FFC
001FE0
003FC0
007F80
007F00
007E00
007E00
00FE00
00FC00
00FC00
00FC00
00FC00
00FC00
00FC00
00FC00
00FC00
00FC00
00FC00
00FC00
00FC00
00FC00
00FC00
01F800
01F800
01F800
03F800
0FF000
FFF000
FFE000
FFC000
FF8000
FC0000
ENDCHAR
STARTCHAR 007E
ENCODING 126
SWIDTH 529 0
DWIDTH 36 0
BBX 36 8 0 14
BITMAP
00FE0003F0
03FFE007F0
0FFFFE1FE0
1FFFFFFFE0
3FFFFFFFC0
7F83FFFF00
FF007FFE00
FE0007F800
ENDCHAR
STARTCHAR 00A0
ENCODING 160
SWIDTH 294 0
DWIDTH 20 0
BBX 0 0 0 0
BITMAP
ENDCHAR
STARTCHAR 00A1
ENCODING 161
SWIDTH 352 0
DWIDTH 24 0
BBX 6 47 9 -14
BITMAP
FC
FC
FC
FC
FC
FC
00
00
00
00
00
FC
FC
FC
FC
FC
FC
FC
FC
FC
FC
FC
FC
FC
FC
FC
FC
FC
FC
FC
FC
FC
FC
FC
FC
FC
FC
FC
FC
FC
FC
FC
FC
FC
FC
FC
FC
ENDCHAR
STARTCHAR 00A2
ENCODING 162
SWIDTH 558 0
DWIDTH 38 0
BBX 28 52 5 -9
BITMAP
00000F00
00000E00
00000E00
00001E00
00001C00
00001C00
00003C00
003FF800
01FFFC00
07FFFF00
0FFFFF80
1FF8FFC0
1FC0FFE0
3F80F7E0
3F00E7E0
7F01E3F0
7E01E3F0
7E01C3F0
FE01C000
FE03C000
FE03C000
FE038000
FC078000
FC078000
FC070000
FC0F0000
FC0F0000
FC0E0000
FE0E0000
FE1E0000
FE1C0000
FE1C03F0
7E3C03F0
7F3C03F0
7F3807F0
3FF807E0
3FF80FE0
1FF01FC0
1FF87FC0
0FFFFF80
07FFFF00
01FFFC00
01FFE000
01C00000
01C00000
03C00000
03800000
07800000
07800000
07000000
0F000000
01000000
ENDCHAR
STARTCHAR 00A3
ENCODING 163
SWIDTH 558 0
DWIDTH 38 0
BBX 34 50 3 0
BITMAP
0007FF8000
001FFFF000
007FFFF800
00FFFFFE00
01FF03FF00
03FC007F00
03F8003F80
07F0001F80
07E0001FC0
07E0000FC0
07E0000000
07E0000000
07E0000000
07E0000000
07E0000000
07E0000000
07E0000000
07E0000000
07E0000000
FFFFFC0000
FFFFFC0000
FFFFFC0000
FFFFFC0000
07E0000000
07E0000000
07E0000000
07E0000000
07E0000000
07E0000000
07E0000000
07E0000000
07E0000000
07E0000000
07E0000000
07E0000000
07E0000000
07E0000000
07E0000000
07E0000000
07E0000000
07E0000000
07E0000000
07E0000000
07E0000000
07E0000000
07E0000000
FFFFFFFF80
FFFFFFFF80
FFFFFFFF80
FFFFFFFF80
ENDCHAR
STARTCHAR 00A4
ENCODING 164
SWIDTH 632 0
DWIDTH 43 0
BBX 37 37 3 11
BITMAP
2000000020
7000000070
F8000000F8
7C000001F0
3E01FC03E0
1F0FFF87C0
0F9FFFCF80
07FFFFFF00
03FF8FFE00
01FC01FC00
01F0007C00
03E0003E00
07C0001F00
0780000F00
0780000F00
0F00000780
0F00000780
0F00000780
0F00000780
0F00000780
0F00000780
0F00000780
0780000F00
0780000F00
07C0001F00
03E0003E00
01F0007C00
01F800FC00
03FF07FE00
07FFFFFF00
0F9FFFCF80
1F0FFF87C0
3E01FC03E0
7C000001F0
F8000000F8
7000000070
2000000020
ENDCHAR
STARTCHAR 00A5
ENCODING 165
SWIDTH 558 0
DWIDTH 38 0
BBX 38 49 0 1
BITMAP
FF000001FC
7F000003F8
7F800003F8
3F800007F0
3FC00007F0
1FC0000FE0
0FE0000FE0
0FE0001FC0
07E0001FC0
07F0003F80
03F0003F80
03F8007F00
01F8007F00
01FC007E00
00FC00FE00
7FFE00FFF8
7FFE01FFF8
7FFF01FFF8
003F03F000
003F83F000
001F87E000
001FC7E000
000FCFE000
000FEFC000
0007FFC000
0007FF8000
0003FF8000
7FFFFFFFF8
7FFFFFFFF8
7FFFFFFFF8
0000FC0000
0000FC0000
0000FC0000
0000FC0000
0000FC0000
0000FC0000
0000FC0000
0000FC0000
0000FC0000
0000FC0000
0000FC0000
0000FC0000
0000FC0000
0000FC0000
0000FC0000
0000FC0000
0000FC0000
0000FC0000
0000FC0000
ENDCHAR
STARTCHAR 00A6
ENCODING 166
SWIDTH 338 0
DWIDTH 23 0
BBX 3 64 10 -14
BITMAP
E0
E0
E0
E0
E0
E0
E0
E0
E0
E0
E0
E0
E0
E0
E0
E0
E0
E0
E0
E0
E0
E0
E0
E0
E0
E0
E0
00
00
00
00
00
00
00
00
00
00
E0
E0
E0
E0
E0
E0
E0
E0
E0
E0
E0
E0
E0
E0
E0
E0
E0
E0
E0
E0
E0
E0
E0
E0
E0
E0
E0
ENDCHAR
STARTCHAR 00A7
ENCODING 167
SWIDTH 455 0
DWIDTH 31 0
BBX 25 62 3 -12
BITMAP
007FC000
01FFF800
03FFFE00
0FFFFE00
0FF8FE00
1FC00E00
3F800200
3F000000
7F000000
7E000000
7E000000
7F000000
7F000000
7F800000
3FC00000
3FE00000
1FF00000
0FFC0000
07FF0000
03FFC000
01FFE000
01FFF800
07FFFC00
0FFFFE00
1FE3FF00
3F80FF00
7F007F80
7E003F80
FE003F80
FC001F80
FC001F80
FC003F80
FC003F00
FE007F00
FF00FE00
7F83FC00
7FFFF800
3FFFF000
1FFFC000
0FFF8000
07FFC000
01FFF000
007FF800
001FFC00
0007FE00
0001FF00
0000FF00
00007F80
00003F80
00003F80
00001F80
00001F80
00003F80
00003F00
00007F00
4000FE00
7003FE00
7E1FFC00
7FFFF800
7FFFE000
3FFF8000
03FE0000
ENDCHAR
STARTCHAR 00A8
ENCODING 168
SWIDTH 294 0
DWIDTH 20 0
BBX 20 6 0 43
BITMAP
FC03F0
FC03F0
FC03F0
FC03F0
FC03F0
FC03F0
ENDCHAR
STARTCHAR 00A9
ENCODING 169
SWIDTH 867 0
DWIDTH 59 0
BBX 51 51 4 -1
BITMAP
00000FFE000000
00007FFFC00000
0003FFFFF80000
000FF803FC0000
001F80003F0000
003E00000F8000
00F8000003E000
01F0000001F000
03E0000000F800
03C00FFC007800
07803FFF803C00
0F00FFFFC01E00
1E01FFFFE00E00
1C03FC07F00700
3C07F801F80780
3807F000F80380
380FE000FC0380
700FC0007C01C0
700FC0007C01C0
700FC0007C01C0
F01F80000001E0
E01F80000000E0
E01F80000000E0
E01F80000000E0
E01F80000000E0
E01F80000000E0
E01F80000000E0
E01F80000000E0
E01F80000000E0
E01F80000000E0
E01FC0007C01E0
700FC0007C01C0
700FC0007C01C0
700FE000FC01C0
3807E001F80380
3807F801F80380
3C03FE07F00780
1C01FFFFE00700
1E00FFFFC00F00
0F007FFF801E00
07800FFE003C00
03C00000007800
03E0000000F800
01F0000001F000
00F8000003E000
003E00000F8000
001F80003F0000
000FF803FE0000
0003FFFFF80000
00007FFFC00000
00000FFE000000
ENDCHAR
STARTCHAR 00AA
ENCODING 170
SWIDTH 382 0
DWIDTH 26 0
BBX 24 32 1 16
BITMAP
00FF00
03FFC0
07FFF0
0FC1F0
1F00F8
1E0078
1E0078
000078
000078
000078
007FF8
03FFF8
0FFFF8
1FC078
3E0078
7C0078
780078
7800F8
7800F8
7800F8
7C01F8
3E07F8
1FFF78
0FFE3C
03F800
000000
000000
000000
000000
FFFFFF
FFFFFF
FFFFFF
ENDCHAR
STARTCHAR 00AB
ENCODING 171
SWIDTH 558 0
DWIDTH 38 0
BBX 28 27 5 4
BITMAP
007C03F0
00FC03E0
00F807C0
01F80FC0
03F01F80
03E01F80
07E03F00
0FC07E00
1FC07E00
1F80FC00
3F01FC00
7F01F800
7E03F000
FC07F000
7E03F000
7F01F800
3F01FC00
1F80FC00
1FC07E00
0FC07E00
07E03F00
03E01F80
03F00F80
01F80FC0
00F807C0
00FC03E0
007C03F0
ENDCHAR
STARTCHAR 00AC
ENCODING 172
SWIDTH 617 0
DWIDTH 42 0
BBX 36 15 3 14
BITMAP
FFFFFFFFF0
FFFFFFFFF0
FFFFFFFFF0
FFFFFFFFF0
00000000F0
00000000F0
00000000F0
00000000F0
00000000F0
00000000F0
00000000F0
00000000F0
00000000F0
00000000F0
00000000F0
ENDCHAR
STARTCHAR 00AE
ENCODING 174
SWIDTH 867 0
DWIDTH 59 0
BBX 51 51 4 -1
BITMAP
00000FFE000000
00007FFFC00000
0003FFFFF80000
000FF803FC0000
001F80003F0000
003E00000F8000
00F8000003E000
01F0000001F000
03E0000000F800
03C1FFFF807800
0781FFFFE03C00
0F01FFFFF01E00
1E01FFFFF80E00
1C01F003F80700
3C01F000FC0780
3801F0007C0380
3801F0007C0380
7001F0007C01C0
7001F0007C01C0
7001F0007C01C0
F001F000F801E0
E001F003F000E0
E001FFFFE000E0
E001FFFFC000E0
E001FFFF8000E0
E001FFFFE000E0
E001F00FE000E0
E001F001F000E0
E001F001F000E0
E001F000F000E0
E001F000F801E0
7001F000F801C0
7001F000F801C0
7001F000F801C0
3801F000780380
3801F000780380
3C01F0007C0780
1C01F0007C0700
1E01F0007C0F00
0F01F0007C1E00
0781F0003E3C00
03C00000007800
03E0000000F800
01F0000001F000
00F8000003E000
003E00000F8000
001F80003F0000
000FF803FE0000
0003FFFFF80000
00007FFFC00000
00000FFE000000
ENDCHAR
STARTCHAR 00AF
ENCODING 175
SWIDTH 294 0
DWIDTH 20 0
BBX 20 4 0 43
BITMAP
FFFFF0
FFFFF0
FFFFF0
FFFFF0
ENDCHAR
STARTCHAR 00B0
ENCODING 176
SWIDTH 308 0
DWIDTH 21 0
BBX 15 15 3 34
BITMAP
07C0
1FF0
3FF8
783C
701C
E00E
E00E
E00E
E00E
E00E
701C
783C
3FF8
1FF0
07C0
ENDCHAR
STARTCHAR 00B1
ENCODING 177
SWIDTH 1014 0
DWIDTH 69 0
BBX 41 41 14 0
BITMAP
00003C000000
00003C000000
00003C000000
00003C000000
00003C000000
00003C000000
00003C000000
00003C000000
00003C000000
00003C000000
00003C000000
00003C000000
FFFFFFFFFF80
FFFFFFFFFF80
FFFFFFFFFF80
FFFFFFFFFF80
00003C000000
00003C000000
00003C000000
00003C000000
00003C000000
00003C000000
00003C000000
00003C000000
00003C000000
00003C000000
00003C000000
00003C000000
00003C000000
000000000000
000000000000
000000000000
000000000000
000000000000
000000000000
000000000000
000000000000
FFFFFFFFFF80
FFFFFFFFFF80
FFFFFFFFFF80
FFFFFFFFFF80
ENDCHAR
STARTCHAR 00B2
ENCODING 178
SWIDTH 352 0
DWIDTH 24 0
BBX 20 27 2 24
BITMAP
01FC00
0FFF00
1FFFC0
3FFFE0
3F9FE0
7E03F0
7C01F0
7C01F0
0001F0
0001F0
0003F0
0003E0
0007C0
000F80
003F00
007E00
00FC00
03F800
07F000
0FC000
3F8000
7F0000
FE0000
FFFFF0
FFFFF0
FFFFF0
FFFFF0
ENDCHAR
STARTCHAR 00B3
ENCODING 179
SWIDTH 367 0
DWIDTH 25 0
BBX 21 27 2 23
BITMAP
03FF00
0FFFC0
1FFFE0
3FFFE0
7E07F0
7C03F0
7801F0
0001F0
0001F0
0003E0
000FC0
00FF80
00FE00
00FF80
00FFE0
0007F0
0001F0
0000F8
0000F8
F800F8
F800F8
FC03F8
7F8FF0
3FFFE0
1FFFC0
0FFF80
03FC00
ENDCHAR
STARTCHAR 00B4
ENCODING 180
SWIDTH 235 0
DWIDTH 16 0
BBX 13 12 4 41
BITMAP
03F8
03F8
07F0
07E0
0FC0
0F80
1F00
3F00
3E00
7C00
7800
F000
ENDCHAR
STARTCHAR 00B6
ENCODING 182
SWIDTH 558 0
DWIDTH 38 0
BBX 30 60 4 -10
BITMAP
003FFFFC
00FFFFFC
03FFFFFC
0FFF01C0
1FFF01C0
3FFF01C0
3FFF01C0
7FFF01C0
7FFF01C0
FFFF01C0
FFFF01C0
FFFF01C0
FFFF01C0
FFFF01C0
FFFF01C0
FFFF01C0
FFFF01C0
FFFF01C0
FFFF01C0
7FFF01C0
3FFF01C0
3FFF01C0
1FFF01C0
07FF01C0
01FF01C0
000F01C0
000701C0
000701C0
000701C0
000701C0
000701C0
000701C0
000701C0
000701C0
000701C0
000701C0
000701C0
000701C0
000701C0
000701C0
000701C0
000701C0
000701C0
000701C0
000701C0
000701C0
000701C0
000701C0
000701C0
000701C0
000701C0
000701C0
000701C0
000701C0
000701C0
000701C0
000701C0
000701C0
000701C0
000701C0
ENDCHAR
STARTCHAR 00B7
ENCODING 183
SWIDTH 279 0
DWIDTH 19 0
BBX 7 8 6 19
BITMAP
FE
FE
FE
FE
FE
FE
FE
FE
ENDCHAR
STARTCHAR 00B8
ENCODING 184
SWIDTH 250 0
DWIDTH 17 0
BBX 17 17 3 -17
BITMAP
0E0000
0E0000
0E0000
0E0000
0FF800
0FFE00
0FFF00
007F00
001F80
000F80
000F80
000F80
000F80
C03F00
FFFE00
FFFC00
7FE000
ENDCHAR
STARTCHAR 00B9
ENCODING 185
SWIDTH 279 0
DWIDTH 19 0
BBX 10 26 4 24
BITMAP
07C0
0FC0
1FC0
7FC0
FFC0
FBC0
E3C0
03C0
03C0
03C0
03C0
03C0
03C0
03C0
03C0
03C0
03C0
03C0
03C0
03C0
03C0
03C0
03C0
03C0
03C0
03C0
ENDCHAR
STARTCHAR 00BA
ENCODING 186
SWIDTH 411 0
DWIDTH 28 0
BBX 24 32 2 16
BITMAP
00FE00
07FFC0
0FFFE0
1F83F0
3E00F8
7C0078
78007C
78003C
F8003E
F0001E
F0001E
F0001E
F0001E
F0001E
F0001E
F0001E
F8003E
78003C
78007C
3C0078
3E00F8
1F83F0
0FFFE0
07FFC0
00FE00
000000
000000
000000
000000
FFFFFF
FFFFFF
FFFFFF
ENDCHAR
STARTCHAR 00BB
ENCODING 187
SWIDTH 558 0
DWIDTH 38 0
BBX 28 27 5 4
BITMAP
FC03E000
7C03F000
3E01F000
3F01F800
1F00FC00
1F807C00
0FC07E00
07E03F00
07E03F00
03F01F80
03F80FC0
01F80FE0
00FC07E0
00FE07F0
00FC07E0
01F80FE0
03F80FC0
03F01F80
07E03F00
07E03F00
0FC07E00
1F807C00
1F00FC00
3F01F800
3E01F000
7C03F000
FC03E000
ENDCHAR
STARTCHAR 00BC
ENCODING 188
SWIDTH 794 0
DWIDTH 54 0
BBX 46 52 4 -1
BITMAP
00000000F800
07C00000F000
0FC00001F000
1FC00001E000
7FC00003E000
FFC00003C000
F3C00007C000
E3C0000F8000
03C0000F0000
03C0001F0000
03C0001E0000
03C0003E0000
03C0003C0000
03C0007C0000
03C000780000
03C000F80000
03C001F00000
03C001E00000
03C003E00000
03C003C00000
03C007C00000
03C007800000
03C00F800000
03C00F000000
03C01E001F00
03C03E001F00
03C03C003F00
00007C007F00
000078007F00
0000F800FF00
0000F001EF00
0001F003EF00
0001E003CF00
0003C0078F00
0007C00F8F00
0007800F0F00
000F801E0F00
000F003C0F00
001F003C0F00
001E00780F00
003E00F00F00
007C00FFFFFC
007800FFFFFC
00F800FFFFFC
00F000FFFFFC
01F000000F00
01E000000F00
03E000000F00
03C000000F00
07C000000F00
0F8000000F00
0F0000000000
ENDCHAR
STARTCHAR 00BD
ENCODING 189
SWIDTH 794 0
DWIDTH 54 0
BBX 46 52 4 -1
BITMAP
00000000F800
07C00000F800
0FC00001F000
1FC00001E000
7FC00003E000
FFC00007C000
F3C00007C000
E3C0000F8000
03C0000F8000
03C0001F0000
03C0001F0000
03C0003E0000
03C0003C0000
03C0007C0000
03C000F80000
03C000F80000
03C001F00000
03C001F00000
03C003E00000
03C003C00000
03C007C00000
03C007800000
03C00F800000
03C00F000000
03C01F007F00
03C03E03FFE0
03C03E07FFF0
00007C0FFFF8
0000780FE7F8
0000F81F80FC
0000F01F007C
0001F01F007C
0001E000007C
0003E000007C
0007C00000FC
0007800000F8
000F800001F0
000F000003F0
001F00000FC0
001E00001F80
003E00003F00
003C0000FE00
007C0001FC00
00F80003F000
00F0000FE000
01F0001FC000
01E0003F8000
03E0003FFFFC
03C0003FFFFC
07C0003FFFFC
0780003FFFFC
0F0000000000
ENDCHAR
STARTCHAR 00BE
ENCODING 190
SWIDTH 794 0
DWIDTH 54 0
BBX 50 51 2 -1
BITMAP
03FF000007C000
0FFFC000078000
1FFFE0000F8000
3FFFE0000F0000
7E07F0001F0000
7C03F0001E0000
7801F0003E0000
0001F0007C0000
0001F000780000
0003E000F80000
000FC000F00000
00FF8001F00000
00FE0001E00000
00FF8003E00000
00FFE003C00000
0007F007C00000
0001F00F800000
0000F80F000000
0000F81F000000
F800F81E000000
F800F83E000000
FC03F83C000000
7F8FF07C000000
3FFFE07801F000
1FFFC0F801F000
0FFF81F003F000
03FC01E007F000
000003E007F000
000003C00FF000
000007C01EF000
000007803EF000
00000F803CF000
00001F0078F000
00001F00F8F000
00003E00F0F000
00003C01E0F000
00007C03C0F000
00007803C0F000
0000F80780F000
0000F00F00F000
0001F00FFFFFC0
0003E00FFFFFC0
0003E00FFFFFC0
0007C00FFFFFC0
0007800000F000
000F800000F000
000F000000F000
001F000000F000
003E000000F000
003E000000F000
007C0000000000
ENDCHAR
STARTCHAR 00BF
ENCODING 191
SWIDTH 514 0
DWIDTH 35 0
BBX 29 47 4 -14
BITMAP
0007E000
0007E000
0007E000
0007E000
0007E000
0007E000
00000000
00000000
00000000
00000000
00000000
0003E000
0003E000
0003E000
0003E000
0003E000
0003E000
0003E000
0007E000
0007E000
001FC000
003F8000
007F8000
00FF0000
03FE0000
07F80000
0FF00000
1FE00000
3FC00000
7F800000
7F000000
7E000000
FE000000
FE000000
FC000000
FC000000
FE0000C0
FE0000F0
7F0001F8
7F8003F8
3FE00FF0
3FFFFFE0
1FFFFFC0
0FFFFF80
03FFFF00
00FFFC00
001FF000
ENDCHAR
STARTCHAR 00C0
ENCODING 192
SWIDTH 750 0
DWIDTH 51 0
BBX 49 68 1 0
BITMAP
0003F800000000
0003F800000000
0001FC00000000
0000FC00000000
00007E00000000
00003E00000000
00001F00000000
00001F80000000
00000F80000000
000007C0000000
000003C0000000
000001E0000000
00000000000000
00000000000000
00000000000000
00000000000000
00000000000000
00000000000000
00000000000000
00000FF0000000
00000FF8000000
00000FF8000000
00001FFC000000
00001FFC000000
00003FFC000000
00003FFE000000
00007FFE000000
00007F7F000000
00007E7F000000
0000FE7F800000
0000FE3F800000
0001FC3F800000
0001FC1FC00000
0001F81FC00000
0003F80FE00000
0003F80FE00000
0007F00FF00000
0007F007F00000
000FE007F00000
000FE003F80000
000FE003F80000
001FC003FC0000
001FC001FC0000
003F8001FE0000
003F8000FE0000
007F8000FE0000
007F00007F0000
007F00007F0000
00FE00007F8000
00FFFFFFFF8000
01FFFFFFFFC000
01FFFFFFFFC000
01FFFFFFFFC000
03FFFFFFFFE000
03FFFFFFFFE000
07F0000007F000
07F0000007F000
0FE0000007F800
0FE0000003F800
0FE0000003F800
1FC0000001FC00
1FC0000001FC00
3F80000000FE00
3F80000000FE00
7F80000000FF00
7F000000007F00
7F000000007F00
FE000000003F80
ENDCHAR
STARTCHAR 00C1
ENCODING 193
SWIDTH 750 0
DWIDTH 51 0
BBX 49 68 1 0
BITMAP
0000000FE00000
0000000FE00000
0000001FC00000
0000001F800000
0000003F000000
0000003E000000
0000007C000000
000000FC000000
000000F8000000
000001F0000000
000001E0000000
000003C0000000
00000000000000
00000000000000
00000000000000
00000000000000
00000000000000
00000000000000
00000000000000
00000FF0000000
00000FF8000000
00000FF8000000
00001FFC000000
00001FFC000000
00003FFC000000
00003FFE000000
00007FFE000000
00007F7F000000
00007E7F000000
0000FE7F800000
0000FE3F800000
0001FC3F800000
0001FC1FC00000
0001F81FC00000
0003F80FE00000
0003F80FE00000
0007F00FF00000
0007F007F00000
000FE007F00000
000FE003F80000
000FE003F80000
001FC003FC0000
001FC001FC0000
003F8001FE0000
003F8000FE0000
007F8000FE0000
007F00007F0000
007F00007F0000
00FE00007F8000
00FFFFFFFF8000
01FFFFFFFFC000
01FFFFFFFFC000
01FFFFFFFFC000
03FFFFFFFFE000
03FFFFFFFFE000
07F0000007F000
07F0000007F000
0FE0000007F800
0FE0000003F800
0FE0000003F800
1FC0000001FC00
1FC0000001FC00
3F80000000FE00
3F80000000FE00
7F80000000FF00
7F000000007F00
7F000000007F00
FE000000003F80
ENDCHAR
STARTCHAR 00C2
ENCODING 194
SWIDTH 750 0
DWIDTH 51 0
BBX 49 68 1 0
BITMAP
000007F0000000
00000FF8000000
00000FF8000000
00001FFC000000
00001FFC000000
00003F7E000000
00003E3E000000
00007C1F000000
0000780F000000
0000F80F800000
0001F007C00000
0001E003C00000
00000000000000
00000000000000
00000000000000
00000000000000
00000000000000
00000000000000
00000000000000
00000FF0000000
00000FF8000000
00000FF8000000
00001FFC000000
00001FFC000000
00003FFC000000
00003FFE000000
00007FFE000000
00007F7F000000
00007E7F000000
0000FE7F800000
0000FE3F800000
0001FC3F800000
0001FC1FC00000
0001F81FC00000
0003F80FE00000
0003F80FE00000
0007F00FF00000
0007F007F00000
000FE007F00000
000FE003F80000
000FE003F80000
001FC003FC0000
001FC001FC0000
003F8001FE0000
003F8000FE0000
007F8000FE0000
007F00007F0000
007F00007F0000
00FE00007F8000
00FFFFFFFF8000
01FFFFFFFFC000
01FFFFFFFFC000
01FFFFFFFFC000
03FFFFFFFFE000
03FFFFFFFFE000
07F0000007F000
07F0000007F000
0FE0000007F800
0FE0000003F800
0FE0000003F800
1FC0000001FC00
1FC0000001FC00
3F80000000FE00
3F80000000FE00
7F80000000FF00
7F000000007F00
7F000000007F00
FE000000003F80
ENDCHAR
STARTCHAR 00C3
ENCODING 195
SWIDTH 750 0
DWIDTH 51 0
BBX 49 64 1 0
BITMAP
00003E03C00000
00007FC3C00000
0000FFF7C00000
0000FFFF800000
0001F7FF800000
0001E0FF000000
0001E018000000
00000000000000
00000000000000
00000000000000
00000000000000
00000000000000
00000000000000
00000000000000
00000000000000
00000FF0000000
00000FF8000000
00000FF8000000
00001FFC000000
00001FFC000000
00003FFC000000
00003FFE000000
00007FFE000000
00007F7F000000
00007E7F000000
0000FE3F800000
0000FE3F800000
0001FC3F800000
0001FC1FC00000
0001F81FC00000
0003F80FE00000
0003F80FE00000
0007F00FF00000
0007F007F00000
000FE007F00000
000FE003F80000
000FE003F80000
001FC003FC0000
001FC001FC0000
003F8001FE0000
003F8000FE0000
007F8000FE0000
007F00007F0000
007F00007F0000
00FE00007F8000
00FFFFFFFF8000
01FFFFFFFFC000
01FFFFFFFFC000
01FFFFFFFFC000
03FFFFFFFFE000
03FFFFFFFFE000
07F0000007F000
07F0000007F000
0FE0000007F800
0FE0000003F800
0FE0000003F800
1FC0000001FC00
1FC0000001FC00
3F80000000FE00
3F80000000FE00
7F80000000FF00
7F000000007F00
7F000000007F00
FE000000003F80
ENDCHAR
STARTCHAR 00C4
ENCODING 196
SWIDTH 750 0
DWIDTH 51 0
BBX 49 64 1 0
BITMAP
0001F807E00000
0001F807E00000
0001F807E00000
0001F807E00000
0001F807E00000
0001F807E00000
00000000000000
00000000000000
00000000000000
00000000000000
00000000000000
00000000000000
00000000000000
00000000000000
00000000000000
00000FF0000000
00000FF0000000
00001FF8000000
00001FF8000000
00003FFC000000
00003FFC000000
00003FFE000000
00007FFE000000
00007EFE000000
0000FE7F000000
0000FE7F000000
0001FC3F800000
0001FC3F800000
0001F81FC00000
0003F81FC00000
0003F81FC00000
0007F00FE00000
0007F00FE00000
000FE007F00000
000FE007F00000
000FE007F80000
001FC003F80000
001FC003F80000
003F8001FC0000
003F8001FC0000
007F0001FE0000
007F0000FE0000
007F0000FF0000
00FE00007F0000
00FE00007F0000
01FFFFFFFF8000
01FFFFFFFF8000
01FFFFFFFFC000
03FFFFFFFFC000
03FFFFFFFFE000
07FFFFFFFFE000
07F000000FE000
0FE0000007F000
0FE0000007F000
0FE0000003F800
1FC0000003F800
1FC0000001FC00
3F80000001FC00
3F80000001FC00
7F00000000FE00
7F00000000FE00
7F000000007F00
FE000000007F00
FE000000007F80
ENDCHAR
STARTCHAR 00C5
ENCODING 197
SWIDTH 750 0
DWIDTH 51 0
BBX 48 71 1 0
BITMAP
000007C00000
00001FF00000
00003FF80000
0000783C0000
0000701C0000
0000E00E0000
0000E00E0000
0000E00E0000
0000E00E0000
0000E00E0000
0000701C0000
0000783C0000
00003FF80000
00001FF00000
000007C00000
000000000000
000000000000
000000000000
000000000000
000000000000
000000000000
000000000000
00000FF00000
00000FF00000
00001FF80000
00001FF80000
00003FFC0000
00003FFC0000
00007FFE0000
00007FFE0000
00007EFE0000
0000FE7F0000
0000FE7F0000
0001FC3F8000
0001FC3F8000
0001F83FC000
0003F81FC000
0003F81FC000
0007F00FE000
0007F00FE000
000FE007F000
000FE007F000
000FE007F800
001FC003F800
001FC003F800
003F8001FC00
003F8001FC00
007F8001FE00
007F0000FE00
007F0000FE00
00FE00007F00
00FE00007F00
01FFFFFFFF80
01FFFFFFFF80
01FFFFFFFFC0
03FFFFFFFFC0
03FFFFFFFFC0
07FFFFFFFFE0
07F000000FE0
0FE0000007F0
0FE0000007F0
0FE0000003F8
1FC0000003F8
1FC0000003F8
3F80000001FC
3F80000001FC
7F80000000FE
7F00000000FE
7F00000000FF
FE000000007F
FE000000007F
ENDCHAR
STARTCHAR 00C6
ENCODING 198
SWIDTH 970 0
DWIDTH 66 0
BBX 61 49 1 0
BITMAP
0000003FFFFFFFF8
0000007FFFFFFFF8
000000FFFFFFFFF8
000000FFFFFFFFF8
000001FFFFFFFFF8
000001FFFFFFFFF8
000003FFF0000000
000003FBF0000000
000007FBF0000000
000007F3F0000000
00000FF3F0000000
00000FE3F0000000
00001FE3F0000000
00001FC3F0000000
00003FC3F0000000
00003F83F0000000
00007F03F0000000
0000FF03F0000000
0000FE03F0000000
0001FE03F0000000
0001FC03F0000000
0003FC03FFFFFFF0
0003F803FFFFFFF0
0007F803FFFFFFF0
0007F003FFFFFFF0
000FF003FFFFFFF0
000FE003FFFFFFF0
001FE003F0000000
001FC003F0000000
003FC003F0000000
003FFFFFF0000000
007FFFFFF0000000
00FFFFFFF0000000
00FFFFFFF0000000
01FFFFFFF0000000
01FFFFFFF0000000
03FC0003F0000000
03F80003F0000000
07F80003F0000000
07F00003F0000000
0FF00003F0000000
0FE00003F0000000
1FE00003F0000000
1FC00003FFFFFFF8
3F800003FFFFFFF8
3F800003FFFFFFF8
7F000003FFFFFFF8
7F000003FFFFFFF8
FE000003FFFFFFF8
ENDCHAR
STARTCHAR 00C7
ENCODING 199
SWIDTH 676 0
DWIDTH 46 0
BBX 38 67 4 -17
BITMAP
0001FFC000
000FFFF800
003FFFFE00
00FFFFFF80
01FFFFFFC0
03FF007FE0
07FC001FE0
07F00007F0
0FE00003F0
1FC00003F8
1FC00001F8
1F800001F8
3F800001F8
3F000001F8
7F00000000
7F00000000
7E00000000
7E00000000
7E00000000
FE00000000
FE00000000
FE00000000
FC00000000
FC00000000
FC00000000
FC00000000
FC00000000
FC00000000
FC00000000
FC00000000
FE00000000
FE00000000
FE00000000
7E00000000
7E00000000
7E00000000
7F00000000
3F000000FC
3F000000FC
3F800001FC
1F800001FC
1FC00001F8
0FE00003F8
0FF00007F0
07F8000FF0
03FF007FE0
01FFFFFFC0
00FFFFFF80
003FFFFE00
000FFFF800
0001FFC000
0000380000
0000380000
0000380000
00003F8000
00003FF000
00003FF800
000001FC00
0000007E00
0000003E00
0000003E00
0000003E00
0000003E00
000300FC00
0003FFFC00
0003FFF000
0003FFC000
ENDCHAR
STARTCHAR 00C8
ENCODING 200
SWIDTH 602 0
DWIDTH 41 0
BBX 31 68 5 0
BITMAP
07F00000
03F80000
01F80000
00FC0000
007E0000
007E0000
003F0000
001F0000
000F8000
0007C000
0003C000
0003E000
00000000
00000000
00000000
00000000
00000000
00000000
00000000
FFFFFFFE
FFFFFFFE
FFFFFFFE
FFFFFFFE
FFFFFFFE
FFFFFFFE
FC000000
FC000000
FC000000
FC000000
FC000000
FC000000
FC000000
FC000000
FC000000
FC000000
FC000000
FC000000
FC000000
FC000000
FC000000
FFFFFFFC
FFFFFFFC
FFFFFFFC
FFFFFFFC
FFFFFFFC
FFFFFFFC
FC000000
FC000000
FC000000
FC000000
FC000000
FC000000
FC000000
FC000000
FC000000
FC000000
FC000000
FC000000
FC000000
FC000000
FC000000
FC000000
FFFFFFFE
FFFFFFFE
FFFFFFFE
FFFFFFFE
FFFFFFFE
FFFFFFFE
ENDCHAR
STARTCHAR 00C9
ENCODING 201
SWIDTH 602 0
DWIDTH 41 0
BBX 31 68 5 0
BITMAP
00003F80
00003F00
00007F00
0000FE00
0000FC00
0001F800
0001F000
0003E000
0007E000
0007C000
000F8000
000F0000
00000000
00000000
00000000
00000000
00000000
00000000
00000000
FFFFFFFE
FFFFFFFE
FFFFFFFE
FFFFFFFE
FFFFFFFE
FFFFFFFE
FC000000
FC000000
FC000000
FC000000
FC000000
FC000000
FC000000
FC000000
FC000000
FC000000
FC000000
FC000000
FC000000
FC000000
FC000000
FFFFFFFC
FFFFFFFC
FFFFFFFC
FFFFFFFC
FFFFFFFC
FFFFFFFC
FC000000
FC000000
FC000000
FC000000
FC000000
FC000000
FC000000
FC000000
FC000000
FC000000
FC000000
FC000000
FC000000
FC000000
FC000000
FC000000
FFFFFFFE
FFFFFFFE
FFFFFFFE
FFFFFFFE
FFFFFFFE
FFFFFFFE
ENDCHAR
STARTCHAR 00CA
ENCODING 202
SWIDTH 602 0
DWIDTH 41 0
BBX 31 68 5 0
BITMAP
001FE000
003FE000
003FF000
007FF000
007FF800
00FCF800
00F8FC00
01F07C00
01F03E00
03E01E00
03C01F00
07800F80
00000000
00000000
00000000
00000000
00000000
00000000
00000000
FFFFFFFE
FFFFFFFE
FFFFFFFE
FFFFFFFE
FFFFFFFE
FFFFFFFE
FC000000
FC000000
FC000000
FC000000
FC000000
FC000000
FC000000
FC000000
FC000000
FC000000
FC000000
FC000000
FC000000
FC000000
FC000000
FFFFFFFC
FFFFFFFC
FFFFFFFC
FFFFFFFC
FFFFFFFC
FFFFFFFC
FC000000
FC000000
FC000000
FC000000
FC000000
FC000000
FC000000
FC000000
FC000000
FC000000
FC000000
FC000000
FC000000
FC000000
FC000000
FC000000
FFFFFFFE
FFFFFFFE
FFFFFFFE
FFFFFFFE
FFFFFFFE
FFFFFFFE
ENDCHAR
STARTCHAR 00CB
ENCODING 203
SWIDTH 602 0
DWIDTH 41 0
BBX 31 64 5 0
BITMAP
07E01F80
07E01F80
07E01F80
07E01F80
07E01F80
07E01F80
00000000
00000000
00000000
00000000
00000000
00000000
00000000
00000000
00000000
FFFFFFFE
FFFFFFFE
FFFFFFFE
FFFFFFFE
FFFFFFFE
FFFFFFFE
FC000000
FC000000
FC000000
FC000000
FC000000
FC000000
FC000000
FC000000
FC000000
FC000000
FC000000
FC000000
FC000000
FC000000
FC000000
FFFFFFFC
FFFFFFFC
FFFFFFFC
FFFFFFFC
FFFFFFFC
FFFFFFFC
FC000000
FC000000
FC000000
FC000000
FC000000
FC000000
FC000000
FC000000
FC000000
FC000000
FC000000
FC000000
FC000000
FC000000
FC000000
FC000000
FFFFFFFE
FFFFFFFE
FFFFFFFE
FFFFFFFE
FFFFFFFE
FFFFFFFE
ENDCHAR
STARTCHAR 00CC
ENCODING 204
SWIDTH 250 0
DWIDTH 17 0
BBX 13 68 -1 0
BITMAP
FE00
7E00
7F00
3F00
1F80
0F80
07C0
07E0
03E0
01F0
00F0
0078
0000
0000
0000
0000
0000
0000
0000
03F0
03F0
03F0
03F0
03F0
03F0
03F0
03F0
03F0
03F0
03F0
03F0
03F0
03F0
03F0
03F0
03F0
03F0
03F0
03F0
03F0
03F0
03F0
03F0
03F0
03F0
03F0
03F0
03F0
03F0
03F0
03F0
03F0
03F0
03F0
03F0
03F0
03F0
03F0
03F0
03F0
03F0
03F0
03F0
03F0
03F0
03F0
03F0
03F0
ENDCHAR
STARTCHAR 00CD
ENCODING 205
SWIDTH 250 0
DWIDTH 17 0
BBX 12 68 5 0
BITMAP
07F0
07E0
0FE0
0FC0
1F80
1F00
3F00
3E00
7C00
7800
F000
F000
0000
0000
0000
0000
0000
0000
0000
FC00
FC00
FC00
FC00
FC00
FC00
FC00
FC00
FC00
FC00
FC00
FC00
FC00
FC00
FC00
FC00
FC00
FC00
FC00
FC00
FC00
FC00
FC00
FC00
FC00
FC00
FC00
FC00
FC00
FC00
FC00
FC00
FC00
FC00
FC00
FC00
FC00
FC00
FC00
FC00
FC00
FC00
FC00
FC00
FC00
FC00
FC00
FC00
FC00
ENDCHAR
STARTCHAR 00CE
ENCODING 206
SWIDTH 250 0
DWIDTH 17 0
BBX 19 68 -1 0
BITMAP
03F800
07F800
07FC00
0FFC00
0FFE00
1FBE00
1F1F00
3E1F00
7C0F80
7C07C0
F803C0
F003E0
000000
000000
000000
000000
000000
000000
000000
03F000
03F000
03F000
03F000
03F000
03F000
03F000
03F000
03F000
03F000
03F000
03F000
03F000
03F000
03F000
03F000
03F000
03F000
03F000
03F000
03F000
03F000
03F000
03F000
03F000
03F000
03F000
03F000
03F000
03F000
03F000
03F000
03F000
03F000
03F000
03F000
03F000
03F000
03F000
03F000
03F000
03F000
03F000
03F000
03F000
03F000
03F000
03F000
03F000
ENDCHAR
STARTCHAR 00CF
ENCODING 207
SWIDTH 264 0
DWIDTH 18 0
BBX 20 64 -1 0
BITMAP
FC03F0
FC03F0
FC03F0
FC03F0
FC03F0
FC03F0
000000
000000
000000
000000
000000
000000
000000
000000
000000
01F800
01F800
01F800
01F800
01F800
01F800
01F800
01F800
01F800
01F800
01F800
01F800
01F800
01F800
01F800
01F800
01F800
01F800
01F800
01F800
01F800
01F800
01F800
01F800
01F800
01F800
01F800
01F800
01F800
01F800
01F800
01F800
01F800
01F800
01F800
01F800
01F800
01F800
01F800
01F800
01F800
01F800
01F800
01F800
01F800
01F800
01F800
01F800
01F800
ENDCHAR
STARTCHAR 00D0
ENCODING 208
SWIDTH 720 0
DWIDTH 49 0
BBX 45 49 0 0
BITMAP
03FFFFE00000
03FFFFFE0000
03FFFFFF8000
03FFFFFFE000
03FFFFFFF800
03FFFFFFFC00
03F0003FFE00
03F00007FF00
03F00001FF80
03F00000FF80
03F000003FC0
03F000001FC0
03F000001FE0
03F000000FE0
03F0000007F0
03F0000007F0
03F0000007F0
03F0000003F0
03F0000003F8
03F0000003F8
03F0000003F8
FFFFFF0003F8
FFFFFF0001F8
FFFFFF0001F8
FFFFFF0001F8
FFFFFF0001F8
FFFFFF0001F8
03F0000003F8
03F0000003F8
03F0000003F8
03F0000003F0
03F0000003F0
03F0000007F0
03F0000007F0
03F000000FE0
03F000000FE0
03F000001FE0
03F000003FC0
03F000007FC0
03F00000FF80
03F00001FF00
03F00007FF00
03F0003FFE00
03FFFFFFFC00
03FFFFFFF000
03FFFFFFE000
03FFFFFF8000
03FFFFFE0000
03FFFFE00000
ENDCHAR
STARTCHAR 00D1
ENCODING 209
SWIDTH 705 0
DWIDTH 48 0
BBX 38 65 5 0
BITMAP
0000007800
000FC0F800
003FF8F000
003FFFF000
007FFFE000
0078FFE000
00781F8000
00F0000000
0000000000
0000000000
0000000000
0000000000
0000000000
0000000000
0000000000
0000000000
FFC00000FC
FFC00000FC
FFE00000FC
FFE00000FC
FFF00000FC
FFF00000FC
FFF80000FC
FFF80000FC
FFFC0000FC
FDFE0000FC
FDFE0000FC
FCFF0000FC
FCFF0000FC
FC7F8000FC
FC3F8000FC
FC3FC000FC
FC1FC000FC
FC1FE000FC
FC0FF000FC
FC0FF000FC
FC07F800FC
FC07F800FC
FC03FC00FC
FC01FC00FC
FC01FE00FC
FC00FE00FC
FC00FF00FC
FC007F80FC
FC007F80FC
FC003FC0FC
FC003FC0FC
FC001FE0FC
FC001FE0FC
FC000FF0FC
FC0007F0FC
FC0007F8FC
FC0003FCFC
FC0003FCFC
FC0001FEFC
FC0001FEFC
FC0000FFFC
FC0000FFFC
FC00007FFC
FC00003FFC
FC00003FFC
FC00001FFC
FC00001FFC
FC00000FFC
FC00000FFC
ENDCHAR
STARTCHAR 00D2
ENCODING 210
SWIDTH 764 0
DWIDTH 52 0
BBX 44 69 4 -1
BITMAP
0007F0000000
0003F0000000
0003F8000000
0001FC000000
0000FC000000
00007E000000
00003E000000
00001F000000
00000F800000
00000F800000
000007C00000
000003C00000
000000000000
000000000000
000000000000
000000000000
000000000000
000000000000
00007FF00000
0007FFFE0000
001FFFFF8000
007FFFFFE000
00FFFFFFF000
01FFFFFFFC00
03FFC01FFC00
07FE0003FE00
0FF80000FF00
0FF000007F80
1FE000003F80
1FC000001FC0
3FC000001FC0
3F8000000FE0
7F8000000FE0
7F00000007E0
7F00000007E0
7F00000007F0
FF00000007F0
FE00000003F0
FE00000003F0
FE00000003F0
FE00000003F0
FE00000003F0
FE00000003F0
FE00000003F0
FE00000003F0
FE00000003F0
FE00000003F0
FE00000003F0
FE00000003F0
7F00000007F0
7F00000007F0
7F00000007E0
7F00000007E0
3F8000000FE0
3F8000000FC0
3FC000001FC0
1FC000001FC0
1FE000003F80
0FF000007F80
0FF000007F00
07FC0001FE00
03FE0003FE00
01FFC01FFC00
00FFFFFFF800
007FFFFFF000
003FFFFFC000
000FFFFF8000
0003FFFE0000
00007FE00000
ENDCHAR
STARTCHAR 00D3
ENCODING 211
SWIDTH 764 0
DWIDTH 52 0
BBX 44 69 4 -1
BITMAP
0000007F0000
0000007E0000
000000FE0000
000001FC0000
000001F80000
000003F00000
000003E00000
000007C00000
00000FC00000
00000F800000
00001F000000
00001E000000
000000000000
000000000000
000000000000
000000000000
000000000000
000000000000
00007FF00000
0007FFFE0000
001FFFFF8000
007FFFFFE000
00FFFFFFF000
01FFFFFFFC00
03FFC01FFC00
07FE0003FE00
0FF80000FF00
0FF000007F80
1FE000003F80
1FC000001FC0
3FC000001FC0
3F8000000FE0
7F8000000FE0
7F00000007E0
7F00000007E0
7F00000007F0
FF00000007F0
FE00000003F0
FE00000003F0
FE00000003F0
FE00000003F0
FE00000003F0
FE00000003F0
FE00000003F0
FE00000003F0
FE00000003F0
FE00000003F0
FE00000003F0
FE00000003F0
7F00000007F0
7F00000007F0
7F00000007E0
7F00000007E0
3F8000000FE0
3F8000000FC0
3FC000001FC0
1FC000001FC0
1FE000003F80
0FF000007F80
0FF000007F00
07FC0001FE00
03FE0003FE00
01FFC01FFC00
00FFFFFFF800
007FFFFFF000
003FFFFFC000
000FFFFF8000
0003FFFE0000
00007FE00000
ENDCHAR
STARTCHAR 00D4
ENCODING 212
SWIDTH 764 0
DWIDTH 52 0
BBX 44 69 4 -1
BITMAP
00001FC00000
00003FE00000
00003FE00000
00007FF00000
00007FF80000
0000FDF80000
0001F8FC0000
0001F07C0000
0003E03E0000
0003E03E0000
0007C01F0000
0007800F0000
000000000000
000000000000
000000000000
000000000000
000000000000
000000000000
00007FF00000
0007FFFE0000
001FFFFF8000
007FFFFFE000
00FFFFFFF000
01FFFFFFFC00
03FFC01FFC00
07FE0003FE00
0FF80000FF00
0FF000007F80
1FE000003F80
1FC000001FC0
3FC000001FC0
3F8000000FE0
7F8000000FE0
7F00000007E0
7F00000007E0
7F00000007F0
FF00000007F0
FE00000003F0
FE00000003F0
FE00000003F0
FE00000003F0
FE00000003F0
FE00000003F0
FE00000003F0
FE00000003F0
FE00000003F0
FE00000003F0
FE00000003F0
FE00000003F0
7F00000007F0
7F00000007F0
7F00000007E0
7F00000007E0
3F8000000FE0
3F8000000FC0
3FC000001FC0
1FC000001FC0
1FE000003F80
0FF000007F80
0FF000007F00
07FC0001FE00
03FE0003FE00
01FFC01FFC00
00FFFFFFF800
007FFFFFF000
003FFFFFC000
000FFFFF8000
0003FFFE0000
00007FE00000
ENDCHAR
STARTCHAR 00D5
ENCODING 213
SWIDTH 764 0
DWIDTH 52 0
BBX 44 66 4 -1
BITMAP
000000078000
0000FE0F0000
0003FFDF0000
0003FFFF0000
0007FFFE0000
00078FFC0000
000781F80000
000000000000
000000000000
000000000000
000000000000
000000000000
000000000000
000000000000
000000000000
00007FF00000
0007FFFE0000
001FFFFF8000
007FFFFFE000
00FFFFFFF000
01FFFFFFFC00
03FFC01FFC00
07FE0003FE00
0FF80000FF00
0FF000007F80
1FE000003F80
1FC000001FC0
3FC000001FC0
3F8000000FE0
7F8000000FE0
7F00000007E0
7F00000007E0
7F00000007F0
FF00000007F0
FE00000003F0
FE00000003F0
FE00000003F0
FE00000003F0
FE00000003F0
FE00000003F0
FE00000003F0
FE00000003F0
FE00000003F0
FE00000003F0
FE00000003F0
FE00000003F0
7F00000007F0
7F00000007F0
7F00000007E0
7F00000007E0
3F8000000FE0
3F8000000FC0
3FC000001FC0
1FC000001FC0
1FE000003F80
0FF000007F80
0FF000007F00
07FC0001FE00
03FE0003FE00
01FFC01FFC00
00FFFFFFF800
007FFFFFF000
003FFFFFC000
000FFFFF8000
0003FFFE0000
00007FE00000
ENDCHAR
STARTCHAR 00D6
ENCODING 214
SWIDTH 764 0
DWIDTH 52 0
BBX 44 65 4 -1
BITMAP
0003F01F8000
0003F01F8000
0003F01F8000
0003F01F8000
0003F01F8000
0003F01F8000
000000000000
000000000000
000000000000
000000000000
000000000000
000000000000
000000000000
000000000000
00007FF00000
0007FFFE0000
001FFFFF8000
007FFFFFE000
00FFFFFFF000
01FFFFFFFC00
03FFC01FFC00
07FE0003FE00
0FF80000FF00
0FF000007F80
1FE000003F80
1FC000001FC0
3FC000001FC0
3F8000000FE0
7F8000000FE0
7F00000007E0
7F00000007E0
7F00000007F0
FF00000007F0
FE00000003F0
FE00000003F0
FE00000003F0
FE00000003F0
FE00000003F0
FE00000003F0
FE00000003F0
FE00000003F0
FE00000003F0
FE00000003F0
FE00000003F0
FE00000003F0
7F00000007F0
7F00000007F0
7F00000007E0
7F00000007E0
3F8000000FE0
3F8000000FC0
3FC000001FC0
1FC000001FC0
1FE000003F80
0FF000007F80
0FF000007F00
07FC0001FE00
03FE0003FE00
01FFC01FFC00
00FFFFFFF800
007FFFFFF000
003FFFFFC000
000FFFFF8000
0003FFFE0000
00007FE00000
ENDCHAR
STARTCHAR 00D7
ENCODING 215
SWIDTH 1000 0
DWIDTH 68 0
BBX 36 37 16 2
BITMAP
2000000040
70000000E0
F8000001F0
FC000003F0
7E000007E0
3F00000FC0
1F80001F80
0FC0003F00
07E0007E00
03F000FC00
01F801F800
00FC03F000
007E07E000
003F0FC000
001F9F8000
000FFF0000
0007FE0000
0003FC0000
0001F80000
0003FC0000
0007FE0000
000FFF0000
001F9F8000
003F0FC000
007E07E000
00FC03F000
01F801F800
03F000FC00
07E0007E00
0FC0003F00
1F80001F80
3F00000FC0
7E000007E0
FC000003F0
F8000001F0
70000000E0
2000000040
ENDCHAR
STARTCHAR 00D8
ENCODING 216
SWIDTH 764 0
DWIDTH 52 0
BBX 44 62 4 -6
BITMAP
000000000180
0000000003E0
0000000003F0
0000000007F0
000000000FE0
00007FF00FE0
0007FFFF1FC0
001FFFFFDFC0
007FFFFFFF80
00FFFFFFFF00
01FFFFFFFF00
03FFC01FFE00
07FE0003FF00
0FF80001FF00
0FF00003FF80
1FE00007FF80
1FC0000FFFC0
3FC0000FFFC0
3F80001FEFE0
7F80003FCFE0
7F00003F87E0
7F00007F87F0
7F0000FF07F0
FF0000FE07F0
FE0001FE03F0
FE0003FC03F0
FE0003F803F0
FE0007F003F0
FE000FF003F0
FE000FE003F0
FE001FC003F0
FE003FC003F0
FE003F8003F0
FE007F0003F0
FE00FF0003F0
FE00FE0003F0
7F01FC0007F0
7F03FC0007F0
7F03F80007E0
7F07F00007E0
3F8FF0000FE0
3F9FE0000FC0
3FDFC0001FC0
1FFFC0001FC0
1FFF80003F80
0FFF00007F80
0FFF00007F00
07FE0001FE00
03FE0003FE00
03FFC01FFC00
07FFFFFFF800
07FFFFFFF000
0FFFFFFFC000
1FEFFFFF8000
1FC3FFFE0000
3F807FE00000
7F8000000000
7F0000000000
FE0000000000
7E0000000000
1C0000000000
080000000000
ENDCHAR
STARTCHAR 00D9
ENCODING 217
SWIDTH 720 0
DWIDTH 49 0
BBX 39 69 5 -1
BITMAP
003F800000
001F800000
001FC00000
000FE00000
0007E00000
0003F00000
0001F00000
0000F80000
00007C0000
00007C0000
00003E0000
00001E0000
0000000000
0000000000
0000000000
0000000000
0000000000
0000000000
0000000000
FC0000007E
FC0000007E
FC0000007E
FC0000007E
FC0000007E
FC0000007E
FC0000007E
FC0000007E
FC0000007E
FC0000007E
FC0000007E
FC0000007E
FC0000007E
FC0000007E
FC0000007E
FC0000007E
FC0000007E
FC0000007E
FC0000007E
FC0000007E
FC0000007E
FC0000007E
FC0000007E
FC0000007E
FC0000007E
FC0000007E
FC0000007E
FC0000007E
FC0000007E
FC0000007E
FC000000FE
FE000000FE
FE000000FE
FE000000FE
FE000000FC
7E000000FC
7F000001FC
7F000001FC
7F000001FC
3F800003F8
3FC00007F8
3FE0000FF0
1FF0001FF0
0FFE00FFE0
0FFFFFFFE0
07FFFFFFC0
03FFFFFF00
00FFFFFE00
003FFFF800
0003FF8000
ENDCHAR
STARTCHAR 00DA
ENCODING 218
SWIDTH 720 0
DWIDTH 49 0
BBX 39 69 5 -1
BITMAP
000003F800
000003F000
000007F000
00000FE000
00000FC000
00001F8000
00001F0000
00003E0000
00007C0000
00007C0000
0000F80000
0001F00000
0000000000
0000000000
0000000000
0000000000
0000000000
0000000000
0000000000
FC0000007E
FC0000007E
FC0000007E
FC0000007E
FC0000007E
FC0000007E
FC0000007E
FC0000007E
FC0000007E
FC0000007E
FC0000007E
FC0000007E
FC0000007E
FC0000007E
FC0000007E
FC0000007E
FC0000007E
FC0000007E
FC0000007E
FC0000007E
FC0000007E
FC0000007E
FC0000007E
FC0000007E
FC0000007E
FC0000007E
FC0000007E
FC0000007E
FC0000007E
FC0000007E
FC000000FE
FE000000FE
FE000000FE
FE000000FE
FE000000FC
7E000000FC
7F000001FC
7F000001FC
7F000001FC
3F800003F8
3FC00007F8
3FE0000FF0
1FF0001FF0
0FFE00FFE0
0FFFFFFFE0
07FFFFFFC0
03FFFFFF00
00FFFFFE00
003FFFF800
0003FF8000
ENDCHAR
STARTCHAR 00DB
ENCODING 219
SWIDTH 720 0
DWIDTH 49 0
BBX 39 69 5 -1
BITMAP
0000FE0000
0001FF0000
0001FF0000
0003FF8000
0007FFC000
0007EFC000
000FC7E000
000F83E000
001F01F000
001F01F000
003E00F800
003C007800
0000000000
0000000000
0000000000
0000000000
0000000000
0000000000
0000000000
FC0000007E
FC0000007E
FC0000007E
FC0000007E
FC0000007E
FC0000007E
FC0000007E
FC0000007E
FC0000007E
FC0000007E
FC0000007E
FC0000007E
FC0000007E
FC0000007E
FC0000007E
FC0000007E
FC0000007E
FC0000007E
FC0000007E
FC0000007E
FC0000007E
FC0000007E
FC0000007E
FC0000007E
FC0000007E
FC0000007E
FC0000007E
FC0000007E
FC0000007E
FC0000007E
FC000000FE
FE000000FE
FE000000FE
FE000000FE
FE000000FC
7E000000FC
7F000001FC
7F000001FC
7F000001FC
3F800003F8
3FC00007F8
3FE0000FF0
1FF0001FF0
0FFE00FFE0
0FFFFFFFE0
07FFFFFFC0
03FFFFFF00
00FFFFFE00
003FFFF800
0003FF8000
ENDCHAR
STARTCHAR 00DC
ENCODING 220
SWIDTH 720 0
DWIDTH 49 0
BBX 39 64 5 -1
BITMAP
001F807E00
001F807E00
001F807E00
001F807E00
001F807E00
001F807E00
0000000000
0000000000
0000000000
0000000000
0000000000
0000000000
0000000000
0000000000
FC0000007E
FC0000007E
FC0000007E
FC0000007E
FC0000007E
FC0000007E
FC0000007E
FC0000007E
FC0000007E
FC0000007E
FC0000007E
FC0000007E
FC0000007E
FC0000007E
FC0000007E
FC0000007E
FC0000007E
FC0000007E
FC0000007E
FC0000007E
FC0000007E
FC0000007E
FC0000007E
FC0000007E
FC0000007E
FC0000007E
FC0000007E
FC0000007E
FC0000007E
FC0000007E
FC000000FE
FE000000FE
FE000000FE
FE000000FE
FE000000FC
7E000000FC
7F000001FC
7F000001FC
7F000001FC
3F800003F8
3FC00007F8
3FE0000FF0
1FF0001FF0
0FFE00FFE0
0FFFFFFFE0
07FFFFFFC0
03FFFFFF00
00FFFFFE00
003FFFF800
0003FF8000
ENDCHAR
STARTCHAR 00DD
ENCODING 221
SWIDTH 661 0
DWIDTH 45 0
BBX 43 68 1 0
BITMAP
000000FE0000
000000FC0000
000001F80000
000001F80000
000003F00000
000003E00000
000007C00000
00000F800000
00000F800000
00001F000000
00001E000000
00003C000000
000000000000
000000000000
000000000000
000000000000
000000000000
000000000000
FF0000001FE0
FF8000003FC0
7F8000003F80
3FC000007F80
3FC000007F00
1FE00000FF00
1FF00000FE00
0FF00001FC00
07F80003FC00
07F80003F800
03FC0007F800
01FC0007F000
01FE000FE000
00FF000FE000
00FF001FC000
007F803F8000
003F803F8000
003FC07F0000
001FC07F0000
001FE0FE0000
000FE0FC0000
0007F1FC0000
0007F9F80000
0003FBF80000
0003FFF00000
0001FFE00000
0000FFE00000
0000FFC00000
00007FC00000
00007F800000
00003F000000
00003F000000
00003F000000
00003F000000
00003F000000
00003F000000
00003F000000
00003F000000
00003F000000
00003F000000
00003F000000
00003F000000
00003F000000
00003F000000
00003F000000
00003F000000
00003F000000
00003F000000
00003F000000
00003F000000
ENDCHAR
STARTCHAR 00DE
ENCODING 222
SWIDTH 617 0
DWIDTH 42 0
BBX 33 49 5 0
BITMAP
FC00000000
FC00000000
FC00000000
FC00000000
FC00000000
FC00000000
FC00000000
FC00000000
FC00000000
FFFFF80000
FFFFFF8000
FFFFFFE000
FFFFFFF800
FFFFFFFC00
FFFFFFFE00
FC000FFE00
FC0001FF00
FC0000FF00
FC00007F00
FC00003F80
FC00003F80
FC00003F80
FC00001F80
FC00001F80
FC00003F80
FC00003F80
FC00003F80
FC00007F00
FC00007F00
FC0001FF00
FC000FFE00
FFFFFFFE00
FFFFFFFC00
FFFFFFF800
FFFFFFE000
FFFFFF8000
FFFFF80000
FC00000000
FC00000000
FC00000000
FC00000000
FC00000000
FC00000000
FC00000000
FC00000000
FC00000000
FC00000000
FC00000000
FC00000000
ENDCHAR
STARTCHAR 00DF
ENCODING 223
SWIDTH 573 0
DWIDTH 39 0
BBX 34 51 4 -1
BITMAP
001FF00000
00FFFF0000
03FFFF8000
07FFFFC000
1FFE3FE000
3FE00FF000
7F8007F000
7F0003F800
FE0003F800
FE0003F800
FC0001F800
FC0001F800
FC0003F800
FC0003F000
FC0007F000
FC001FE000
FC003FC000
FC007F8000
FC00FF0000
FC01FE0000
FC03FC0000
FC03F80000
FC03F00000
FC03F00000
FC03F00000
FC03F80000
FC03FE0000
FC01FF0000
FC01FFC000
FC00FFF000
FC003FFC00
FC001FFE00
FC0007FF00
FC0001FF80
FC0000FF80
FC00003FC0
FC00001FC0
FC00001FC0
FC00000FC0
FC00000FC0
FC00000FC0
FC3F800FC0
FC1F800FC0
FC1FC00FC0
FC1FC00FC0
FC0FE01F80
FC07FC7F80
FC03FFFF00
FC01FFFE00
FC007FFC00
00001FE000
ENDCHAR
STARTCHAR 00E0
ENCODING 224
SWIDTH 544 0
DWIDTH 37 0
BBX 30 53 3 -1
BITMAP
00FC0000
00FE0000
007E0000
003F0000
001F0000
001F8000
000FC000
0007C000
0003E000
0001E000
0001F000
0000F800
00000000
00000000
00000000
00000000
00000000
003FF800
01FFFF00
07FFFFC0
0FFFFFE0
1FFC3FF0
1FE00FF0
3F8003F8
3F8003F8
3F0001F8
3F0001F8
000001F8
000001F8
000001F8
000001F8
001FFFF8
00FFFFF8
07FFFFF8
0FFFFFF8
1FFE01F8
3FE001F8
7F8001F8
7F0001F8
7E0001F8
FE0001F8
FC0003F8
FC0003F8
FC0003F8
FE0007F8
FE0007F8
7F000FF8
7F803FFC
3FF1FDFC
1FFFF8FC
0FFFF0FC
03FFE0FC
007F8000
ENDCHAR
STARTCHAR 00E1
ENCODING 225
SWIDTH 544 0
DWIDTH 37 0
BBX 30 54 3 -1
BITMAP
00007F00
00007E00
0000FC00
0001FC00
0001F800
0003F000
0003E000
0007C000
000F8000
000F8000
001F0000
001E0000
00000000
00000000
00000000
00000000
00000000
00000000
003FF800
01FFFF00
07FFFFC0
0FFFFFE0
1FFC3FF0
1FE00FF0
3F8003F8
3F8003F8
3F0001F8
3F0001F8
000001F8
000001F8
000001F8
000001F8
001FFFF8
00FFFFF8
07FFFFF8
0FFFFFF8
1FFE01F8
3FE001F8
7F8001F8
7F0001F8
7E0001F8
FE0001F8
FC0003F8
FC0003F8
FC0003F8
FE0007F8
FE0007F8
7F000FF8
7F803FFC
3FF1FDFC
1FFFF8FC
0FFFF0FC
03FFE0FC
007F8000
ENDCHAR
STARTCHAR 00E2
ENCODING 226
SWIDTH 544 0
DWIDTH 37 0
BBX 30 54 3 -1
BITMAP
001FE000
001FF000
003FF000
003FF800
007FF800
007CFC00
00FC7C00
00F83E00
01F03E00
01E01F00
03E00F00
03C00780
00000000
00000000
00000000
00000000
00000000
00000000
003FF800
01FFFF00
07FFFFC0
0FFFFFE0
1FFC3FF0
1FE00FF0
3F8003F8
3F8003F8
3F0001F8
3F0001F8
000001F8
000001F8
000001F8
000001F8
001FFFF8
00FFFFF8
07FFFFF8
0FFFFFF8
1FFE01F8
3FE001F8
7F8001F8
7F0001F8
7E0001F8
FE0001F8
FC0003F8
FC0003F8
FC0003F8
FE0007F8
FE0007F8
7F000FF8
7F803FFC
3FF1FDFC
1FFFF8FC
0FFFF0FC
03FFE0FC
007F8000
ENDCHAR
STARTCHAR 00E3
ENCODING 227
SWIDTH 544 0
DWIDTH 37 0
BBX 30 50 3 -1
BITMAP
007C0780
00FF0780
01FFEF80
03FFFF00
03EFFF00
03C1FE00
03803000
00000000
00000000
00000000
00000000
00000000
00000000
00000000
003FF800
01FFFF00
07FFFFC0
0FFFFFE0
1FFC3FF0
1FE00FF0
3F8003F8
3F8003F8
3F0001F8
3F0001F8
000001F8
000001F8
000001F8
000001F8
001FFFF8
00FFFFF8
07FFFFF8
0FFFFFF8
1FFE01F8
3FE001F8
7F8001F8
7F0001F8
7E0001F8
FE0001F8
FC0003F8
FC0003F8
FC0003F8
FE0007F8
FE0007F8
7F000FF8
7F803FFC
3FF1FDFC
1FFFF8FC
0FFFF0FC
03FFE0FC
007F8000
ENDCHAR
STARTCHAR 00E4
ENCODING 228
SWIDTH 544 0
DWIDTH 37 0
BBX 30 50 3 -1
BITMAP
03F01F80
03F01F80
03F01F80
03F01F80
03F01F80
03F01F80
00000000
00000000
00000000
00000000
00000000
00000000
00000000
00000000
003FF800
01FFFF00
07FFFFC0
0FFFFFE0
1FFC3FF0
1FE00FF0
3F8003F8
3F8003F8
3F0001F8
3F0001F8
000001F8
000001F8
000001F8
000001F8
001FFFF8
00FFFFF8
07FFFFF8
0FFFFFF8
1FFE01F8
3FE001F8
7F8001F8
7F0001F8
7E0001F8
FE0001F8
FC0003F8
FC0003F8
FC0003F8
FE0007F8
FE0007F8
7F000FF8
7F803FFC
3FF1FDFC
1FFFF8FC
0FFFF0FC
03FFE0FC
007F8000
ENDCHAR
STARTCHAR 00E5
ENCODING 229
SWIDTH 544 0
DWIDTH 37 0
BBX 30 57 3 -1
BITMAP
0007C000
001FF000
003FF800
00783C00
00701C00
00E00E00
00E00E00
00E00E00
00E00E00
00E00E00
00701C00
00783C00
003FF800
001FF000
0007C000
00000000
00000000
00000000
00000000
00000000
00000000
003FF800
01FFFF00
07FFFFC0
0FFFFFE0
1FFC3FF0
1FE00FF0
3F8003F8
3F8003F8
3F0001F8
3F0001F8
000001F8
000001F8
000001F8
000001F8
001FFFF8
00FFFFF8
07FFFFF8
0FFFFFF8
1FFE01F8
3FE001F8
7F8001F8
7F0001F8
7E0001F8
FE0001F8
FC0003F8
FC0003F8
FC0003F8
FE0007F8
FE0007F8
7F000FF8
7F803FFC
3FF1FDFC
1FFFF8FC
0FFFF0FC
03FFE0FC
007F8000
ENDCHAR
STARTCHAR 00E6
ENCODING 230
SWIDTH 897 0
DWIDTH 61 0
BBX 55 36 3 -1
BITMAP
003FF0000FF800
01FFFE007FFE00
07FFFF00FFFF80
0FFFFF81FFFFC0
1FFC3FC3FC3FE0
3FC00FE7F007F0
3F8007E7E003F0
3F0003FFC001F8
3F0001FF8001F8
000001FF8000FC
000000FF0000FC
000000FF0000FC
000000FF00007E
000000FE00007E
003FFCFE00007E
01FFFFFFFFFFFE
07FFFFFFFFFFFE
1FFFFFFFFFFFFE
3FFF81FFFFFFFE
3FF0007E000000
7F80007E000000
7F0000FE000000
FE0000FE000000
FE0000FE000000
FC0000FF000000
FC0001FF0000FC
FC0001FF0000FC
FE0001EF8001FC
FE0003EFC001F8
7F0007E7C003F8
7F800FC7F007F0
3FF87F83FC7FF0
1FFFFF01FFFFE0
0FFFFE00FFFFC0
03FFF8003FFF00
00FFC00007F800
ENDCHAR
STARTCHAR 00E7
ENCODING 231
SWIDTH 514 0
DWIDTH 35 0
BBX 29 51 3 -17
BITMAP
007FF800
03FFFF00
07FFFF80
0FFFFFC0
1FF03FE0
3FC00FF0
3F8007F0
3F0003F8
7F0003F8
7E0003F8
7E0003F8
FE000000
FE000000
FE000000
FC000000
FC000000
FC000000
FC000000
FC000000
FC000000
FC000000
FE000000
FE000000
7E0001F8
7E0003F8
7F0003F8
7F0003F8
3F8007F0
3F8007F0
1FE00FE0
1FF87FE0
0FFFFFC0
03FFFF80
01FFFE00
003FF000
000E0000
000E0000
000E0000
000FF000
000FFE00
000FFF00
00007F80
00001F80
00000FC0
000007C0
000007C0
000007C0
00401F80
007FFF00
007FFE00
007FF000
ENDCHAR
STARTCHAR 00E8
ENCODING 232
SWIDTH 558 0
DWIDTH 38 0
BBX 31 54 3 -1
BITMAP
03F80000
03F80000
01FC0000
00FC0000
007E0000
003F0000
001F0000
001F8000
000F8000
0007C000
0003E000
0001E000
00000000
00000000
00000000
00000000
00000000
00000000
000FF000
007FFE00
01FFFF80
07FFFFC0
0FFC3FE0
0FE007F0
1FC003F8
3F8001F8
3F0001FC
7F0000FC
7E0000FC
7E0000FE
7E0000FE
FE0000FE
FC0000FE
FFFFFFFE
FFFFFFFE
FFFFFFFE
FFFFFFFE
FC000000
FC000000
FC000000
FE000000
7E000000
7E0000FE
7E0000FE
3F0000FC
3F0001FC
1F8001F8
1FC003F8
0FE00FF0
07FC3FE0
03FFFFC0
01FFFF80
007FFE00
001FF000
ENDCHAR
STARTCHAR 00E9
ENCODING 233
SWIDTH 558 0
DWIDTH 38 0
BBX 31 54 3 -1
BITMAP
00003F80
00007F00
00007E00
0000FE00
0000FC00
0001F800
0003F000
0003E000
0007C000
00078000
000F8000
001F0000
00000000
00000000
00000000
00000000
00000000
00000000
000FF000
007FFE00
01FFFF80
07FFFFC0
0FFC3FE0
0FE007F0
1FC003F8
3F8001F8
3F0001FC
7F0000FC
7E0000FC
7E0000FE
7E0000FE
FE0000FE
FC0000FE
FFFFFFFE
FFFFFFFE
FFFFFFFE
FFFFFFFE
FC000000
FC000000
FC000000
FE000000
7E000000
7E0000FE
7E0000FE
3F0000FC
3F0001FC
1F8001F8
1FC003F8
0FE00FF0
07FC3FE0
03FFFFC0
01FFFF80
007FFE00
001FF000
ENDCHAR
STARTCHAR 00EA
ENCODING 234
SWIDTH 558 0
DWIDTH 38 0
BBX 31 54 3 -1
BITMAP
001FE000
001FF000
003FF000
003FF800
007FF800
007EFC00
00FC7C00
00F83E00
01F03E00
01E01F00
03E00F00
03C00780
00000000
00000000
00000000
00000000
00000000
00000000
000FF000
007FFE00
01FFFF80
07FFFFC0
0FFC3FE0
0FE007F0
1FC003F8
3F8001F8
3F0001FC
7F0000FC
7E0000FC
7E0000FE
7E0000FE
FE0000FE
FC0000FE
FFFFFFFE
FFFFFFFE
FFFFFFFE
FFFFFFFE
FC000000
FC000000
FC000000
FE000000
7E000000
7E0000FE
7E0000FE
3F0000FC
3F0001FC
1F8001F8
1FC003F8
0FE00FF0
07FC3FE0
03FFFFC0
01FFFF80
007FFE00
001FF000
ENDCHAR
STARTCHAR 00EB
ENCODING 235
SWIDTH 558 0
DWIDTH 38 0
BBX 31 50 3 -1
BITMAP
03F01F80
03F01F80
03F01F80
03F01F80
03F01F80
03F01F80
00000000
00000000
00000000
00000000
00000000
00000000
00000000
00000000
000FF000
007FFE00
01FFFF80
07FFFFC0
0FFC3FE0
0FE007F0
1FC003F8
3F8001F8
3F0001FC
7F0000FC
7E0000FC
7E0000FE
7E0000FE
FE0000FE
FC0000FE
FFFFFFFE
FFFFFFFE
FFFFFFFE
FFFFFFFE
FC000000
FC000000
FC000000
FE000000
7E000000
7E0000FE
7E0000FE
3F0000FC
3F0001FC
1F8001F8
1FC003F8
0FE007F0
07FC3FE0
03FFFFC0
01FFFF80
007FFE00
001FF000
ENDCHAR
STARTCHAR 00EC
ENCODING 236
SWIDTH 235 0
DWIDTH 16 0
BBX 14 53 -2 0
BITMAP
FE00
7F00
3F80
1F80
0FC0
07C0
03E0
03F0
01F0
00F8
007C
003C
0000
0000
0000
0000
0000
0000
0000
01F8
01F8
01F8
01F8
01F8
01F8
01F8
01F8
01F8
01F8
01F8
01F8
01F8
01F8
01F8
01F8
01F8
01F8
01F8
01F8
01F8
01F8
01F8
01F8
01F8
01F8
01F8
01F8
01F8
01F8
01F8
01F8
01F8
01F8
ENDCHAR
STARTCHAR 00ED
ENCODING 237
SWIDTH 235 0
DWIDTH 16 0
BBX 14 53 4 0
BITMAP
01FC
03F8
03F0
07E0
0FC0
0FC0
1F80
1F00
3E00
7C00
7800
F800
0000
0000
0000
0000
0000
0000
0000
7E00
7E00
7E00
7E00
7E00
7E00
7E00
7E00
7E00
7E00
7E00
7E00
7E00
7E00
7E00
7E00
7E00
7E00
7E00
7E00
7E00
7E00
7E00
7E00
7E00
7E00
7E00
7E00
7E00
7E00
7E00
7E00
7E00
7E00
ENDCHAR
STARTCHAR 00EE
ENCODING 238
SWIDTH 235 0
DWIDTH 16 0
BBX 20 53 -2 0
BITMAP
03FC00
03FE00
07FE00
07FF00
0FFF00
0F9F80
1F8F80
1F07C0
3E07C0
7C03E0
7801E0
F800F0
000000
000000
000000
000000
000000
000000
000000
01F800
01F800
01F800
01F800
01F800
01F800
01F800
01F800
01F800
01F800
01F800
01F800
01F800
01F800
01F800
01F800
01F800
01F800
01F800
01F800
01F800
01F800
01F800
01F800
01F800
01F800
01F800
01F800
01F800
01F800
01F800
01F800
01F800
01F800
ENDCHAR
STARTCHAR 00EF
ENCODING 239
SWIDTH 235 0
DWIDTH 16 0
BBX 20 49 -2 0
BITMAP
FC07F0
FC07F0
FC07F0
FC07F0
FC07F0
FC07F0
000000
000000
000000
000000
000000
000000
000000
000000
000000
01F800
01F800
01F800
01F800
01F800
01F800
01F800
01F800
01F800
01F800
01F800
01F800
01F800
01F800
01F800
01F800
01F800
01F800
01F800
01F800
01F800
01F800
01F800
01F800
01F800
01F800
01F800
01F800
01F800
01F800
01F800
01F800
01F800
01F800
ENDCHAR
STARTCHAR 00F0
ENCODING 240
SWIDTH 588 0
DWIDTH 40 0
BBX 33 51 3 -1
BITMAP
0600006000
1F8001E000
0FE007F000
07F83FC000
01FEFF0000
00FFFC0000
003FF00000
003FE00000
00FFF80000
07F9FC0000
1FE0FE0000
7F807F0000
3E003F8000
30001FC000
00000FE000
000FFFF000
00FFFFF000
01FFFFF800
07FFFFFC00
0FFE3FFC00
0FF007FE00
1FE001FE00
3FC000FE00
3F80007F00
7F00007F00
7F00003F00
7E00003F80
7E00003F80
FE00001F80
FE00001F80
FE00001F80
FC00001F80
FC00001F80
FC00001F80
FC00001F80
FC00001F80
FE00001F80
FE00001F80
7E00003F80
7E00003F80
7F00003F00
7F00007F00
3F8000FE00
3F8000FE00
1FC001FC00
0FF007FC00
07FE1FF800
03FFFFF000
01FFFFC000
007FFF0000
000FF80000
ENDCHAR
STARTCHAR 00F1
ENCODING 241
SWIDTH 573 0
DWIDTH 39 0
BBX 29 50 5 0
BITMAP
00000700
00FE0F00
01FFDF00
03FFFE00
03FFFE00
07C7FC00
0781F800
00000000
00000000
00000000
00000000
00000000
00000000
00000000
00000000
0007F800
FC3FFF00
FC7FFF80
FCFFFFC0
FDF87FE0
FFE01FF0
FF800FF0
FF0007F8
FF0003F8
FE0003F8
FE0001F8
FE0001F8
FC0001F8
FC0001F8
FC0001F8
FC0001F8
FC0001F8
FC0001F8
FC0001F8
FC0001F8
FC0001F8
FC0001F8
FC0001F8
FC0001F8
FC0001F8
FC0001F8
FC0001F8
FC0001F8
FC0001F8
FC0001F8
FC0001F8
FC0001F8
FC0001F8
FC0001F8
FC0001F8
ENDCHAR
STARTCHAR 00F2
ENCODING 242
SWIDTH 588 0
DWIDTH 40 0
BBX 33 54 3 -1
BITMAP
01FC000000
00FC000000
007E000000
003F000000
003F000000
001F800000
000F800000
0007C00000
0003E00000
0003E00000
0001F00000
0000F00000
0000000000
0000000000
0000000000
0000000000
0000000000
0000000000
000FF80000
007FFF0000
01FFFFC000
03FFFFE000
07FE3FF800
0FF007F800
1FE001FC00
3FC000FE00
3F8000FE00
7F00007F00
7F00007F00
7E00003F80
7E00003F80
FE00003F80
FE00001F80
FE00001F80
FC00001F80
FC00001F80
FC00001F80
FC00001F80
FE00001F80
FE00001F80
FE00003F80
7E00003F80
7E00003F80
7F00007F00
7F00007F00
3F8000FE00
3FC000FE00
1FE001FC00
0FF007FC00
07FE3FF800
03FFFFE000
01FFFFC000
007FFF0000
000FF80000
ENDCHAR
STARTCHAR 00F3
ENCODING 243
SWIDTH 588 0
DWIDTH 40 0
BBX 33 54 3 -1
BITMAP
00001FC000
00001F8000
00003F0000
00007F0000
00007E0000
0000FC0000
0000F80000
0001F00000
0001F00000
0003E00000
0007C00000
0007800000
0000000000
0000000000
0000000000
0000000000
0000000000
0000000000
000FF80000
007FFF0000
01FFFFC000
03FFFFE000
07FE3FF800
0FF007F800
1FE001FC00
3FC000FE00
3F8000FE00
7F00007F00
7F00007F00
7E00003F80
7E00003F80
FE00003F80
FE00001F80
FE00001F80
FC00001F80
FC00001F80
FC00001F80
FC00001F80
FE00001F80
FE00001F80
FE00003F80
7E00003F80
7E00003F80
7F00007F00
7F00007F00
3F8000FE00
3FC000FE00
1FE001FC00
0FF007FC00
07FE3FF800
03FFFFE000
01FFFFC000
007FFF0000
000FF80000
ENDCHAR
STARTCHAR 00F4
ENCODING 244
SWIDTH 588 0
DWIDTH 40 0
BBX 33 54 3 -1
BITMAP
0007F00000
000FF80000
000FF80000
001FFC0000
001FFE0000
003F7E0000
003E3F0000
007C1F0000
007C0F8000
00F8078000
00F007C000
01E003C000
0000000000
0000000000
0000000000
0000000000
0000000000
0000000000
000FF80000
007FFF0000
01FFFFC000
03FFFFE000
07FE3FF800
0FF007F800
1FE001FC00
3FC000FE00
3F8000FE00
7F00007F00
7F00007F00
7E00003F80
7E00003F80
FE00003F80
FE00001F80
FE00001F80
FC00001F80
FC00001F80
FC00001F80
FC00001F80
FE00001F80
FE00001F80
FE00003F80
7E00003F80
7E00003F80
7F00007F00
7F00007F00
3F8000FE00
3FC000FE00
1FE001FC00
0FF007FC00
07FE3FF800
03FFFFE000
01FFFFC000
007FFF0000
000FF80000
ENDCHAR
STARTCHAR 00F5
ENCODING 245
SWIDTH 588 0
DWIDTH 40 0
BBX 33 50 3 -1
BITMAP
001E01C000
007FC3C000
00FFF7C000
00FFFFC000
01F7FF8000
01E0FF0000
01E0180000
0000000000
0000000000
0000000000
0000000000
0000000000
0000000000
0000000000
000FF80000
007FFF0000
01FFFFC000
03FFFFE000
07FE3FF800
0FF007F800
1FE001FC00
3FC000FE00
3F8000FE00
7F00007F00
7F00007F00
7E00003F80
7E00003F80
FE00003F80
FE00001F80
FE00001F80
FC00001F80
FC00001F80
FC00001F80
FC00001F80
FE00001F80
FE00001F80
FE00003F80
7E00003F80
7E00003F80
7F00007F00
7F00007F00
3F8000FE00
3FC000FE00
1FE001FC00
0FF007FC00
07FE3FF800
03FFFFE000
01FFFFC000
007FFF0000
000FF80000
ENDCHAR
STARTCHAR 00F6
ENCODING 246
SWIDTH 588 0
DWIDTH 40 0
BBX 33 50 3 -1
BITMAP
01F807E000
01F807E000
01F807E000
01F807E000
01F807E000
01F807E000
0000000000
0000000000
0000000000
0000000000
0000000000
0000000000
0000000000
0000000000
000FF80000
007FFF0000
01FFFFC000
03FFFFE000
07FE3FF800
0FF007F800
1FE001FC00
3FC000FE00
3F8000FE00
7F00007F00
7F00007F00
7E00003F80
7E00003F80
FE00003F80
FE00001F80
FE00001F80
FC00001F80
FC00001F80
FC00001F80
FC00001F80
FE00001F80
FE00001F80
FE00003F80
7E00003F80
7E00003F80
7F00007F00
7F00007F00
3F8000FE00
3FC000FE00
1FE001FC00
0FF007FC00
07FE3FF800
03FFFFE000
01FFFFC000
007FFF0000
000FF80000
ENDCHAR
STARTCHAR 00F7
ENCODING 247
SWIDTH 1014 0
DWIDTH 69 0
BBX 41 30 14 5
BITMAP
00003C000000
00007E000000
0000FF000000
0000FF000000
0000FF000000
0000FF000000
00007E000000
00003C000000
000000000000
000000000000
000000000000
000000000000
000000000000
FFFFFFFFFF80
FFFFFFFFFF80
FFFFFFFFFF80
FFFFFFFFFF80
000000000000
000000000000
000000000000
000000000000
000000000000
00003C000000
00007E000000
0000FF000000
0000FF000000
0000FF000000
0000FF000000
00007E000000
00003C000000
ENDCHAR
STARTCHAR 00F8
ENCODING 248
SWIDTH 588 0
DWIDTH 40 0
BBX 35 45 2 -6
BITMAP
0000000180
00000003C0
00000007E0
00000007C0
0000000F80
0007FC1F00
003FFFBF00
00FFFFFE00
01FFFFFC00
03FF1FFC00
07F803FC00
0FF001FE00
1FE003FF00
1FC007FF00
3F8007FF80
3F800FBF80
3F001F9FC0
3F001F1FC0
7F003E1FC0
7F007C0FC0
7F00FC0FC0
7E00F80FC0
7E01F00FC0
7E03F00FC0
7E03E00FC0
7E07C00FC0
7F0F800FC0
7F1F801FC0
7F1F001FC0
3F3E001FC0
3FFE003F80
3FFC003F80
1FF8007F00
1FF0007F00
0FF000FE00
07F803FC00
07FF1FFC00
0FFFFFF000
1FFFFFE000
1F3FFF8000
3E07FC0000
7C00000000
FC00000000
F800000000
3000000000
ENDCHAR
STARTCHAR 00F9
ENCODING 249
SWIDTH 573 0
DWIDTH 39 0
BBX 29 54 5 -1
BITMAP
07F00000
03F80000
01F80000
00FC0000
00FC0000
007E0000
003E0000
001F0000
000F8000
00078000
0007C000
0003C000
00000000
00000000
00000000
00000000
00000000
00000000
00000000
FC0001F8
FC0001F8
FC0001F8
FC0001F8
FC0001F8
FC0001F8
FC0001F8
FC0001F8
FC0001F8
FC0001F8
FC0001F8
FC0001F8
FC0001F8
FC0001F8
FC0001F8
FC0001F8
FC0001F8
FC0001F8
FC0001F8
FC0001F8
FC0001F8
FC0001F8
FC0001F8
FC0001F8
FE0001F8
FE0003F8
FE0003F8
7F0007F8
7F800FF8
7FC01FF8
3FF8FDF8
1FFFFDF8
0FFFF9F8
07FFE1F8
00FF8000
ENDCHAR
STARTCHAR 00FA
ENCODING 250
SWIDTH 573 0
DWIDTH 39 0
BBX 29 54 5 -1
BITMAP
00007F00
00007E00
0000FC00
0000FC00
0001F800
0003F000
0003E000
0007C000
0007C000
000F8000
000F0000
001E0000
00000000
00000000
00000000
00000000
00000000
00000000
00000000
FC0001F8
FC0001F8
FC0001F8
FC0001F8
FC0001F8
FC0001F8
FC0001F8
FC0001F8
FC0001F8
FC0001F8
FC0001F8
FC0001F8
FC0001F8
FC0001F8
FC0001F8
FC0001F8
FC0001F8
FC0001F8
FC0001F8
FC0001F8
FC0001F8
FC0001F8
FC0001F8
FC0001F8
FE0001F8
FE0003F8
FE0003F8
7F0007F8
7F800FF8
7FC01FF8
3FF8FDF8
1FFFFDF8
0FFFF9F8
07FFE1F8
00FF8000
ENDCHAR
STARTCHAR 00FB
ENCODING 251
SWIDTH 573 0
DWIDTH 39 0
BBX 29 54 5 -1
BITMAP
001FC000
001FE000
003FE000
003FF000
007FF000
00FDF800
00F8F800
01F87C00
01F03C00
03E03E00
03C01F00
07C00F00
00000000
00000000
00000000
00000000
00000000
00000000
00000000
FC0001F8
FC0001F8
FC0001F8
FC0001F8
FC0001F8
FC0001F8
FC0001F8
FC0001F8
FC0001F8
FC0001F8
FC0001F8
FC0001F8
FC0001F8
FC0001F8
FC0001F8
FC0001F8
FC0001F8
FC0001F8
FC0001F8
FC0001F8
FC0001F8
FC0001F8
FC0001F8
FC0001F8
FE0001F8
FE0003F8
FE0003F8
7F0007F8
7F800FF8
7FC01FF8
3FF8FDF8
1FFFFDF8
0FFFF9F8
07FFE1F8
00FF8000
ENDCHAR
STARTCHAR 00FC
ENCODING 252
SWIDTH 573 0
DWIDTH 39 0
BBX 29 50 5 -1
BITMAP
07E01F80
07E01F80
07E01F80
07E01F80
07E01F80
07E01F80
00000000
00000000
00000000
00000000
00000000
00000000
00000000
00000000
00000000
FC0001F8
FC0001F8
FC0001F8
FC0001F8
FC0001F8
FC0001F8
FC0001F8
FC0001F8
FC0001F8
FC0001F8
FC0001F8
FC0001F8
FC0001F8
FC0001F8
FC0001F8
FC0001F8
FC0001F8
FC0001F8
FC0001F8
FC0001F8
FC0001F8
FC0001F8
FC0001F8
FC0001F8
FE0001F8
FE0003F8
FE0003F8
7F0007F8
7F800FF8
7FC01FF8
3FF8FDF8
1FFFFDF8
0FFFF9F8
07FFE1F8
00FF8000
ENDCHAR
STARTCHAR 00FD
ENCODING 253
SWIDTH 529 0
DWIDTH 36 0
BBX 34 67 1 -14
BITMAP
000007F000
00000FE000
00000FC000
00001F8000
00001F8000
00003F0000
00007E0000
00007C0000
0000F80000
0000F00000
0001F00000
0003E00000
0000000000
0000000000
0000000000
0000000000
0000000000
0000000000
0000000000
FE00000FC0
7F00001FC0
7F00001F80
7F80003F80
3F80003F80
3F80003F00
1FC0007F00
1FC0007E00
0FE000FE00
0FE000FE00
0FE000FC00
07F001FC00
07F001F800
03F801F800
03F803F800
01FC03F000
01FC07F000
01FC07F000
00FE07E000
00FE0FE000
007F0FC000
007F0FC000
007F1FC000
003F9F8000
003FBF8000
001FFF0000
001FFF0000
000FFF0000
000FFE0000
000FFE0000
0007FC0000
0007FC0000
0003FC0000
0003F80000
0001F80000
0003F80000
0003F00000
0007F00000
0007E00000
0007E00000
0C0FE00000
3E0FC00000
7F1FC00000
7FFF800000
3FFF800000
1FFF000000
0FFE000000
03F8000000
ENDCHAR
STARTCHAR 00FE
ENCODING 254
SWIDTH 602 0
DWIDTH 41 0
BBX 32 63 5 -14
BITMAP
FC000000
FC000000
FC000000
FC000000
FC000000
FC000000
FC000000
FC000000
FC000000
FC000000
FC000000
FC000000
FC000000
FC000000
FC000000
FC0FFE00
FC1FFF80
FC7FFFE0
FCFFFFF0
FDF81FF8
FFE007F8
FFC003FC
FF8001FC
FF0000FE
FF0000FE
FF00007F
FE00007F
FE00007F
FE00003F
FE00003F
FC00003F
FC00003F
FC00003F
FC00003F
FC00003F
FE00003F
FE00003F
FE00007F
FE00007F
FE00007F
FF0000FE
FF0000FE
FF8001FC
FFC003FC
FFE007F8
FFF81FF8
FDFFFFF0
FCFFFFE0
FC3FFF80
FC07FE00
FC000000
FC000000
FC000000
FC000000
FC000000
FC000000
FC000000
FC000000
FC000000
FC000000
FC000000
FC000000
FC000000
ENDCHAR
STARTCHAR 00FF
ENCODING 255
SWIDTH 529 0
DWIDTH 36 0
BBX 34 63 1 -14
BITMAP
01F807E000
01F807E000
01F807E000
01F807E000
01F807E000
01F807E000
0000000000
0000000000
0000000000
0000000000
0000000000
0000000000
0000000000
0000000000
0000000000
FE00001FC0
FE00001FC0
7F00001F80
7F00003F80
3F80003F00
3F80007F00
3FC0007F00
1FC0007E00
1FC000FE00
0FE000FE00
0FE000FC00
07F001FC00
07F001F800
07F003F800
03F803F800
03F803F000
01FC07F000
01FC07E000
00FE0FE000
00FE0FE000
00FE0FC000
007F1FC000
007F1FC000
003F9F8000
003FBF8000
001FBF0000
001FFF0000
001FFF0000
000FFE0000
000FFE0000
0007FC0000
0007FC0000
0007FC0000
0003F80000
0003F80000
0003F00000
0007F00000
0007F00000
0007E00000
000FE00000
000FE00000
000FC00000
001FC00000
001F800000
001F800000
003F800000
003F000000
003F000000
ENDCHAR
STARTCHAR 0131
ENCODING 305
SWIDTH 235 0
DWIDTH 16 0
BBX 6 34 5 0
BITMAP
FC
FC
FC
FC
FC
FC
FC
FC
FC
FC
FC
FC
FC
FC
FC
FC
FC
FC
FC
FC
FC
FC
FC
FC
FC
FC
FC
FC
FC
FC
FC
FC
FC
FC
ENDCHAR
STARTCHAR 0141
ENCODING 321
SWIDTH 588 0
DWIDTH 40 0
BBX 36 50 2 0
BITMAP
01F8000000
01F8000000
01F8000000
01F8000000
01F8000000
01F8000000
01F8000000
01F8000000
01F8000000
01F8000000
01F8080000
01F8180000
01F8380000
01F8780000
01F8F80000
01F9F80000
01FBF00000
01FFE00000
01FFC00000
01FF800000
01FF000000
01FE000000
01FC000000
01F8000000
03F8000000
07F8000000
0FF8000000
1FF8000000
1FF8000000
3FF8000000
7DF8000000
F9F8000000
F1F8000000
E1F8000000
C1F8000000
81F8000000
01F8000000
01F8000000
01F8000000
01F8000000
01F8000000
01F8000000
01F8000000
01F8000000
01FFFFFFF0
01FFFFFFF0
01FFFFFFF0
01FFFFFFF0
01FFFFFFF0
01FFFFFFF0
ENDCHAR
STARTCHAR 0142
ENCODING 322
SWIDTH 338 0
DWIDTH 23 0
BBX 19 49 2 0
BITMAP
03F000
03F000
03F000
03F000
03F000
03F000
03F000
03F000
03F000
03F000
03F000
03F020
03F060
03F0E0
03F1E0
03F3E0
03F7C0
03FF80
03FF00
03FE00
03FC00
03F800
03F000
07F000
0FF000
1FF000
3FF000
7FF000
7FF000
FBF000
F3F000
E3F000
C3F000
83F000
03F000
03F000
03F000
03F000
03F000
03F000
03F000
03F000
03F000
03F000
03F000
03F000
03F000
03F000
03F000
ENDCHAR
STARTCHAR 0152
ENCODING 338
SWIDTH 1000 0
DWIDTH 68 0
BBX 60 51 4 -1
BITMAP
00007FF000000000
0003FFFFFFFFFFF0
000FFFFFFFFFFFF0
003FFFFFFFFFFFF0
007FFFFFFFFFFFF0
00FFFFFFFFFFFFF0
01FFC03FFFFFFFF0
03FF0007FE000000
07FC0001FE000000
0FF800007E000000
0FF000007E000000
1FE000007E000000
1FC000007E000000
3FC000007E000000
3F8000007E000000
3F8000007E000000
7F0000007E000000
7F0000007E000000
7F0000007E000000
FF0000007E000000
FE0000007E000000
FE0000007E000000
FE0000007FFFFFE0
FE0000007FFFFFE0
FE0000007FFFFFE0
FE0000007FFFFFE0
FE0000007FFFFFE0
FE0000007FFFFFE0
FE0000007E000000
FE0000007E000000
FE0000007E000000
FF0000007E000000
7F0000007E000000
7F0000007E000000
7F0000007E000000
3F8000007E000000
3F8000007E000000
3FC000007E000000
1FC000007E000000
1FE000007E000000
0FF000007E000000
0FF80000FE000000
07FC0001FE000000
03FE0007FE000000
01FFC01FFFFFFFF0
00FFFFFFFFFFFFF0
007FFFFFFFFFFFF0
003FFFFFFFFFFFF0
000FFFFFFFFFFFF0
0003FFFFFFFFFFF0
00007FE000000000
ENDCHAR
STARTCHAR 0153
ENCODING 339
SWIDTH 926 0
DWIDTH 63 0
BBX 56 36 3 -1
BITMAP
000FF80007FC00
007FFF001FFF80
01FFFF807FFFC0
03FFFFC0FFFFF0
0FFC7FE1FF0FF8
0FE00FF3F803F8
1FC003FBF000FC
3F8001FFE000FE
3F8001FFC0007E
7F0000FFC0007E
7F0000FF80003F
7E00007F80003F
FE00007F00003F
FE00007F00003F
FE00007F00003F
FE00007FFFFFFF
FC00003FFFFFFF
FC00003FFFFFFF
FC00003FFFFFFF
FC00003F000000
FC00007F000000
FE00007F000000
FE00007F000000
7E00007F800000
7E00007F80003F
7F0000FF80003F
7F0000FFC0003F
3F8001FFC0007F
3F8001FFE000FE
1FC003F7F000FE
0FE007E3F803FC
07FC3FE1FF0FF8
03FFFFC1FFFFF0
01FFFF807FFFE0
007FFE003FFF80
000FF00007FC00
ENDCHAR
STARTCHAR 0160
ENCODING 352
SWIDTH 647 0
DWIDTH 44 0
BBX 36 69 4 -1
BITMAP
007800F000
007C01F000
003C03E000
003E03C000
001F07C000
001F8F8000
000F9F8000
000FDF0000
0007FF0000
0007FE0000
0003FE0000
0003FC0000
0000000000
0000000000
0000000000
0000000000
0000000000
0000000000
0007FE0000
003FFFC000
00FFFFF000
03FFFFFC00
07FFFFFE00
0FFFFFFF00
1FF803FF80
1FC0007F80
3F80003FC0
3F00001FC0
7F00000FC0
7F00000FC0
7E00000FC0
7E00000000
7E00000000
7F00000000
7F00000000
7F80000000
3FC0000000
3FE0000000
1FFC000000
1FFFC00000
0FFFFE0000
07FFFFC000
01FFFFF800
007FFFFE00
000FFFFF00
00007FFF80
000003FFC0
0000007FE0
0000001FE0
0000000FF0
00000007F0
00000007F0
00000003F0
FC000003F0
FC000003F0
FE000003F0
FE000003F0
FE000003F0
7F000007F0
7F00000FF0
7F80001FE0
3FC0003FE0
1FF803FFC0
1FFFFFFF80
0FFFFFFF00
07FFFFFE00
01FFFFF800
007FFFC000
000FFC0000
ENDCHAR
STARTCHAR 0161
ENCODING 353
SWIDTH 500 0
DWIDTH 34 0
BBX 27 54 3 -1
BITMAP
0F001E00
07803E00
07C07C00
03C07C00
03E0F800
01F1F800
01FBF000
00FBF000
00FFE000
007FC000
007FC000
003F8000
00000000
00000000
00000000
00000000
00000000
00000000
00FFE000
03FFFC00
0FFFFE00
1FFFFF80
3FF1FF80
3F803FC0
7F001FC0
7E000FC0
7E000FC0
7E000FC0
7E000000
7E000000
7F000000
7FC00000
3FF80000
3FFF8000
1FFFF800
0FFFFE00
03FFFF80
007FFFC0
0003FFC0
00003FE0
00001FE0
00000FE0
000007E0
FC0007E0
FC0007E0
FE0007E0
FE000FE0
7F001FE0
7F803FC0
3FF1FF80
3FFFFF00
0FFFFE00
07FFF800
00FFC000
ENDCHAR
STARTCHAR 0178
ENCODING 376
SWIDTH 676 0
DWIDTH 46 0
BBX 42 64 2 0
BITMAP
001F807E0000
001F807E0000
001F807E0000
001F807E0000
001F807E0000
001F807E0000
000000000000
000000000000
000000000000
000000000000
000000000000
000000000000
000000000000
000000000000
000000000000
FF0000001FC0
FF8000003FC0
7F8000007F80
7FC000007F00
3FC00000FF00
1FE00000FE00
1FE00001FE00
0FF00001FC00
07F80003F800
07F80007F800
03FC0007F000
03FC000FE000
01FE000FE000
00FE001FC000
00FF003F8000
007F803F8000
003F807F0000
003FC07F0000
001FC0FE0000
001FE0FC0000
000FF1FC0000
0007F3F80000
0007FBF00000
0003FFF00000
0001FFE00000
0001FFE00000
0000FFC00000
0000FF800000
00007F800000
00003F000000
00003F000000
00003F000000
00003F000000
00003F000000
00003F000000
00003F000000
00003F000000
00003F000000
00003F000000
00003F000000
00003F000000
00003F000000
00003F000000
00003F000000
00003F000000
00003F000000
00003F000000
00003F000000
00003F000000
ENDCHAR
STARTCHAR 017D
ENCODING 381
SWIDTH 617 0
DWIDTH 42 0
BBX 36 68 3 0
BITMAP
01E001E000
00F003C000
00F807C000
00780F8000
007C0F8000
003E1F0000
003F3F0000
001FFE0000
001FFE0000
000FFC0000
000FFC0000
0007F80000
0000000000
0000000000
0000000000
0000000000
0000000000
0000000000
0000000000
7FFFFFFFE0
7FFFFFFFE0
7FFFFFFFE0
7FFFFFFFE0
7FFFFFFFE0
7FFFFFFFE0
0000001FE0
0000003FE0
0000003FC0
0000007F80
000000FF80
000001FF00
000003FE00
000003FC00
000007FC00
00000FF800
00001FF000
00001FE000
00003FC000
00007FC000
0000FF8000
0001FF0000
0001FE0000
0003FC0000
0007FC0000
000FF80000
000FF00000
001FE00000
003FE00000
007FC00000
00FF800000
00FF000000
01FE000000
03FE000000
07FC000000
07F8000000
0FF0000000
1FF0000000
3FE0000000
7FC0000000
7F80000000
FF00000000
FF00000000
FFFFFFFFF0
FFFFFFFFF0
FFFFFFFFF0
FFFFFFFFF0
FFFFFFFFF0
FFFFFFFFF0
ENDCHAR
STARTCHAR 017E
ENCODING 382
SWIDTH 455 0
DWIDTH 31 0
BBX 25 53 3 0
BITMAP
78007800
3C00F800
3E00F000
1F01F000
1F83E000
0F87E000
07CFC000
07EFC000
03FF8000
03FF0000
01FF0000
01FE0000
00000000
00000000
00000000
00000000
00000000
00000000
00000000
7FFFFF80
7FFFFF80
7FFFFF80
7FFFFF80
00003F80
00007F80
0000FF00
0000FE00
0001FE00
0003FC00
0007F800
0007F000
000FF000
001FE000
003FC000
003F8000
007F0000
00FF0000
00FE0000
01FC0000
03F80000
07F80000
07F00000
0FE00000
1FC00000
3FC00000
3F800000
7F000000
FE000000
FE000000
FFFFFF80
FFFFFF80
FFFFFF80
FFFFFF80
ENDCHAR
STARTCHAR 0192
ENCODING 402
SWIDTH 500 0
DWIDTH 34 0
BBX 40 64 -5 -14
BITMAP
00000001FF
00000007FF
0000000FFF
0000001FFF
0000003FC6
0000007F00
0000007E00
000000FC00
000000FC00
000001FC00
000001F800
000001F800
000003F800
000003F000
000003F000
000003F000
0001FFFFF0
0003FFFFE0
0003FFFFE0
0003FFFFE0
00000FC000
00000FC000
00000FC000
00001FC000
00001F8000
00001F8000
00001F8000
00003F8000
00003F0000
00003F0000
00003F0000
00007E0000
00007E0000
00007E0000
00007E0000
0000FC0000
0000FC0000
0000FC0000
0001FC0000
0001F80000
0001F80000
0001F80000
0003F80000
0003F00000
0003F00000
0003F00000
0007E00000
0007E00000
0007E00000
0007E00000
000FC00000
000FC00000
000FC00000
001F800000
001F800000
003F800000
003F000000
007F000000
41FE000000
7FFC000000
7FFC000000
FFF8000000
FFE0000000
7F00000000
ENDCHAR
STARTCHAR 02C6
ENCODING 710
SWIDTH 294 0
DWIDTH 20 0
BBX 19 12 0 41
BITMAP
03FC00
03FC00
07FE00
07FE00
0FFF00
1F9F00
1F1F80
3F0F80
3E07C0
7C03C0
7803E0
F001E0
ENDCHAR
STARTCHAR 02C7
ENCODING 711
SWIDTH 294 0
DWIDTH 20 0
BBX 20 12 0 41
BITMAP
F000F0
7801E0
7C03E0
3C07C0
3E07C0
1F0F80
1F9F80
0FFF00
0FFE00
07FE00
07FC00
03FC00
ENDCHAR
STARTCHAR 02D8
ENCODING 728
SWIDTH 279 0
DWIDTH 19 0
BBX 19 8 0 41
BITMAP
F001E0
F001E0
7803C0
7F1FC0
3FFF80
1FFF00
0FFE00
03F800
ENDCHAR
STARTCHAR 02D9
ENCODING 729
SWIDTH 102 0
DWIDTH 7 0
BBX 6 7 0 41
BITMAP
FC
FC
FC
FC
FC
FC
FC
ENDCHAR
STARTCHAR 02DA
ENCODING 730
SWIDTH 220 0
DWIDTH 15 0
BBX 15 15 0 41
BITMAP
07C0
1FF0
3FF8
783C
701C
E00E
E00E
E00E
E00E
E00E
701C
783C
3FF8
1FF0
07C0
ENDCHAR
STARTCHAR 02DB
ENCODING 731
SWIDTH 205 0
DWIDTH 14 0
BBX 11 15 0 -15
BITMAP
0700
0E00
1E00
3C00
3C00
7800
7800
F800
F800
F800
FE20
FFE0
7FE0
3FE0
1FE0
ENDCHAR
STARTCHAR 02DC
ENCODING 732
SWIDTH 294 0
DWIDTH 20 0
BBX 20 7 0 43
BITMAP
0000F0
0F80F0
3FF9E0
7FFFE0
7FFFC0
F9FF80
F03F00
ENDCHAR
STARTCHAR 02DD
ENCODING 733
SWIDTH 294 0
DWIDTH 20 0
BBX 20 12 0 41
BITMAP
07E3F0
0FC3E0
0F87E0
1F87C0
1F0FC0
1E0F80
3E0F00
3C1F00
7C1E00
783E00
703C00
F03800
ENDCHAR
STARTCHAR 0394
ENCODING 916
SWIDTH 632 0
DWIDTH 43 0
BBX 42 49 1 1
BITMAP
000002000000
000006000000
000006000000
00000F000000
00000F000000
00001F800000
00001F800000
00003F800000
00003FC00000
00007FC00000
00007FE00000
00007FE00000
0000FFE00000
0000EFF00000
0001EFF00000
0001C7F80000
0003C7F80000
000383F80000
000783FC0000
000703FC0000
000F01FE0000
000E01FE0000
000E00FE0000
001E00FF0000
001C007F0000
003C007F8000
0038007F8000
0078003F8000
0070003FC000
00F0001FC000
00E0001FE000
01E0001FE000
01C0000FE000
03C0000FF000
03800007F000
03800007F800
07800007F800
07000003FC00
0F000003FC00
0E000001FC00
1E000001FE00
1C000001FE00
3C000000FF00
38000000FF00
780000007F00
7FFFFFFFFF80
7FFFFFFFFF80
FFFFFFFFFFC0
FFFFFFFFFFC0
ENDCHAR
STARTCHAR 03A9
ENCODING 937
SWIDTH 794 0
DWIDTH 54 0
BBX 49 50 3 0
BITMAP
00001FFC000000
0001FFFFC00000
0007FE1FF80000
001FC001FE0000
007F00007F0000
00FE00003F8000
01FC00001FC000
03F800000FE000
07F0000007F000
0FF0000007F800
0FE0000003F800
1FE0000003FC00
1FC0000001FC00
3FC0000001FE00
3FC0000001FE00
3FC0000001FE00
7FC0000000FF00
7F80000000FF00
7F80000000FF00
7F80000000FF00
7F80000000FF00
7F80000000FF00
7F80000000FF00
7F80000000FF00
7FC0000000FF00
7FC0000001FF00
3FC0000001FE00
3FC0000001FE00
3FC0000001FE00
1FE0000001FC00
1FE0000003FC00
0FE0000003F800
0FF0000007F800
07F0000007F000
03F800000FE000
01FC00001FC000
00FE00003F8000
007F00007F0000
001FC001FC0000
8007E007F00080
8000E007800080
C000E007800180
C000F007800180
FFFFF007FFFF80
FFFFF007FFFF80
FFFFF007FFFF80
FFFFF007FFFF80
FFFFF007FFFF80
FFFFF00FFFFF80
FFFFF00FFFFF80
ENDCHAR
STARTCHAR 03BC
ENCODING 956
SWIDTH 647 0
DWIDTH 44 0
BBX 37 49 5 -14
BITMAP
FC0001F800
FC0001F800
FC0001F800
FC0001F800
FC0001F800
FC0001F800
FC0001F800
FC0001F800
FC0001F800
FC0001F800
FC0001F800
FC0001F800
FC0001F800
FC0001F800
FC0001F800
FC0001F800
FC0001F800
FC0001F800
FC0001F800
FC0001F800
FC0001F800
FC0001F800
FC0001F800
FC0001F800
FC0001F800
FC0001F800
FE0003F800
FE0003F800
FF0007F800
FF800FFC00
FFC01FFC00
FFF0FCFFF8
FFFFFCFFF8
FFFFF87FF8
FDFFE03FF8
FC7F800FF0
FC00000000
FC00000000
FC00000000
FC00000000
FC00000000
FC00000000
FC00000000
FC00000000
FC00000000
FC00000000
FC00000000
FC00000000
FC00000000
ENDCHAR
STARTCHAR 03C0
ENCODING 960
SWIDTH 573 0
DWIDTH 39 0
BBX 37 36 1 -1
BITMAP
01FFFFFFF8
07FFFFFFF8
0FFFFFFFF8
1FFFFFFFF8
1FFFFFFFF8
3FFFFFFFF8
381E01F000
701E01F000
601E01E000
C03E01E000
803E01E000
003E01E000
003E01E000
003E01E000
003C01E000
003C03E000
003C03E000
007C03E000
007C03E000
007C03E000
007C03E000
007C03E000
007803E000
007803E000
00F803E018
00F803E018
01F803F018
03F803F018
07F803F830
0FF001FFF0
0FF001FFF0
0FF001FFE0
0FF000FFE0
0FE000FFC0
0FE0007F80
0780001E00
ENDCHAR
STARTCHAR 2013
ENCODING 8211
SWIDTH 500 0
DWIDTH 34 0
BBX 34 4 0 14
BITMAP
FFFFFFFFC0
FFFFFFFFC0
FFFFFFFFC0
FFFFFFFFC0
ENDCHAR
STARTCHAR 2014
ENCODING 8212
SWIDTH 1000 0
DWIDTH 68 0
BBX 68 4 0 14
BITMAP
FFFFFFFFFFFFFFFFF0
FFFFFFFFFFFFFFFFF0
FFFFFFFFFFFFFFFFF0
FFFFFFFFFFFFFFFFF0
ENDCHAR
STARTCHAR 2018
ENCODING 8216
SWIDTH 250 0
DWIDTH 17 0
BBX 12 17 3 32
BITMAP
01F0
03E0
03E0
07E0
07E0
07C0
0FC0
0FC0
1FC0
1F80
3F80
3F80
7F80
7F80
7F00
FF00
FF00
ENDCHAR
STARTCHAR 2019
ENCODING 8217
SWIDTH 250 0
DWIDTH 17 0
BBX 12 17 3 32
BITMAP
1FF0
1FE0
1FE0
1FC0
3FC0
3F80
3F80
3F00
3F00
7F00
7E00
7E00
7C00
FC00
F800
F800
F800
ENDCHAR
STARTCHAR 201A
ENCODING 8218
SWIDTH 250 0
DWIDTH 17 0
BBX 12 17 3 -9
BITMAP
1FF0
1FE0
1FE0
1FC0
3FC0
3F80
3F80
3F00
3F00
7F00
7E00
7E00
7C00
FC00
F800
F800
F800
ENDCHAR
STARTCHAR 201C
ENCODING 8220
SWIDTH 441 0
DWIDTH 30 0
BBX 24 17 3 32
BITMAP
01F01F
03E01F
03E03F
07E03E
07E07E
07C07E
0FC07E
0FC0FC
1FC0FC
1F81FC
3F81FC
3F83F8
7F83F8
7F87F8
7F07F8
FF07F0
FF0FF0
ENDCHAR
STARTCHAR 201D
ENCODING 8221
SWIDTH 441 0
DWIDTH 30 0
BBX 24 17 3 32
BITMAP
1FF0FF
1FE0FF
1FE1FE
1FC1FE
3FC1FC
3F81FC
3F83F8
3F03F8
3F03F0
7F03F0
7E03F0
7E07E0
7C07E0
FC07C0
F807C0
F80F80
F80F80
ENDCHAR
STARTCHAR 201E
ENCODING 8222
SWIDTH 441 0
DWIDTH 30 0
BBX 24 17 3 -9
BITMAP
1FF0FF
1FE0FF
1FE1FE
1FC1FE
3FC1FC
3F81FC
3F83F8
3F03F8
3F03F0
7F03F0
7E03F0
7E07E0
7C07E0
FC07C0
F807C0
F80F80
F80F80
ENDCHAR
STARTCHAR 2020
ENCODING 8224
SWIDTH 558 0
DWIDTH 38 0
BBX 32 60 3 -11
BITMAP
0007E000
0007E000
0007E000
0007E000
0007E000
0007E000
0007E000
0007E000
0007E000
0007E000
0007E000
0007E000
0007E000
0007E000
0007E000
FFFFFFFF
FFFFFFFF
FFFFFFFF
FFFFFFFF
FFFFFFFF
0007E000
0007E000
0007E000
0007E000
0007E000
0007E000
0007E000
0007E000
0007E000
0007E000
0007E000
0007E000
0007E000
0007E000
0007E000
0007E000
0007E000
0007E000
0007E000
0007E000
0007E000
0007E000
0007E000
0007E000
0007E000
0007E000
0007E000
0007E000
0007E000
0007E000
0007E000
0007E000
0007E000
0007E000
0007E000
0007E000
0007E000
0007E000
0007E000
0007E000
ENDCHAR
STARTCHAR 2021
ENCODING 8225
SWIDTH 558 0
DWIDTH 38 0
BBX 32 60 3 -11
BITMAP
0007E000
0007E000
0007E000
0007E000
0007E000
0007E000
0007E000
0007E000
0007E000
0007E000
0007E000
0007E000
0007E000
0007E000
0007E000
FFFFFFFF
FFFFFFFF
FFFFFFFF
FFFFFFFF
FFFFFFFF
0007E000
0007E000
0007E000
0007E000
0007E000
0007E000
0007E000
0007E000
0007E000
0007E000
0007E000
0007E000
0007E000
0007E000
0007E000
0007E000
0007E000
0007E000
0007E000
0007E000
FFFFFFFF
FFFFFFFF
FFFFFFFF
FFFFFFFF
FFFFFFFF
0007E000
0007E000
0007E000
0007E000
0007E000
0007E000
0007E000
0007E000
0007E000
0007E000
0007E000
0007E000
0007E000
0007E000
0007E000
ENDCHAR
STARTCHAR 2022
ENCODING 8226
SWIDTH 294 0
DWIDTH 20 0
BBX 16 16 2 15
BITMAP
07E0
1FF8
3FFC
7FFE
7FFE
FFFF
FFFF
FFFF
FFFF
FFFF
FFFF
7FFE
7FFE
3FFC
1FF8
07E0
ENDCHAR
STARTCHAR 2026
ENCODING 8230
SWIDTH 985 0
DWIDTH 67 0
BBX 61 8 3 0
BITMAP
FE00001FC00003F8
FE00001FC00003F8
FE00001FC00003F8
FE00001FC00003F8
FE00001FC00003F8
FE00001FC00003F8
FE00001FC00003F8
FE00001FC00003F8
ENDCHAR
STARTCHAR 2030
ENCODING 8240
SWIDTH 1323 0
DWIDTH 90 0
BBX 84 51 3 0
BITMAP
0000000000780000000000
00FF000000F80000000000
03FFC00000F00000000000
0FFFF00001E00000000000
1FFFF80003E00000000000
3FE3FC0003C00000000000
3F80FE0007C00000000000
7F007E0007800000000000
7E007F000F800000000000
7E007F000F000000000000
FE003F001E000000000000
FE003F003E000000000000
FC003F003C000000000000
FC003F007C000000000000
FC003F0078000000000000
FC003F00F8000000000000
FC003F00F0000000000000
FE003F01E0000000000000
FE003F03E0000000000000
7E007F03C0000000000000
7F007E07C0000000000000
3F00FE0780000000000000
3FC1FC0F80000000000000
1FFFF80F00000000000000
0FFFF01E00000000000000
07FFE03E01FF80001FF000
01FF803C07FFE0007FFC00
0000007C0FFFF001FFFF00
000000781FFFF803FFFF80
000000F83F81FC07F83FC0
000000F07F00FE07E00FC0
000001E07E007E0FE00FE0
000003E0FE007F0FC007E0
000003C0FC003F1FC007E0
000007C0FC003F1FC007F0
00000780FC003F1F8007F0
00000F80FC003F1F8003F0
00000F00FC003F1F8003F0
00001E00FC003F1F8003F0
00001E00FC003F1F8003F0
00003C00FC003F1FC007F0
00007C00FC003F1FC007F0
00007800FE007F0FC007E0
0000F800FE007F0FC007E0
0000F0007E007E0FE00FE0
0001E0007F00FE07F01FC0
0001E0003FC3FC03FC7F80
0003C0001FFFF803FFFF80
0007C0000FFFF000FFFE00
0007800003FFC0007FFC00
000F800000FF00000FE000
ENDCHAR
STARTCHAR 2039
ENCODING 8249
SWIDTH 367 0
DWIDTH 25 0
BBX 14 27 5 4
BITMAP
007C
00FC
00F8
01F8
03F0
03E0
07E0
0FC0
1FC0
1F80
3F00
7F00
7E00
FC00
7E00
7F00
3F00
1F80
1FC0
0FC0
07E0
03E0
03F0
01F8
00F8
00FC
007C
ENDCHAR
STARTCHAR 203A
ENCODING 8250
SWIDTH 367 0
DWIDTH 25 0
BBX 15 27 5 4
BITMAP
FC00
7C00
3E00
3F00
1F00
1F80
0FC0
07E0
07E0
03F0
03F8
01F8
00FC
00FE
00FC
01F8
03F8
03F0
07E0
07E0
0FC0
1F80
1F00
3F00
3E00
7C00
FC00
ENDCHAR
STARTCHAR 2044
ENCODING 8260
SWIDTH 558 0
DWIDTH 38 0
BBX 34 51 2 -1
BITMAP
00000007C0
0000000F80
0000000F00
0000001F00
0000001E00
0000003E00
0000007C00
0000007C00
000000F800
000000F000
000001F000
000001E000
000003E000
000007C000
000007C000
00000F8000
00000F0000
00001F0000
00001E0000
00003E0000
00007C0000
00007C0000
0000F80000
0000F80000
0001F00000
0001E00000
0003E00000
0003C00000
0007C00000
000F800000
000F800000
001F000000
001E000000
003E000000
003C000000
007C000000
00F8000000
00F8000000
01F0000000
01E0000000
03E0000000
03C0000000
07C0000000
0F80000000
0F80000000
1F00000000
1E00000000
3E00000000
3C00000000
7C00000000
F800000000
ENDCHAR
STARTCHAR 2122
ENCODING 8482
SWIDTH 661 0
DWIDTH 45 0
BBX 38 19 3 30
BITMAP
FFFE1F007C
FFFE1F007C
FFFE1F00FC
03801F80FC
03801F80FC
03801D81DC
03801DC1DC
03801DC1DC
03801CC39C
03801CE39C
03801CE39C
03801C671C
03801C771C
03801C771C
03801C3E1C
03801C3E1C
03801C3E1C
03801C1C1C
03801C1C1C
ENDCHAR
STARTCHAR 2202
ENCODING 8706
SWIDTH 558 0
DWIDTH 38 0
BBX 31 54 3 -1
BITMAP
00FF0000
0FFFE000
1FFFF800
0FE1FE00
07001F00
04000F80
00000780
000003C0
000001E0
000001E0
000000F0
000000F0
000000F8
00000078
0000007C
0000007C
0000007C
0000007C
0000003C
0000003E
0000003E
0000003E
0000003E
0000003E
001F807E
007FF07E
01FFF87E
03FC1E7E
0FF0077E
1FE001FE
1FC001FE
3F8000FE
3F8000FE
7F0000FC
7F0000FC
7E0000FC
FE0000FC
FE0001FC
FC0001F8
FC0001F8
FC0001F8
FC0003F0
FC0003F0
FC0003E0
FC0007E0
7C0007E0
7E000FC0
3E000F80
3E001F80
1F003F00
0F807E00
07C1FC00
01FFF000
007FC000
ENDCHAR
STARTCHAR 220F
ENCODING 8719
SWIDTH 852 0
DWIDTH 58 0
BBX 55 60 2 -7
BITMAP
FFFFFFFFFFFFFE
FFFFFFFFFFFFFE
0FFFFFFFFFFFE0
07FFFFFFFFFFC0
03FE000000FF80
03FE000000FF80
01FE000000FF00
01FE000000FF00
01FE000000FF00
01FE000000FF00
01FE000000FF00
01FE000000FF00
01FE000000FF00
01FE000000FF00
01FE000000FF00
01FE000000FF00
01FE000000FF00
01FE000000FF00
01FE000000FF00
01FE000000FF00
01FE000000FF00
01FE000000FF00
01FE000000FF00
01FE000000FF00
01FE000000FF00
01FE000000FF00
01FE000000FF00
01FE000000FF00
01FE000000FF00
01FE000000FF00
01FE000000FF00
01FE000000FF00
01FE000000FF00
01FE000000FF00
01FE000000FF00
01FE000000FF00
01FE000000FF00
01FE000000FF00
01FE000000FF00
01FE000000FF00
01FE000000FF00
01FE000000FF00
01FE000000FF00
01FE000000FF00
01FE000000FF00
01FE000000FF00
01FE000000FF00
01FE000000FF00
01FE000000FF00
01FE000000FF00
01FE000000FF00
01FE000000FF00
01FE000000FF00
01FE000000FF00
01FE000000FF00
03FE000000FF80
03FF000001FF80
07FF800003FFC0
FFFFFC007FFFFE
FFFFFC007FFFFE
ENDCHAR
STARTCHAR 2211
ENCODING 8721
SWIDTH 750 0
DWIDTH 51 0
BBX 48 61 1 -8
BITMAP
FFFFFFFFFFE0
7FFFFFFFFFE0
3FFFFFFFFFE0
1FFFFFFFFFE0
0FF8000007E0
0FFC000001E0
07FC000000E0
03FE00000060
01FF00000060
01FF80000030
00FF80000030
007FC0000030
003FE0000000
003FF0000000
001FF8000000
000FF8000000
0007FC000000
0007FE000000
0003FF000000
0001FF000000
0000FF800000
00007FC00000
00007FE00000
00003FE00000
00001FF00000
00000FF80000
00000FFC0000
000007FC0000
000003FE0000
000001FE0000
000001FC0000
000000F80000
000000F00000
000001E00000
000003C00000
000007C00000
00000F800000
00000F000000
00001E000000
00003C000000
000078000000
0000F0000000
0001F0000000
0003E0000000
0007C0000000
000780000003
000F00000006
001E00000006
003C0000000E
00780000000E
00F80000001C
01F00000003C
03E0000003FC
03FFFFFFFFFC
07FFFFFFFFFC
0FFFFFFFFFFC
1FFFFFFFFFF8
3FFFFFFFFFF8
7FFFFFFFFFF8
FFFFFFFFFFF8
000000000008
ENDCHAR
STARTCHAR 2212
ENCODING 8722
SWIDTH 1000 0
DWIDTH 68 0
BBX 41 4 14 18
BITMAP
FFFFFFFFFF80
FFFFFFFFFF80
FFFFFFFFFF80
FFFFFFFFFF80
ENDCHAR
STARTCHAR 221A
ENCODING 8730
SWIDTH 573 0
DWIDTH 39 0
BBX 37 48 2 0
BITMAP
00000000F8
00000001F8
00000001C0
0000000180
0000000380
0000000380
0000000380
0000000300
0000000700
0000000700
0000000600
0000000600
0000000E00
0000000E00
0000000C00
0300001C00
0F00001C00
3F80001C00
FF80001800
E7C0003800
83C0003800
03E0003000
01E0003000
01F0007000
00F0007000
00F8006000
007800E000
007C00E000
003C00E000
003E00C000
001E01C000
001F01C000
000F018000
000F818000
0007838000
0007C38000
0003C30000
0003E70000
0001E70000
0001F70000
0000FE0000
0000FE0000
00007E0000
00007E0000
00003C0000
00003C0000
00001C0000
0000180000
ENDCHAR
STARTCHAR 221E
ENCODING 8734
SWIDTH 1000 0
DWIDTH 68 0
BBX 44 19 12 11
BITMAP
03F00000FC00
0FFE0003FF00
1FFF000FFF80
3FFFC03FFFC0
7C07E07E03E0
F801F0F801F0
F000F9F000F0
F0007FE000F0
E0001F800070
E0000F000070
E0001F800070
E0003FC00070
F00079E000F0
F000F8F000F0
7803E07C01E0
3F1FC03F07C0
1FFF801FFF80
0FFE0007FF00
03F80001FC00
ENDCHAR
STARTCHAR 222B
ENCODING 8747
SWIDTH 470 0
DWIDTH 32 0
BBX 28 65 2 -14
BITMAP
00000FC0
00003FE0
0000FFF0
0000FFF0
0001FFF0
0003C7E0
0003C1E0
0003C000
0007C000
0007C000
0007C000
0007C000
00078000
00078000
000F8000
000F8000
000F8000
000F8000
000F8000
000F8000
000F8000
000F8000
000F8000
000F8000
000F8000
000F8000
000F8000
000F8000
000F8000
000F8000
000F8000
001F8000
001F8000
001F8000
001F8000
001F8000
001F8000
001F8000
001F8000
001F8000
001F8000
001F0000
001F0000
001F0000
001F0000
001F0000
001F0000
001F0000
001F0000
001F0000
001F0000
001F0000
001E0000
001E0000
003E0000
003E0000
003C0000
103C0000
7C3C0000
FF380000
FFF80000
FFF00000
FFE00000
7FC00000
0C000000
ENDCHAR
STARTCHAR 2248
ENCODING 8776
SWIDTH 1000 0
DWIDTH 68 0
BBX 40 21 14 10
BITMAP
0000000001
03FF000003
1FFFF00007
3FFFFE001F
FFFFFFC07F
FC01FFFFFE
F0003FFFFC
C00007FFF0
8000007F80
0000000000
0000000000
0000000000
01FE000001
0FFFE00007
3FFFFC000F
7FFFFFC07F
FC03FFFFFE
F0003FFFFC
E00007FFF0
800000FFC0
8000000000
ENDCHAR
STARTCHAR 2260
ENCODING 8800
SWIDTH 1000 0
DWIDTH 68 0
BBX 41 31 14 6
BITMAP
00000000C000
00000001E000
00000003F000
00000007E000
0000000FC000
0000001F8000
0000003F0000
FFFFFFFFFF80
FFFFFFFFFF80
FFFFFFFFFF80
FFFFFFFFFF80
000007E00000
00000FC00000
00000F800000
00001F000000
00003E000000
00007C000000
0000F8000000
0001F0000000
0003E0000000
FFFFFFFFFF80
FFFFFFFFFF80
FFFFFFFFFF80
FFFFFFFFFF80
007C00000000
00F800000000
01F000000000
03E000000000
07C000000000
078000000000
030000000000
ENDCHAR
STARTCHAR 2264
ENCODING 8804
SWIDTH 1000 0
DWIDTH 68 0
BBX 41 38 14 0
BITMAP
000000000180
000000000F80
000000007F80
00000003FF80
0000001FFF00
000001FFF000
00000FFF8000
00007FFC0000
0003FFC00000
001FFE000000
00FFF0000000
0FFF00000000
7FF800000000
FF8000000000
FC0000000000
FC0000000000
FF8000000000
7FF800000000
0FFF00000000
01FFE0000000
001FFE000000
0003FFC00000
00007FFC0000
00000FFF8000
000001FFF000
0000003FFF00
00000003FF80
000000007F80
000000000F80
000000000180
000000000000
000000000000
000000000000
000000000000
FFFFFFFFFF80
FFFFFFFFFF80
FFFFFFFFFF80
FFFFFFFFFF80
ENDCHAR
STARTCHAR 2265
ENCODING 8805
SWIDTH 1000 0
DWIDTH 68 0
BBX 41 38 14 0
BITMAP
C00000000000
F80000000000
FF0000000000
FFE000000000
7FFC00000000
0FFF80000000
00FFF8000000
001FFF000000
0003FFE00000
00003FFC0000
000007FF8000
0000007FF000
0000000FFF00
00000001FF80
000000001F80
000000001F80
00000001FF80
0000000FFF00
0000007FF000
000007FF8000
00003FFC0000
0001FFE00000
001FFF000000
00FFF8000000
07FFC0000000
7FFC00000000
FFE000000000
FF0000000000
F80000000000
C00000000000
000000000000
000000000000
000000000000
000000000000
FFFFFFFFFF80
FFFFFFFFFF80
FFFFFFFFFF80
FFFFFFFFFF80
ENDCHAR
STARTCHAR 25CA
ENCODING 9674
SWIDTH 529 0
DWIDTH 36 0
BBX 32 53 2 0
BITMAP
0003E000
0007E000
0007F000
000FF000
000FF800
001F7800
001E3C00
003E3C00
003C1E00
00781E00
00780F00
00F00F00
00F00780
01E00780
01E003C0
03C003C0
03C001E0
078001E0
078000F0
0F0000F8
1F000078
1E00007C
3E00003C
3C00003E
7C00001E
7800001F
F800000F
7800001F
7C00001E
3C00003E
1E00003C
1E00007C
0F000078
0F0000F0
078000F0
078001E0
03C001E0
03C003C0
01E003C0
01E00780
00F00780
00F00F00
00780F00
00781E00
003C1E00
003C3C00
001E3C00
001E7800
000F7800
000FF000
0007F000
0007E000
0003E000
ENDCHAR
STARTCHAR FB01
ENCODING 64257
SWIDTH 588 0
DWIDTH 40 0
BBX 34 50 1 0
BITMAP
0007F00000
003FFC0FC0
007FFC0FC0
00FFFC0FC0
00FF8C0FC0
01FE000FC0
01FC000FC0
01F8000000
01F8000000
01F8000000
01F8000000
01F8000000
01F8000000
01F8000000
01F8000000
01F8000000
FFFFF80FC0
FFFFF80FC0
FFFFF80FC0
FFFFF80FC0
01F8000FC0
01F8000FC0
01F8000FC0
01F8000FC0
01F8000FC0
01F8000FC0
01F8000FC0
01F8000FC0
01F8000FC0
01F8000FC0
01F8000FC0
01F8000FC0
01F8000FC0
01F8000FC0
01F8000FC0
01F8000FC0
01F8000FC0
01F8000FC0
01F8000FC0
01F8000FC0
01F8000FC0
01F8000FC0
01F8000FC0
01F8000FC0
01F8000FC0
01F8000FC0
01F8000FC0
01F8000FC0
01F8000FC0
01F8000FC0
ENDCHAR
STARTCHAR FB02
ENCODING 64258
SWIDTH 588 0
DWIDTH 40 0
BBX 34 50 1 0
BITMAP
0007F00000
003FFC0FC0
007FFC0FC0
00FFFC0FC0
00FF8C0FC0
01FE000FC0
01FC000FC0
01F8000FC0
01F8000FC0
01F8000FC0
01F8000FC0
01F8000FC0
01F8000FC0
01F8000FC0
01F8000FC0
01F8000FC0
FFFFF80FC0
FFFFF80FC0
FFFFF80FC0
FFFFF80FC0
01F8000FC0
01F8000FC0
01F8000FC0
01F8000FC0
01F8000FC0
01F8000FC0
01F8000FC0
01F8000FC0
01F8000FC0
01F8000FC0
01F8000FC0
01F8000FC0
01F8000FC0
01F8000FC0
01F8000FC0
01F8000FC0
01F8000FC0
01F8000FC0
01F8000FC0
01F8000FC0
01F8000FC0
01F8000FC0
01F8000FC0
01F8000FC0
01F8000FC0
01F8000FC0
01F8000FC0
01F8000FC0
01F8000FC0
01F8000FC0
ENDCHAR
ENDFONT
